<?xml version="1.0" encoding="UTF-8" standalone="no"?>
<!DOCTYPE svg PUBLIC "-//W3C//DTD SVG 1.1//EN" "http://www.w3.org/Graphics/SVG/1.1/DTD/svg11.dtd">
<svg width="100%" height="100%" viewBox="0 0 3300 2200" version="1.1" xmlns="http://www.w3.org/2000/svg" xmlns:xlink="http://www.w3.org/1999/xlink" xml:space="preserve" xmlns:serif="http://www.serif.com/" style="fill-rule:evenodd;clip-rule:evenodd;">
    <g id="Notes">
        <rect id="artboard" x="0" y="0" width="3300" height="2200" style="fill:white;"/>
        <path d="M263,292L3036,292" style="fill:none;fill-rule:nonzero;stroke:black;stroke-width:0.5px;"/>
        <g transform="matrix(1,0,0,1,263,322)">
            <text x="0px" y="0px" style="font-family:'SFProDisplay-Regular', 'SF Pro Display';font-size:16px;">W<tspan x="13.922px " y="0px ">e</tspan>ight/Scale V<tspan x="101.313px " y="0px ">a</tspan>riations</text>
        </g>
        <g transform="matrix(1,0,0,1,559.711,322)">
            <text x="-30.41px" y="0px" style="font-family:'SFProDisplay-Regular', 'SF Pro Display';font-size:16px;">Ultr<tspan x="-6.41px " y="0px ">a</tspan>light</text>
        </g>
        <g transform="matrix(1,0,0,1,856.422,322)">
            <text x="-14.824px" y="0px" style="font-family:'SFProDisplay-Regular', 'SF Pro Display';font-size:16px;">Thin</text>
        </g>
        <g transform="matrix(1,0,0,1,1153.13,322)">
            <text x="-16.957px" y="0px" style="font-family:'SFProDisplay-Regular', 'SF Pro Display';font-size:16px;">Light</text>
        </g>
        <g transform="matrix(1,0,0,1,1449.84,322)">
            <text x="-25.609px" y="0px" style="font-family:'SFProDisplay-Regular', 'SF Pro Display';font-size:16px;">Regular</text>
        </g>
        <g transform="matrix(1,0,0,1,1746.56,322)">
            <text x="-27.465px" y="0px" style="font-family:'SFProDisplay-Regular', 'SF Pro Display';font-size:16px;">Medium</text>
        </g>
        <g transform="matrix(1,0,0,1,2043.27,322)">
            <text x="-31.656px" y="0px" style="font-family:'SFProDisplay-Regular', 'SF Pro Display';font-size:16px;">Semibold</text>
        </g>
        <g transform="matrix(1,0,0,1,2339.98,322)">
            <text x="-15.145px" y="0px" style="font-family:'SFProDisplay-Regular', 'SF Pro Display';font-size:16px;">Bold</text>
        </g>
        <g transform="matrix(1,0,0,1,2636.69,322)">
            <text x="-21.461px" y="0px" style="font-family:'SFProDisplay-Regular', 'SF Pro Display';font-size:16px;">Heavy</text>
        </g>
        <g transform="matrix(1,0,0,1,2933.4,322)">
            <text x="-18.375px" y="0px" style="font-family:'SFProDisplay-Regular', 'SF Pro Display';font-size:16px;">Black</text>
        </g>
        <path d="M263,1903L3036,1903" style="fill:none;fill-rule:nonzero;stroke:black;stroke-width:0.5px;"/>
        <g transform="matrix(1,0,0,1,263,1933)">
            <path d="M9.248,0.83C13.555,0.83 17.139,-2.744 17.139,-7.051C17.139,-11.357 13.545,-14.932 9.238,-14.932C4.941,-14.932 1.367,-11.357 1.367,-7.051C1.367,-2.744 4.951,0.83 9.248,0.83ZM9.248,-0.654C5.703,-0.654 2.871,-3.496 2.871,-7.051C2.871,-10.605 5.693,-13.447 9.238,-13.447C12.793,-13.447 15.635,-10.605 15.645,-7.051C15.654,-3.496 12.803,-0.654 9.248,-0.654ZM6.396,-6.318L8.506,-6.318L8.506,-4.199C8.506,-3.76 8.799,-3.457 9.229,-3.457C9.678,-3.457 9.971,-3.76 9.971,-4.199L9.971,-6.318L12.1,-6.318C12.539,-6.318 12.842,-6.611 12.842,-7.041C12.842,-7.48 12.539,-7.783 12.1,-7.783L9.971,-7.783L9.971,-9.893C9.971,-10.342 9.678,-10.645 9.229,-10.645C8.799,-10.645 8.506,-10.342 8.506,-9.893L8.506,-7.783L6.396,-7.783C5.947,-7.783 5.645,-7.48 5.645,-7.041C5.645,-6.611 5.947,-6.318 6.396,-6.318Z" style="fill-rule:nonzero;"/>
        </g>
        <g transform="matrix(1,0,0,1,281.506,1933)">
            <path d="M11.709,2.91C17.158,2.91 21.67,-1.611 21.67,-7.051C21.67,-12.5 17.148,-17.012 11.699,-17.012C6.26,-17.012 1.748,-12.5 1.748,-7.051C1.748,-1.611 6.27,2.91 11.709,2.91ZM11.709,1.25C7.1,1.25 3.418,-2.441 3.418,-7.051C3.418,-11.66 7.09,-15.352 11.699,-15.352C16.309,-15.352 20,-11.66 20.01,-7.051C20.02,-2.441 16.318,1.25 11.709,1.25ZM7.988,-6.23L10.879,-6.23L10.879,-3.32C10.879,-2.832 11.211,-2.5 11.69,-2.5C12.178,-2.5 12.52,-2.832 12.52,-3.32L12.52,-6.23L15.43,-6.23C15.918,-6.23 16.25,-6.563 16.25,-7.041C16.25,-7.529 15.918,-7.871 15.43,-7.871L12.52,-7.871L12.52,-10.762C12.52,-11.27 12.178,-11.602 11.69,-11.602C11.211,-11.602 10.879,-11.26 10.879,-10.762L10.879,-7.871L7.988,-7.871C7.48,-7.871 7.148,-7.529 7.148,-7.041C7.148,-6.563 7.49,-6.23 7.988,-6.23Z" style="fill-rule:nonzero;"/>
        </g>
        <g transform="matrix(1,0,0,1,304.924,1933)">
            <path d="M14.971,5.664C21.934,5.664 27.695,-0.098 27.695,-7.051C27.695,-14.014 21.924,-19.775 14.961,-19.775C8.008,-19.775 2.256,-14.014 2.256,-7.051C2.256,-0.098 8.018,5.664 14.971,5.664ZM14.971,3.848C8.936,3.848 4.082,-1.016 4.082,-7.051C4.082,-13.096 8.926,-17.949 14.961,-17.949C21.006,-17.949 25.859,-13.096 25.869,-7.051C25.879,-1.016 21.016,3.848 14.971,3.848ZM10.059,-6.143L14.063,-6.143L14.063,-2.129C14.063,-1.592 14.434,-1.221 14.951,-1.221C15.488,-1.221 15.859,-1.592 15.859,-2.129L15.859,-6.143L19.883,-6.143C20.41,-6.143 20.791,-6.514 20.791,-7.031C20.791,-7.568 20.42,-7.949 19.883,-7.949L15.859,-7.949L15.859,-11.953C15.859,-12.51 15.488,-12.881 14.951,-12.881C14.434,-12.881 14.063,-12.5 14.063,-11.953L14.063,-7.949L10.059,-7.949C9.502,-7.949 9.131,-7.568 9.131,-7.031C9.131,-6.514 9.512,-6.143 10.059,-6.143Z" style="fill-rule:nonzero;"/>
        </g>
        <g transform="matrix(1,0,0,1,263,1953)">
            <text x="0px" y="0px" style="font-family:'SFProDisplay-Regular', 'SF Pro Display';font-size:16px;">Design V<tspan x="59.211px " y="0px ">a</tspan>riations</text>
        </g>
        <g transform="matrix(1,0,0,1,263,1971)">
            <text x="0px" y="0px" style="font-family:'SFProDisplay-Regular', 'SF Pro Display';font-size:16px;">Symbols ar<tspan x="74.039px " y="0px ">e</tspan> support<tspan x="136.977px " y="0px ">e</tspan>d in up t<tspan x="197.406px " y="0px ">o</tspan> nine weights and thr<tspan x="343.289px " y="0px ">e</tspan>e scales.</text>
        </g>
        <g transform="matrix(1,0,0,1,263,1989)">
            <text x="0px" y="0px" style="font-family:'SFProDisplay-Regular', 'SF Pro Display';font-size:16px;">F<tspan x="8.133px " y="0px ">o</tspan>r optimal lay<tspan x="96.43px " y="0px ">o</tspan>ut with t<tspan x="157.508px 165.547px " y="0px 0px ">ex</tspan>t and other symbols,<tspan x="306.883px 310.164px 317.578px " y="0px 0px 0px "> ve</tspan>rtically align</text>
        </g>
        <g transform="matrix(1,0,0,1,263,2007)">
            <text x="0px" y="0px" style="font-family:'SFProDisplay-Regular', 'SF Pro Display';font-size:16px;">symbols with the adjacent t<tspan x="181.344px 189.383px " y="0px 0px ">ex</tspan>t.</text>
        </g>
        <path d="M776,1919L776,1933" style="fill:none;fill-rule:nonzero;stroke:rgb(0,174,239);stroke-width:0.5px;"/>
        <g transform="matrix(1,0,0,1,776,1933)">
            <path d="M3.311,0.127C3.828,0.127 4.082,-0.068 4.268,-0.605L5.527,-4.063L11.289,-4.063L12.549,-0.605C12.734,-0.068 12.988,0.127 13.496,0.127C14.014,0.127 14.346,-0.186 14.346,-0.674C14.346,-0.84 14.316,-0.986 14.238,-1.201L9.658,-13.389C9.434,-13.994 9.033,-14.287 8.408,-14.287C7.803,-14.287 7.393,-13.994 7.178,-13.398L2.598,-1.191C2.52,-0.977 2.49,-0.83 2.49,-0.664C2.49,-0.176 2.803,0.127 3.311,0.127ZM6.006,-5.537L8.379,-12.109L8.428,-12.109L10.801,-5.537L6.006,-5.537Z" style="fill-rule:nonzero;"/>
        </g>
        <path d="M792.836,1919L792.836,1933" style="fill:none;fill-rule:nonzero;stroke:rgb(0,174,239);stroke-width:0.5px;"/>
        <g transform="matrix(1,0,0,1,776,1953)">
            <text x="0px" y="0px" style="font-family:'SFProDisplay-Regular', 'SF Pro Display';font-size:16px;">M<tspan x="13.063px 21.094px 25.633px " y="0px 0px 0px ">arg</tspan>ins</text>
        </g>
        <g transform="matrix(1,0,0,1,776,1971)">
            <text x="0px" y="0px" style="font-family:'SFProDisplay-Regular', 'SF Pro Display';font-size:16px;">L<tspan x="8.156px " y="0px ">e</tspan>ading and tr<tspan x="95.227px " y="0px ">a</tspan>iling mar<tspan x="159.031px " y="0px ">g</tspan>ins on the left and right side of each symbol</text>
        </g>
        <g transform="matrix(1,0,0,1,776,1989)">
            <text x="0px" y="0px" style="font-family:'SFProDisplay-Regular', 'SF Pro Display';font-size:16px;">can be adjust<tspan x="88.727px " y="0px ">e</tspan>d b<tspan x="117.609px " y="0px ">y</tspan> modifying the x<tspan x="230.703px " y="0px ">-</tspan>location of the mar<tspan x="360.664px " y="0px ">g</tspan>in guidelines.</text>
        </g>
        <g transform="matrix(1,0,0,1,776,2007)">
            <text x="0px" y="0px" style="font-family:'SFProDisplay-Regular', 'SF Pro Display';font-size:16px;">Modifications ar<tspan x="106.484px " y="0px ">e</tspan> aut<tspan x="139.008px " y="0px ">o</tspan>matically applied pr<tspan x="275.977px " y="0px ">o</tspan>portionally t<tspan x="361.93px " y="0px ">o</tspan> all</text>
        </g>
        <g transform="matrix(1,0,0,1,776,2025)">
            <text x="0px" y="0px" style="font-family:'SFProDisplay-Regular', 'SF Pro Display';font-size:16px;">scales and weights.</text>
        </g>
        <g transform="matrix(1,0,0,1,1289,1933)">
            <path d="M2.842,1.865L4.541,3.574C5.4,4.443 6.387,4.385 7.314,3.359L17.49,-7.852C17.754,-7.764 18.027,-7.783 18.34,-7.842L19.404,-8.037L20.068,-7.363L20.029,-6.807C19.99,-6.309 20.117,-5.928 20.606,-5.449L21.367,-4.707C21.846,-4.229 22.461,-4.199 22.93,-4.668L25.84,-7.588C26.309,-8.057 26.289,-8.652 25.811,-9.131L25.039,-9.893C24.561,-10.371 24.19,-10.527 23.711,-10.488L23.135,-10.44L22.49,-11.074L22.734,-12.197C22.861,-12.764 22.705,-13.203 22.119,-13.789L19.922,-15.977C16.582,-19.297 12.148,-19.219 9.258,-16.328C8.838,-15.918 8.809,-15.342 9.043,-14.951C9.277,-14.59 9.736,-14.355 10.381,-14.522C11.846,-14.863 13.369,-14.922 14.795,-13.984L14.209,-12.529C14.014,-12.051 13.984,-11.65 14.111,-11.289L3.047,-0.898C2.061,0.02 1.982,0.996 2.842,1.865ZM10.752,-15.957C13.184,-17.734 16.475,-17.432 18.701,-15.205L21.133,-12.793C21.367,-12.559 21.406,-12.373 21.338,-12.031L21.016,-10.547L22.52,-9.063L23.506,-9.121C23.76,-9.131 23.838,-9.111 24.033,-8.916L24.609,-8.34L22.168,-5.898L21.592,-6.475C21.397,-6.67 21.367,-6.748 21.377,-7.012L21.445,-7.988L19.951,-9.473L18.428,-9.219C18.106,-9.15 17.959,-9.18 17.715,-9.414L15.713,-11.416C15.459,-11.65 15.43,-11.816 15.586,-12.188L16.465,-14.277C14.902,-15.732 12.871,-16.357 10.84,-15.762C10.684,-15.723 10.625,-15.85 10.752,-15.957ZM5.273,2.305L4.102,1.143C3.633,0.684 3.74,0.342 4.141,-0.02L14.951,-10.195L16.416,-8.711L6.426,2.275C6.074,2.676 5.742,2.773 5.273,2.305Z" style="fill-rule:nonzero;"/>
        </g>
        <g transform="matrix(1,0,0,1,1289,1953)">
            <text x="0px" y="0px" style="font-family:'SFProDisplay-Regular', 'SF Pro Display';font-size:16px;">Exporting</text>
        </g>
        <g transform="matrix(1,0,0,1,1289,1971)">
            <text x="0px" y="0px" style="font-family:'SFProDisplay-Regular', 'SF Pro Display';font-size:16px;">Symbols should be outlined when e<tspan x="235.289px " y="0px ">x</tspan>porting t<tspan x="298.188px " y="0px ">o</tspan> ensur<tspan x="347px " y="0px ">e</tspan> the</text>
        </g>
        <g transform="matrix(1,0,0,1,1289,1989)">
            <text x="0px" y="0px" style="font-family:'SFProDisplay-Regular', 'SF Pro Display';font-size:16px;">design is pr<tspan x="75.641px " y="0px ">e</tspan>serv<tspan x="111.82px " y="0px ">e</tspan>d when submitting t<tspan x="251.031px " y="0px ">o</tspan> X<tspan x="272.414px " y="0px ">c</tspan>ode.</text>
        </g>
        <g id="template-version" transform="matrix(1,0,0,1,3036,1933)">
            <text x="-96.57px" y="0px" style="font-family:'SFProDisplay-Regular', 'SF Pro Display';font-size:16px;">T<tspan x="-89.383px " y="0px ">e</tspan>mplat<tspan x="-43.664px " y="0px ">e</tspan> v<tspan x="-25.633px " y="0px ">.</tspan>2.0</text>
        </g>
        <g transform="matrix(1,0,0,1,3036,1951)">
            <text x="-191.594px" y="0px" style="font-family:'SFProDisplay-Regular', 'SF Pro Display';font-size:16px;">Requir<tspan x="-148.766px " y="0px ">e</tspan>s X<tspan x="-120.234px " y="0px ">c</tspan>ode 12 or gr<tspan x="-33.938px " y="0px ">e</tspan>at<tspan x="-13.125px " y="0px ">e</tspan>r</text>
        </g>
        <g transform="matrix(1,0,0,1,3036,1969)">
            <text x="-260.539px" y="0px" style="font-family:'SFProDisplay-Regular', 'SF Pro Display';font-size:16px;">Gener<tspan x="-219.641px -211.609px -207.023px " y="0px 0px 0px ">ate</tspan>d fr<tspan x="-177.289px " y="0px ">o</tspan>m w<tspan x="-141.375px " y="0px ">a</tspan>nd.and.st<tspan x="-71.75px " y="0px ">a</tspan>rs.inv<tspan x="-28.766px " y="0px ">e</tspan>rse</text>
        </g>
        <g transform="matrix(1,0,0,1,3036,1987)">
            <text x="-143.117px" y="0px" style="font-family:'SFProDisplay-Regular', 'SF Pro Display';font-size:16px;">T<tspan x="-135.695px " y="0px ">y</tspan>peset at 100 points</text>
        </g>
        <g transform="matrix(1,0,0,1,263,726)">
            <text x="0px" y="0px" style="font-family:'SFProDisplay-Regular', 'SF Pro Display';font-size:16px;">Small</text>
        </g>
        <g transform="matrix(1,0,0,1,263,1156)">
            <text x="0px" y="0px" style="font-family:'SFProDisplay-Regular', 'SF Pro Display';font-size:16px;">Medium</text>
        </g>
        <g transform="matrix(1,0,0,1,263,1586)">
            <text x="0px" y="0px" style="font-family:'SFProDisplay-Regular', 'SF Pro Display';font-size:16px;">Lar<tspan x="20.961px " y="0px ">g</tspan>e</text>
        </g>
    </g>
    <g id="Guides">
        <g id="H-reference" transform="matrix(1,0,0,1,339,696)">
            <path d="M0.977,0L3.662,0L12.988,-24.463L45.752,-24.463L55.127,0L57.764,0L30.615,-70.459L28.125,-70.459L0.977,0ZM29.346,-67.139L29.443,-67.139L44.873,-26.709L13.867,-26.709L29.346,-67.139Z" style="fill:rgb(39,170,225);fill-rule:nonzero;"/>
        </g>
        <path id="Baseline-S" d="M263,696L3036,696" style="fill:none;fill-rule:nonzero;stroke:rgb(39,170,225);stroke-width:0.5px;"/>
        <path id="Capline-S" d="M263,625.541L3036,625.541" style="fill:none;fill-rule:nonzero;stroke:rgb(39,170,225);stroke-width:0.5px;"/>
        <g id="H-reference1" serif:id="H-reference" transform="matrix(1,0,0,1,339,1126)">
            <path d="M0.977,0L3.662,0L12.988,-24.463L45.752,-24.463L55.127,0L57.764,0L30.615,-70.459L28.125,-70.459L0.977,0ZM29.346,-67.139L29.443,-67.139L44.873,-26.709L13.867,-26.709L29.346,-67.139Z" style="fill:rgb(39,170,225);fill-rule:nonzero;"/>
        </g>
        <path id="Baseline-M" d="M263,1126L3036,1126" style="fill:none;fill-rule:nonzero;stroke:rgb(39,170,225);stroke-width:0.5px;"/>
        <path id="Capline-M" d="M263,1055.54L3036,1055.54" style="fill:none;fill-rule:nonzero;stroke:rgb(39,170,225);stroke-width:0.5px;"/>
        <g id="H-reference2" serif:id="H-reference" transform="matrix(1,0,0,1,339,1556)">
            <path d="M0.977,0L3.662,0L12.988,-24.463L45.752,-24.463L55.127,0L57.764,0L30.615,-70.459L28.125,-70.459L0.977,0ZM29.346,-67.139L29.443,-67.139L44.873,-26.709L13.867,-26.709L29.346,-67.139Z" style="fill:rgb(39,170,225);fill-rule:nonzero;"/>
        </g>
        <path id="Baseline-L" d="M263,1556L3036,1556" style="fill:none;fill-rule:nonzero;stroke:rgb(39,170,225);stroke-width:0.5px;"/>
        <path id="Capline-L" d="M263,1485.54L3036,1485.54" style="fill:none;fill-rule:nonzero;stroke:rgb(39,170,225);stroke-width:0.5px;"/>
        <path id="left-margin" d="M1387.95,1030.79L1387.95,1150.12" style="fill:none;fill-rule:nonzero;stroke:rgb(0,174,239);stroke-width:0.5px;"/>
        <path id="right-margin" d="M1511.73,1030.79L1511.73,1150.12" style="fill:none;fill-rule:nonzero;stroke:rgb(0,174,239);stroke-width:0.5px;"/>
    </g>
    <g id="Symbols">
        <g id="Black-L" transform="matrix(1,0,0,1,2847.49,1556)">
            <path d="M67.676,-69.58C68.945,-69.58 69.873,-70.508 70.068,-71.777C72.119,-83.496 71.875,-83.447 83.936,-85.693C85.449,-85.986 86.279,-86.816 86.279,-88.086C86.279,-89.404 85.449,-90.234 84.082,-90.479C71.68,-93.066 71.533,-92.92 70.068,-104.346C69.922,-105.664 68.945,-106.592 67.676,-106.592C66.357,-106.592 65.478,-105.664 65.283,-104.395C63.184,-92.529 63.574,-92.139 51.318,-90.479C50,-90.332 49.072,-89.404 49.072,-88.086C49.072,-86.816 49.902,-85.986 51.221,-85.693C63.574,-83.106 63.623,-83.252 65.283,-71.729C65.43,-70.508 66.357,-69.58 67.676,-69.58ZM127.539,-46.436C128.955,-46.436 129.98,-47.461 130.225,-48.877C132.764,-62.012 132.178,-62.305 145.801,-64.6C147.461,-64.844 148.486,-65.772 148.486,-67.236C148.486,-68.701 147.461,-69.629 146.045,-69.922C132.031,-72.607 131.689,-72.656 130.225,-85.547C130.078,-87.012 128.955,-88.037 127.539,-88.037C126.074,-88.037 125.049,-87.012 124.854,-85.596C122.754,-72.168 122.998,-71.533 109.082,-69.922C107.666,-69.727 106.543,-68.701 106.592,-67.236C106.641,-65.772 107.568,-64.844 109.033,-64.6C122.998,-62.012 123.291,-61.865 124.854,-48.828C125,-47.461 126.074,-46.436 127.539,-46.436ZM32.129,-24.902C33.594,-24.902 34.668,-25.977 34.815,-27.393C36.377,-40.625 36.816,-40.82 50.44,-43.066C52.1,-43.359 53.076,-44.287 53.076,-45.752C53.076,-47.217 52.1,-48.145 50.684,-48.438C36.67,-51.123 36.719,-51.221 34.815,-64.063C34.619,-65.527 33.594,-66.602 32.129,-66.602C30.713,-66.602 29.639,-65.527 29.492,-64.111C27.93,-50.635 27.588,-50.537 13.672,-48.438C12.256,-48.193 11.23,-47.217 11.23,-45.752C11.23,-44.287 12.207,-43.359 13.623,-43.066C27.588,-40.43 27.344,-40.234 29.492,-27.295C29.688,-25.977 30.713,-24.902 32.129,-24.902ZM140.625,29.248C145.02,33.74 152.734,33.74 157.227,29.248C161.719,24.658 161.719,17.188 157.227,12.598L97.559,-47.705C93.115,-52.197 85.4,-52.197 80.908,-47.705C76.416,-43.115 76.465,-35.645 80.908,-31.055L140.625,29.248ZM63.818,33.154C65.723,33.154 67.139,31.836 67.383,29.834C69.287,12.354 70.068,11.475 88.086,9.033C90.332,8.691 91.65,7.373 91.65,5.469C91.65,3.613 90.332,2.295 88.525,1.904C69.971,-1.709 69.19,-1.563 67.383,-18.897C67.139,-20.898 65.723,-22.217 63.818,-22.217C61.914,-22.217 60.498,-20.898 60.254,-18.945C58.252,-1.025 57.568,-0.293 39.16,1.904C37.353,2.148 35.986,3.613 35.986,5.469C35.986,7.324 37.305,8.643 39.111,9.033C57.715,12.647 58.252,12.647 60.254,29.981C60.498,31.836 61.963,33.154 63.818,33.154ZM145.752,21.875L120.117,-3.809L125.195,-9.033L151.025,16.748C152.783,18.555 153.516,20.898 151.709,22.705C150,24.316 147.607,23.731 145.752,21.875Z" style="fill-rule:nonzero;"/>
        </g>
        <g id="Heavy-L" transform="matrix(1,0,0,1,2552.34,1556)">
            <path d="M66.455,-69.336C67.578,-69.336 68.311,-70.117 68.506,-71.24C70.606,-82.519 70.41,-82.617 82.08,-84.815C83.35,-85.059 84.131,-85.791 84.131,-86.914C84.131,-88.037 83.35,-88.769 82.178,-89.014C70.264,-91.455 70.166,-91.504 68.506,-102.539C68.359,-103.711 67.578,-104.492 66.455,-104.492C65.283,-104.492 64.551,-103.711 64.356,-102.588C62.256,-91.162 62.549,-90.772 50.732,-89.014C49.609,-88.867 48.731,-88.037 48.731,-86.914C48.731,-85.791 49.512,-85.059 50.684,-84.815C62.549,-82.324 62.598,-82.324 64.356,-71.191C64.502,-70.117 65.283,-69.336 66.455,-69.336ZM124.268,-46.484C125.537,-46.484 126.416,-47.412 126.66,-48.682C129.102,-61.426 128.662,-61.816 141.992,-64.111C143.457,-64.356 144.336,-65.137 144.336,-66.455C144.336,-67.725 143.457,-68.555 142.188,-68.799C128.564,-71.387 128.271,-71.631 126.66,-84.18C126.514,-85.498 125.537,-86.377 124.268,-86.377C122.949,-86.377 122.119,-85.498 121.924,-84.229C119.775,-71.289 119.922,-70.557 106.445,-68.799C105.176,-68.652 104.15,-67.725 104.199,-66.455C104.248,-65.137 105.078,-64.356 106.396,-64.111C119.922,-61.621 120.166,-61.279 121.924,-48.633C122.07,-47.412 122.949,-46.484 124.268,-46.484ZM31.299,-25.83C32.568,-25.83 33.496,-26.758 33.643,-28.027C35.352,-40.869 35.693,-41.211 49.023,-43.457C50.488,-43.701 51.318,-44.531 51.318,-45.801C51.318,-47.119 50.488,-47.949 49.17,-48.193C35.596,-50.732 35.645,-51.025 33.643,-63.574C33.447,-64.893 32.568,-65.82 31.299,-65.82C29.981,-65.82 29.102,-64.893 28.906,-63.623C27.197,-50.586 26.904,-50.293 13.428,-48.193C12.158,-47.998 11.23,-47.119 11.23,-45.801C11.23,-44.531 12.109,-43.701 13.379,-43.457C26.904,-40.918 26.758,-40.576 28.906,-27.93C29.15,-26.758 29.981,-25.83 31.299,-25.83ZM139.746,28.516C143.701,32.52 150.488,32.52 154.492,28.516C158.496,24.414 158.447,17.822 154.492,13.721L94.678,-46.582C90.723,-50.586 83.887,-50.586 79.932,-46.582C75.928,-42.481 75.977,-35.889 79.932,-31.836L139.746,28.516ZM62.549,31.397C64.209,31.397 65.478,30.225 65.674,28.418C67.676,11.084 68.408,10.352 86.231,7.813C88.184,7.52 89.356,6.348 89.356,4.639C89.356,3.027 88.184,1.807 86.572,1.514C68.359,-2.051 67.627,-1.904 65.674,-19.092C65.478,-20.898 64.209,-22.07 62.549,-22.07C60.84,-22.07 59.57,-20.898 59.375,-19.19C57.324,-1.465 56.69,-0.83 38.525,1.514C36.914,1.709 35.693,3.027 35.693,4.639C35.693,6.299 36.865,7.471 38.477,7.813C56.787,11.377 57.275,11.328 59.375,28.565C59.57,30.225 60.889,31.397 62.549,31.397ZM144.141,21.973L115.283,-6.934L119.824,-11.621L148.828,17.383C150.439,18.994 151.074,21.045 149.463,22.705C147.9,24.17 145.85,23.633 144.141,21.973Z" style="fill-rule:nonzero;"/>
        </g>
        <g id="Bold-L" transform="matrix(1,0,0,1,2257.36,1556)">
            <path d="M65.039,-68.994C66.016,-68.994 66.65,-69.678 66.797,-70.606C68.897,-81.397 68.75,-81.641 79.981,-83.838C81.055,-84.033 81.69,-84.619 81.69,-85.596C81.69,-86.572 81.055,-87.158 80.078,-87.354C68.652,-89.697 68.604,-89.893 66.797,-100.537C66.65,-101.514 66.016,-102.148 65.039,-102.148C64.111,-102.148 63.477,-101.514 63.281,-100.537C61.182,-89.697 61.426,-89.209 50.049,-87.354C49.121,-87.207 48.438,-86.572 48.438,-85.596C48.438,-84.619 49.072,-84.033 50.049,-83.838C61.426,-81.494 61.426,-81.25 63.281,-70.606C63.428,-69.678 64.111,-68.994 65.039,-68.994ZM120.605,-46.582C121.68,-46.582 122.412,-47.315 122.607,-48.389C125,-60.742 124.756,-61.328 137.695,-63.574C138.916,-63.77 139.697,-64.453 139.697,-65.576C139.697,-66.699 138.916,-67.383 137.842,-67.578C124.707,-70.019 124.463,-70.508 122.607,-82.666C122.461,-83.789 121.68,-84.57 120.605,-84.57C119.531,-84.57 118.799,-83.789 118.604,-82.715C116.455,-70.264 116.504,-69.482 103.418,-67.578C102.344,-67.432 101.514,-66.699 101.562,-65.576C101.562,-64.453 102.295,-63.77 103.418,-63.574C116.504,-61.182 116.699,-60.645 118.604,-48.389C118.75,-47.315 119.531,-46.582 120.605,-46.582ZM30.322,-26.904C31.397,-26.904 32.129,-27.686 32.275,-28.76C34.18,-41.113 34.473,-41.65 47.412,-43.897C48.633,-44.092 49.365,-44.775 49.365,-45.898C49.365,-47.022 48.633,-47.705 47.51,-47.9C34.424,-50.342 34.375,-50.879 32.275,-63.037C32.129,-64.111 31.397,-64.941 30.322,-64.941C29.199,-64.941 28.467,-64.111 28.32,-63.037C26.416,-50.586 26.172,-50.049 13.086,-47.9C12.012,-47.754 11.279,-47.022 11.279,-45.898C11.279,-44.775 11.963,-44.092 13.086,-43.897C26.172,-41.504 26.123,-40.918 28.32,-28.711C28.467,-27.686 29.199,-26.904 30.322,-26.904ZM138.77,27.686C142.188,31.201 148.047,31.152 151.416,27.686C154.834,24.121 154.834,18.506 151.416,14.99L91.504,-45.313C88.086,-48.779 82.227,-48.779 78.857,-45.313C75.391,-41.797 75.44,-36.133 78.857,-32.666L138.77,27.686ZM61.084,29.346C62.549,29.346 63.623,28.369 63.77,26.807C65.869,9.668 66.504,9.082 84.131,6.396C85.791,6.201 86.816,5.225 86.816,3.711C86.816,2.295 85.791,1.318 84.424,1.025C66.553,-2.441 65.82,-2.295 63.77,-19.385C63.623,-20.898 62.549,-21.924 61.084,-21.924C59.668,-21.924 58.594,-20.898 58.398,-19.434C56.25,-1.953 55.664,-1.416 37.793,1.025C36.426,1.221 35.352,2.295 35.352,3.711C35.352,5.176 36.377,6.152 37.744,6.396C55.762,9.912 56.201,9.863 58.398,26.953C58.594,28.369 59.668,29.346 61.084,29.346ZM142.334,22.07L109.863,-10.449L113.818,-14.502L146.387,18.115C147.803,19.531 148.291,21.24 146.924,22.656C145.557,23.926 143.799,23.535 142.334,22.07Z" style="fill-rule:nonzero;"/>
        </g>
        <g id="Semibold-L" transform="matrix(1,0,0,1,1961.85,1556)">
            <path d="M64.111,-68.799C64.941,-68.799 65.43,-69.385 65.625,-70.166C67.725,-80.615 67.627,-81.006 78.565,-83.154C79.443,-83.301 80.029,-83.838 80.029,-84.668C80.029,-85.498 79.443,-86.035 78.613,-86.182C67.578,-88.428 67.529,-88.818 65.625,-99.121C65.478,-100 64.941,-100.537 64.111,-100.537C63.232,-100.537 62.744,-100 62.598,-99.17C60.449,-88.672 60.645,-88.135 49.609,-86.182C48.779,-86.084 48.193,-85.498 48.193,-84.668C48.193,-83.838 48.731,-83.301 49.609,-83.154C60.645,-80.908 60.596,-80.518 62.598,-70.166C62.744,-69.385 63.232,-68.799 64.111,-68.799ZM118.066,-46.631C119.043,-46.631 119.678,-47.315 119.873,-48.242C122.168,-60.254 122.07,-60.986 134.766,-63.184C135.791,-63.379 136.475,-63.965 136.475,-64.941C136.475,-65.918 135.791,-66.553 134.814,-66.748C122.021,-69.043 121.826,-69.727 119.873,-81.641C119.727,-82.617 119.043,-83.301 118.066,-83.301C117.139,-83.301 116.504,-82.617 116.357,-81.69C114.16,-69.58 114.16,-68.75 101.367,-66.748C100.391,-66.602 99.707,-65.918 99.707,-64.941C99.756,-63.965 100.391,-63.379 101.367,-63.184C114.16,-60.889 114.307,-60.205 116.357,-48.242C116.455,-47.315 117.139,-46.631 118.066,-46.631ZM29.639,-27.588C30.615,-27.588 31.25,-28.272 31.397,-29.248C33.398,-41.309 33.643,-41.992 46.289,-44.19C47.363,-44.336 47.998,-44.971 47.998,-45.947C47.998,-46.924 47.363,-47.559 46.387,-47.705C33.594,-50.049 33.545,-50.732 31.397,-62.647C31.201,-63.623 30.615,-64.307 29.639,-64.307C28.662,-64.307 28.027,-63.623 27.881,-62.647C25.83,-50.537 25.684,-49.853 12.891,-47.705C11.914,-47.559 11.279,-46.924 11.279,-45.947C11.279,-44.971 11.914,-44.336 12.891,-44.19C25.684,-41.846 25.684,-41.162 27.881,-29.199C28.027,-28.272 28.662,-27.588 29.639,-27.588ZM138.086,27.1C141.162,30.225 146.338,30.176 149.316,27.1C152.344,23.926 152.344,18.994 149.316,15.869L89.307,-44.434C86.231,-47.559 81.055,-47.51 78.076,-44.434C75,-41.309 75.049,-36.328 78.076,-33.252L138.086,27.1ZM60.107,27.979C61.377,27.979 62.305,27.1 62.5,25.732C64.6,8.691 65.234,8.252 82.666,5.469C84.18,5.273 85.059,4.443 85.059,3.076C85.059,1.807 84.18,0.928 82.959,0.684C65.283,-2.686 64.6,-2.539 62.5,-19.531C62.305,-20.898 61.377,-21.826 60.107,-21.826C58.838,-21.826 57.861,-20.898 57.715,-19.58C55.518,-2.246 54.981,-1.807 37.256,0.684C36.035,0.879 35.156,1.807 35.156,3.076C35.156,4.395 36.035,5.225 37.256,5.469C55.029,8.936 55.469,8.838 57.715,25.83C57.861,27.1 58.838,27.979 60.107,27.979ZM141.113,22.119L106.152,-12.891L109.668,-16.504L144.727,18.604C145.996,19.873 146.387,21.338 145.166,22.656C143.945,23.779 142.432,23.438 141.113,22.119Z" style="fill-rule:nonzero;"/>
        </g>
        <g id="Medium-L" transform="matrix(1,0,0,1,1666.04,1556)">
            <path d="M63.379,-68.652C64.111,-68.652 64.551,-69.141 64.697,-69.873C66.846,-80.029 66.797,-80.518 77.441,-82.617C78.272,-82.764 78.76,-83.203 78.76,-83.984C78.76,-84.717 78.272,-85.156 77.49,-85.352C66.748,-87.5 66.748,-87.988 64.697,-98.096C64.551,-98.828 64.111,-99.316 63.379,-99.316C62.647,-99.316 62.207,-98.828 62.06,-98.096C59.912,-87.891 60.01,-87.354 49.268,-85.352C48.535,-85.205 47.998,-84.717 47.998,-83.984C47.998,-83.252 48.486,-82.764 49.268,-82.617C60.01,-80.469 60.01,-79.981 62.06,-69.873C62.207,-69.141 62.647,-68.652 63.379,-68.652ZM116.162,-46.68C117.041,-46.68 117.578,-47.266 117.773,-48.096C120.02,-59.912 120.02,-60.693 132.52,-62.891C133.447,-63.037 134.033,-63.623 134.033,-64.502C134.033,-65.381 133.447,-65.918 132.568,-66.065C120.02,-68.359 119.873,-69.141 117.773,-80.859C117.627,-81.738 117.041,-82.324 116.162,-82.324C115.332,-82.324 114.746,-81.738 114.6,-80.859C112.402,-69.043 112.354,-68.164 99.805,-66.065C98.926,-65.967 98.291,-65.381 98.34,-64.502C98.34,-63.623 98.926,-63.037 99.805,-62.891C112.354,-60.645 112.5,-59.863 114.6,-48.096C114.746,-47.266 115.332,-46.68 116.162,-46.68ZM29.102,-28.174C29.981,-28.174 30.566,-28.76 30.664,-29.59C32.813,-41.406 32.959,-42.188 45.459,-44.385C46.387,-44.58 46.973,-45.117 46.973,-45.996C46.973,-46.875 46.387,-47.412 45.508,-47.607C32.959,-49.853 32.861,-50.635 30.664,-62.353C30.518,-63.232 29.981,-63.818 29.102,-63.818C28.272,-63.818 27.686,-63.232 27.539,-62.353C25.44,-50.537 25.293,-49.756 12.744,-47.607C11.865,-47.461 11.279,-46.875 11.279,-45.996C11.279,-45.117 11.865,-44.58 12.744,-44.385C25.293,-42.139 25.342,-41.357 27.539,-29.59C27.686,-28.76 28.272,-28.174 29.102,-28.174ZM137.598,26.66C140.381,29.541 145.02,29.492 147.705,26.66C150.439,23.828 150.439,19.385 147.705,16.553L87.598,-43.799C84.863,-46.631 80.176,-46.582 77.49,-43.799C74.756,-40.918 74.805,-36.475 77.49,-33.691L137.598,26.66ZM59.375,26.953C60.498,26.953 61.377,26.123 61.523,24.902C63.672,7.959 64.258,7.568 81.592,4.736C82.91,4.541 83.74,3.857 83.74,2.588C83.74,1.416 82.91,0.684 81.836,0.439C64.356,-2.93 63.672,-2.734 61.523,-19.678C61.377,-20.898 60.498,-21.729 59.375,-21.729C58.203,-21.729 57.373,-20.898 57.227,-19.727C54.932,-2.539 54.443,-2.148 36.914,0.439C35.791,0.586 34.961,1.416 34.961,2.588C34.961,3.76 35.791,4.541 36.865,4.736C54.492,8.154 54.883,8.057 57.227,25C57.373,26.123 58.203,26.953 59.375,26.953ZM140.137,22.168L103.271,-14.746L106.543,-17.969L143.408,18.945C144.629,20.117 144.971,21.436 143.848,22.656C142.725,23.682 141.406,23.389 140.137,22.168Z" style="fill-rule:nonzero;"/>
        </g>
        <g id="Regular-L" transform="matrix(1,0,0,1,1370.52,1556)">
            <path d="M62.451,-68.408C63.086,-68.408 63.379,-68.848 63.525,-69.434C65.674,-79.248 65.674,-79.883 76.025,-81.934C76.66,-82.08 77.1,-82.422 77.1,-83.057C77.1,-83.691 76.66,-84.082 76.025,-84.18C65.674,-86.279 65.674,-86.865 63.525,-96.68C63.379,-97.315 63.086,-97.705 62.451,-97.705C61.816,-97.705 61.475,-97.315 61.328,-96.68C59.18,-86.865 59.228,-86.279 48.828,-84.18C48.193,-84.082 47.803,-83.691 47.803,-83.057C47.803,-82.471 48.193,-82.08 48.828,-81.934C59.228,-79.883 59.18,-79.248 61.328,-69.434C61.475,-68.848 61.816,-68.408 62.451,-68.408ZM113.672,-46.728C114.404,-46.728 114.893,-47.217 114.99,-47.949C117.236,-59.424 117.383,-60.352 129.59,-62.549C130.371,-62.647 130.859,-63.135 130.859,-63.867C130.859,-64.648 130.371,-65.088 129.59,-65.234C117.383,-67.432 117.236,-68.359 114.99,-79.834C114.893,-80.566 114.404,-81.055 113.672,-81.055C112.939,-81.055 112.5,-80.566 112.354,-79.834C110.107,-68.359 110.01,-67.432 97.754,-65.234C97.022,-65.088 96.533,-64.648 96.533,-63.867C96.533,-63.135 97.022,-62.647 97.754,-62.549C110.01,-60.352 110.107,-59.424 112.354,-47.949C112.5,-47.217 112.939,-46.728 113.672,-46.728ZM28.467,-28.857C29.199,-28.857 29.639,-29.395 29.785,-30.078C32.031,-41.602 32.129,-42.529 44.385,-44.678C45.117,-44.824 45.606,-45.264 45.606,-46.045C45.606,-46.826 45.117,-47.266 44.385,-47.412C32.129,-49.561 32.031,-50.488 29.785,-62.012C29.639,-62.695 29.199,-63.232 28.467,-63.232C27.734,-63.232 27.246,-62.695 27.148,-62.012C24.902,-50.488 24.805,-49.561 12.549,-47.412C11.768,-47.266 11.279,-46.826 11.279,-46.045C11.279,-45.264 11.768,-44.824 12.549,-44.678C24.805,-42.529 24.902,-41.602 27.148,-30.078C27.246,-29.395 27.734,-28.857 28.467,-28.857ZM136.914,26.123C139.355,28.613 143.359,28.565 145.605,26.123C147.949,23.633 147.998,19.873 145.605,17.432L85.449,-42.92C83.057,-45.361 79.004,-45.361 76.758,-42.92C74.365,-40.478 74.414,-36.621 76.758,-34.228L136.914,26.123ZM58.35,25.586C59.375,25.586 60.059,24.854 60.205,23.779C62.451,6.982 62.988,6.738 80.127,3.809C81.299,3.662 81.982,3.076 81.982,2.002C81.982,0.977 81.299,0.293 80.322,0.146C63.086,-3.174 62.451,-3.027 60.205,-19.824C60.059,-20.898 59.375,-21.582 58.35,-21.582C57.373,-21.582 56.641,-20.898 56.543,-19.873C54.199,-2.832 53.809,-2.539 36.377,0.146C35.449,0.244 34.717,0.977 34.717,2.002C34.717,3.027 35.449,3.662 36.377,3.809C53.809,7.178 54.15,7.08 56.543,23.877C56.641,24.854 57.373,25.586 58.35,25.586ZM138.916,22.217L99.609,-17.139L102.441,-19.971L141.748,19.434C142.822,20.508 143.066,21.582 142.09,22.656C141.113,23.535 140.039,23.34 138.916,22.217Z" style="fill-rule:nonzero;"/>
        </g>
        <g id="Light-L" transform="matrix(1,0,0,1,1074.52,1556)">
            <path d="M60.693,-68.408C61.182,-68.408 61.426,-68.701 61.523,-69.19C63.721,-78.711 63.818,-79.59 73.975,-81.641C74.512,-81.738 74.854,-82.031 74.854,-82.519C74.854,-83.008 74.512,-83.301 73.975,-83.398C63.818,-85.449 63.721,-86.328 61.523,-95.85C61.426,-96.338 61.182,-96.631 60.693,-96.631C60.205,-96.631 59.961,-96.338 59.863,-95.85C57.666,-86.328 57.617,-85.449 47.461,-83.398C46.875,-83.301 46.582,-83.008 46.582,-82.519C46.582,-82.08 46.875,-81.738 47.461,-81.641C57.617,-79.59 57.666,-78.711 59.863,-69.19C59.961,-68.701 60.205,-68.408 60.693,-68.408ZM110.84,-47.412C111.426,-47.412 111.768,-47.754 111.865,-48.34C114.209,-59.18 114.404,-60.352 126.074,-62.549C126.66,-62.647 127.051,-62.988 127.051,-63.574C127.051,-64.209 126.66,-64.551 126.074,-64.648C114.404,-66.797 114.209,-67.969 111.865,-78.857C111.768,-79.394 111.426,-79.785 110.84,-79.785C110.303,-79.785 109.961,-79.394 109.863,-78.857C107.52,-67.969 107.373,-66.797 95.654,-64.648C95.019,-64.551 94.678,-64.209 94.678,-63.574C94.678,-62.988 95.019,-62.647 95.654,-62.549C107.373,-60.352 107.52,-59.18 109.863,-48.34C109.961,-47.754 110.303,-47.412 110.84,-47.412ZM27.441,-29.834C28.027,-29.834 28.369,-30.225 28.467,-30.811C30.811,-41.65 31.006,-42.822 42.676,-44.971C43.262,-45.117 43.652,-45.459 43.652,-46.045C43.652,-46.631 43.262,-46.973 42.676,-47.119C31.006,-49.268 30.811,-50.44 28.467,-61.279C28.369,-61.865 28.027,-62.256 27.441,-62.256C26.904,-62.256 26.563,-61.865 26.465,-61.279C24.121,-50.44 23.975,-49.268 12.256,-47.119C11.621,-46.973 11.279,-46.631 11.279,-46.045C11.279,-45.459 11.621,-45.117 12.256,-44.971C23.975,-42.822 24.121,-41.65 26.465,-30.811C26.563,-30.225 26.904,-29.834 27.441,-29.834ZM137.109,26.66C139.209,28.809 142.48,28.711 144.434,26.66C146.387,24.561 146.484,21.484 144.434,19.336L83.887,-41.406C81.836,-43.506 78.516,-43.457 76.563,-41.406C74.512,-39.307 74.561,-36.133 76.563,-34.131L137.109,26.66ZM57.373,23.975C58.154,23.975 58.74,23.438 58.838,22.559C61.279,5.713 61.523,5.811 78.711,2.686C79.59,2.539 80.127,2.1 80.127,1.221C80.127,0.391 79.59,-0.098 78.809,-0.244C61.572,-3.613 61.279,-3.271 58.838,-20.117C58.74,-20.996 58.154,-21.533 57.373,-21.533C56.592,-21.533 56.055,-20.996 55.908,-20.166C53.418,-3.174 53.272,-3.174 35.938,-0.244C35.156,-0.098 34.619,0.391 34.619,1.221C34.619,2.051 35.156,2.539 35.938,2.686C53.272,6.055 53.369,5.811 55.908,22.656C56.055,23.438 56.592,23.975 57.373,23.975ZM138.818,23.389L98.828,-16.553L101.367,-19.043L141.26,20.947C142.236,21.875 142.432,22.803 141.553,23.731C140.723,24.561 139.795,24.365 138.818,23.389Z" style="fill-rule:nonzero;"/>
        </g>
        <g id="Thin-L" transform="matrix(1,0,0,1,778.786,1556)">
            <path d="M58.398,-68.359C58.691,-68.359 58.838,-68.506 58.887,-68.897C61.133,-77.93 61.426,-79.248 71.24,-81.201C71.68,-81.299 71.875,-81.494 71.875,-81.787C71.875,-82.08 71.68,-82.275 71.24,-82.373C61.426,-84.326 61.133,-85.644 58.887,-94.678C58.838,-95.019 58.691,-95.215 58.398,-95.215C58.106,-95.215 58.008,-95.019 57.91,-94.678C55.664,-85.644 55.469,-84.326 45.606,-82.373C45.166,-82.275 44.971,-82.08 44.971,-81.787C44.971,-81.543 45.166,-81.299 45.606,-81.201C55.469,-79.248 55.664,-77.93 57.91,-68.897C58.008,-68.506 58.106,-68.359 58.398,-68.359ZM107.129,-48.291C107.422,-48.291 107.617,-48.486 107.715,-48.877C110.156,-58.887 110.449,-60.352 121.387,-62.549C121.826,-62.598 122.021,-62.842 122.021,-63.184C122.021,-63.574 121.826,-63.77 121.387,-63.867C110.449,-66.016 110.156,-67.481 107.715,-77.539C107.617,-77.881 107.422,-78.076 107.129,-78.076C106.836,-78.076 106.641,-77.881 106.543,-77.539C104.053,-67.481 103.857,-66.016 92.871,-63.867C92.432,-63.77 92.236,-63.574 92.236,-63.184C92.236,-62.842 92.432,-62.598 92.871,-62.549C103.857,-60.352 104.053,-58.887 106.543,-48.877C106.641,-48.486 106.836,-48.291 107.129,-48.291ZM26.123,-31.152C26.465,-31.152 26.66,-31.348 26.758,-31.738C29.199,-41.748 29.492,-43.213 40.381,-45.361C40.82,-45.459 41.065,-45.654 41.065,-46.045C41.065,-46.436 40.82,-46.631 40.381,-46.728C29.492,-48.877 29.199,-50.342 26.758,-60.352C26.66,-60.742 26.465,-60.938 26.123,-60.938C25.83,-60.938 25.635,-60.742 25.537,-60.352C23.096,-50.342 22.852,-48.877 11.914,-46.728C11.475,-46.631 11.23,-46.436 11.23,-46.045C11.23,-45.654 11.475,-45.459 11.914,-45.361C22.852,-43.213 23.096,-41.748 25.537,-31.738C25.635,-31.348 25.83,-31.152 26.123,-31.152ZM137.402,27.344C139.014,29.053 141.357,28.906 142.871,27.344C144.385,25.781 144.482,23.584 142.871,21.875L81.787,-39.404C80.225,-41.016 77.832,-40.918 76.318,-39.404C74.756,-37.842 74.756,-35.498 76.318,-33.936L137.402,27.344ZM56.055,21.826C56.543,21.826 56.934,21.533 56.982,20.947C59.717,4.102 59.522,4.541 76.807,1.172C77.295,1.074 77.686,0.781 77.686,0.244C77.686,-0.342 77.295,-0.635 76.807,-0.732C59.522,-4.15 59.717,-3.662 56.982,-20.508C56.934,-21.094 56.543,-21.387 56.055,-21.387C55.566,-21.387 55.225,-21.094 55.127,-20.557C52.393,-3.613 52.588,-4.053 35.303,-0.732C34.815,-0.635 34.424,-0.342 34.424,0.244C34.424,0.781 34.815,1.074 35.303,1.172C52.588,4.59 52.344,4.102 55.127,20.996C55.225,21.533 55.566,21.826 56.055,21.826ZM138.623,24.902L97.852,-15.82L99.902,-17.871L140.625,22.9C141.455,23.731 141.602,24.463 140.869,25.195C140.186,25.879 139.502,25.732 138.623,24.902Z" style="fill-rule:nonzero;"/>
        </g>
        <g id="Ultralight-L" transform="matrix(1,0,0,1,482.563,1556)">
            <path d="M57.227,-68.311C57.422,-68.311 57.471,-68.457 57.568,-68.75C59.815,-77.539 60.156,-79.102 69.824,-81.006C70.215,-81.104 70.313,-81.201 70.313,-81.397C70.313,-81.592 70.215,-81.738 69.824,-81.836C60.156,-83.74 59.815,-85.254 57.568,-94.092C57.471,-94.385 57.422,-94.531 57.227,-94.531C57.031,-94.531 56.982,-94.385 56.934,-94.092C54.639,-85.254 54.395,-83.74 44.629,-81.836C44.287,-81.738 44.141,-81.592 44.141,-81.397C44.141,-81.299 44.287,-81.104 44.629,-81.006C54.395,-79.102 54.639,-77.539 56.934,-68.75C56.982,-68.457 57.031,-68.311 57.227,-68.311ZM105.225,-48.779C105.371,-48.779 105.518,-48.877 105.566,-49.17C108.105,-58.74 108.447,-60.352 118.945,-62.549C119.336,-62.598 119.434,-62.744 119.434,-62.988C119.434,-63.281 119.336,-63.379 118.945,-63.477C108.447,-65.625 108.105,-67.236 105.566,-76.856C105.518,-77.1 105.371,-77.246 105.225,-77.246C105.029,-77.246 104.883,-77.1 104.834,-76.856C102.295,-67.236 102.051,-65.625 91.455,-63.477C91.113,-63.379 90.967,-63.281 90.967,-62.988C90.967,-62.744 91.113,-62.598 91.455,-62.549C102.051,-60.352 102.295,-58.74 104.834,-49.17C104.883,-48.877 105.029,-48.779 105.225,-48.779ZM25.488,-31.787C25.635,-31.787 25.781,-31.934 25.83,-32.227C28.369,-41.797 28.711,-43.408 39.209,-45.557C39.6,-45.654 39.697,-45.801 39.697,-46.045C39.697,-46.289 39.6,-46.436 39.209,-46.533C28.711,-48.682 28.369,-50.293 25.83,-59.912C25.781,-60.156 25.635,-60.303 25.488,-60.303C25.293,-60.303 25.147,-60.156 25.098,-59.912C22.559,-50.293 22.315,-48.682 11.719,-46.533C11.328,-46.436 11.23,-46.289 11.23,-46.045C11.23,-45.801 11.328,-45.654 11.719,-45.557C22.315,-43.408 22.559,-41.797 25.098,-32.227C25.147,-31.934 25.293,-31.787 25.488,-31.787ZM137.549,27.734C138.965,29.199 140.82,29.053 142.041,27.734C143.311,26.416 143.506,24.707 142.041,23.193L80.762,-38.379C79.394,-39.697 77.441,-39.648 76.221,-38.379C74.854,-37.061 74.854,-35.205 76.221,-33.838L137.549,27.734ZM55.371,20.752C55.713,20.752 56.006,20.557 56.055,20.166C58.935,3.271 58.496,3.906 75.83,0.391C76.123,0.293 76.416,0.098 76.416,-0.293C76.416,-0.732 76.123,-0.879 75.781,-0.977C58.496,-4.443 58.935,-3.857 56.055,-20.752C56.006,-21.143 55.713,-21.338 55.371,-21.338C55.078,-21.338 54.785,-21.143 54.688,-20.703C51.856,-3.857 52.246,-4.541 34.961,-0.977C34.619,-0.879 34.375,-0.732 34.375,-0.293C34.375,0.146 34.619,0.293 34.961,0.391C52.246,3.857 51.856,3.223 54.688,20.117C54.785,20.557 55.078,20.752 55.371,20.752ZM138.525,25.684L97.315,-15.479L99.121,-17.285L140.283,23.926C141.064,24.707 141.211,25.293 140.527,25.977C139.893,26.563 139.307,26.416 138.525,25.684Z" style="fill-rule:nonzero;"/>
        </g>
        <g id="Black-M" transform="matrix(1,0,0,1,2865.07,1126)">
            <path d="M53.223,-62.207C54.395,-62.207 55.176,-63.037 55.371,-64.16C56.934,-73.682 56.738,-73.633 66.504,-75.342C67.92,-75.586 68.652,-76.367 68.652,-77.49C68.652,-78.613 67.92,-79.394 66.699,-79.639C56.543,-81.787 56.299,-81.592 55.371,-90.772C55.273,-91.943 54.395,-92.773 53.223,-92.773C52.1,-92.773 51.27,-91.943 51.074,-90.82C49.463,-81.152 49.853,-80.762 39.844,-79.639C38.721,-79.492 37.842,-78.613 37.842,-77.49C37.842,-76.367 38.574,-75.586 39.795,-75.342C49.853,-73.242 50,-73.438 51.074,-64.111C51.221,-63.037 52.1,-62.207 53.223,-62.207ZM101.758,-44.19C103.027,-44.19 103.906,-45.068 104.15,-46.338C106.25,-56.69 105.615,-56.836 116.309,-58.643C117.822,-58.887 118.75,-59.717 118.75,-60.938C118.75,-62.207 117.822,-63.037 116.602,-63.281C105.469,-65.527 105.078,-65.381 104.15,-75.488C104.053,-76.807 103.027,-77.686 101.758,-77.686C100.537,-77.686 99.658,-76.807 99.463,-75.586C97.852,-64.893 98.096,-64.404 87.109,-63.281C85.84,-63.135 84.815,-62.207 84.912,-60.938C84.961,-59.717 85.693,-58.887 87.061,-58.643C98.096,-56.494 98.389,-56.494 99.463,-46.289C99.561,-45.068 100.537,-44.19 101.758,-44.19ZM25.635,-26.465C26.856,-26.465 27.832,-27.441 27.93,-28.662C29.004,-39.16 29.443,-39.16 40.186,-40.967C41.699,-41.211 42.529,-42.041 42.529,-43.311C42.529,-44.531 41.699,-45.361 40.43,-45.606C29.297,-47.9 29.395,-47.803 27.93,-57.861C27.783,-59.18 26.856,-60.107 25.635,-60.107C24.365,-60.107 23.438,-59.18 23.291,-57.91C22.266,-47.168 21.875,-47.217 10.889,-45.606C9.619,-45.41 8.74,-44.531 8.74,-43.311C8.74,-42.041 9.57,-41.211 10.791,-40.967C21.875,-38.77 21.631,-38.721 23.291,-28.565C23.486,-27.441 24.365,-26.465 25.635,-26.465ZM110.303,16.016C114.209,19.971 120.947,19.971 124.951,16.016C128.906,11.963 128.906,5.371 124.951,1.367L78.662,-45.606C74.756,-49.561 68.018,-49.561 63.965,-45.606C60.01,-41.553 60.01,-34.961 63.965,-30.957L110.303,16.016ZM50.732,19.336C52.344,19.336 53.613,18.213 53.809,16.455C55.322,2.734 55.811,1.953 70.068,0.098C72.022,-0.146 73.144,-1.367 73.144,-2.979C73.144,-4.541 72.022,-5.762 70.459,-6.055C55.664,-8.984 55.225,-8.789 53.809,-22.412C53.613,-24.17 52.344,-25.293 50.732,-25.293C49.072,-25.293 47.852,-24.17 47.656,-22.461C46.094,-8.301 45.606,-7.813 31.055,-6.055C29.492,-5.859 28.272,-4.541 28.272,-2.979C28.272,-1.416 29.395,-0.195 30.957,0.098C45.801,3.027 46.094,2.979 47.656,16.553C47.852,18.213 49.17,19.336 50.732,19.336ZM115.088,9.521L99.268,-6.348L103.711,-10.986L119.775,4.98C121.338,6.592 122.021,8.691 120.41,10.303C118.896,11.719 116.748,11.182 115.088,9.521Z" style="fill-rule:nonzero;"/>
        </g>
        <g id="Heavy-M" transform="matrix(1,0,0,1,2569.87,1126)">
            <path d="M52.344,-61.914C53.32,-61.914 54.004,-62.647 54.199,-63.623C55.762,-72.754 55.615,-72.754 64.99,-74.463C66.162,-74.707 66.846,-75.342 66.846,-76.367C66.846,-77.344 66.162,-78.027 65.137,-78.223C55.469,-80.225 55.273,-80.176 54.199,-89.014C54.053,-90.039 53.32,-90.772 52.344,-90.772C51.318,-90.772 50.635,-90.039 50.44,-89.063C48.828,-79.834 49.121,-79.443 39.551,-78.223C38.574,-78.125 37.793,-77.344 37.793,-76.367C37.793,-75.342 38.477,-74.707 39.502,-74.463C49.121,-72.461 49.219,-72.559 50.44,-63.574C50.586,-62.647 51.318,-61.914 52.344,-61.914ZM98.926,-44.092C100.049,-44.092 100.83,-44.873 101.025,-45.996C103.027,-56.103 102.539,-56.299 113.037,-58.106C114.355,-58.301 115.137,-59.033 115.137,-60.156C115.137,-61.279 114.355,-62.012 113.232,-62.207C102.441,-64.356 102.148,-64.404 101.025,-74.268C100.928,-75.44 100.049,-76.221 98.926,-76.221C97.803,-76.221 97.022,-75.44 96.875,-74.316C95.215,-64.014 95.41,-63.477 84.717,-62.207C83.594,-62.109 82.715,-61.279 82.764,-60.156C82.813,-59.033 83.496,-58.301 84.668,-58.106C95.41,-56.055 95.654,-55.957 96.875,-45.947C96.973,-44.873 97.803,-44.092 98.926,-44.092ZM24.902,-27.246C26.025,-27.246 26.856,-28.076 26.953,-29.199C28.174,-39.404 28.516,-39.502 39.014,-41.309C40.332,-41.504 41.065,-42.236 41.065,-43.359C41.065,-44.482 40.332,-45.215 39.209,-45.41C28.418,-47.559 28.467,-47.656 26.953,-57.52C26.807,-58.643 26.025,-59.473 24.902,-59.473C23.779,-59.473 22.949,-58.643 22.852,-57.568C21.631,-47.168 21.338,-47.07 10.645,-45.41C9.521,-45.264 8.74,-44.482 8.74,-43.359C8.74,-42.236 9.473,-41.504 10.596,-41.309C21.338,-39.209 21.143,-39.063 22.852,-29.102C22.998,-28.076 23.779,-27.246 24.902,-27.246ZM109.277,15.088C112.744,18.604 118.701,18.604 122.266,15.088C125.781,11.475 125.781,5.664 122.266,2.1L75.928,-44.775C72.461,-48.291 66.504,-48.291 62.94,-44.775C59.424,-41.162 59.424,-35.352 62.94,-31.787L109.277,15.088ZM49.561,17.773C51.025,17.773 52.148,16.797 52.295,15.234C53.809,1.66 54.346,0.977 68.408,-0.928C70.117,-1.172 71.143,-2.197 71.143,-3.662C71.143,-5.078 70.117,-6.152 68.75,-6.445C54.248,-9.277 53.76,-9.131 52.295,-22.559C52.148,-24.17 51.025,-25.147 49.561,-25.147C48.096,-25.147 46.973,-24.17 46.826,-22.656C45.215,-8.691 44.727,-8.203 30.42,-6.445C29.053,-6.25 27.979,-5.078 27.979,-3.662C27.979,-2.246 29.004,-1.221 30.371,-0.928C44.873,1.904 45.215,1.855 46.826,15.332C46.973,16.797 48.145,17.773 49.561,17.773ZM113.379,9.326L94.19,-9.912L98.096,-14.063L117.48,5.322C118.896,6.689 119.482,8.545 118.018,9.961C116.699,11.279 114.844,10.791 113.379,9.326Z" style="fill-rule:nonzero;"/>
        </g>
        <g id="Bold-M" transform="matrix(1,0,0,1,2274.87,1126)">
            <path d="M51.318,-61.572C52.148,-61.572 52.734,-62.207 52.881,-63.037C54.492,-71.68 54.346,-71.777 63.281,-73.486C64.258,-73.682 64.844,-74.219 64.844,-75.049C64.844,-75.928 64.258,-76.465 63.379,-76.66C54.248,-78.516 54.15,-78.565 52.881,-87.061C52.734,-87.94 52.148,-88.525 51.318,-88.525C50.44,-88.525 49.902,-87.94 49.756,-87.109C48.096,-78.369 48.34,-78.027 39.258,-76.66C38.379,-76.514 37.793,-75.928 37.793,-75.049C37.793,-74.219 38.33,-73.682 39.209,-73.486C48.34,-71.582 48.34,-71.533 49.756,-62.988C49.853,-62.207 50.44,-61.572 51.318,-61.572ZM95.752,-43.945C96.729,-43.945 97.363,-44.629 97.559,-45.606C99.414,-55.42 99.121,-55.762 109.375,-57.52C110.498,-57.666 111.133,-58.301 111.133,-59.277C111.133,-60.254 110.498,-60.889 109.521,-61.035C99.072,-63.037 98.828,-63.232 97.559,-72.949C97.412,-73.926 96.729,-74.609 95.752,-74.609C94.775,-74.609 94.141,-73.926 93.994,-72.949C92.334,-62.988 92.432,-62.451 82.031,-61.035C81.055,-60.938 80.322,-60.254 80.371,-59.277C80.42,-58.301 81.006,-57.666 81.982,-57.52C92.432,-55.615 92.627,-55.322 93.994,-45.557C94.092,-44.629 94.775,-43.945 95.752,-43.945ZM24.121,-28.125C25.098,-28.125 25.781,-28.809 25.879,-29.785C27.246,-39.648 27.49,-39.941 37.744,-41.699C38.867,-41.846 39.502,-42.481 39.502,-43.457C39.502,-44.434 38.867,-45.02 37.891,-45.215C27.441,-47.217 27.441,-47.461 25.879,-57.129C25.732,-58.106 25.098,-58.789 24.121,-58.789C23.145,-58.789 22.461,-58.106 22.363,-57.129C20.996,-47.119 20.752,-46.875 10.352,-45.215C9.424,-45.068 8.74,-44.434 8.74,-43.457C8.74,-42.481 9.375,-41.846 10.352,-41.699C20.752,-39.746 20.654,-39.404 22.363,-29.688C22.51,-28.809 23.145,-28.125 24.121,-28.125ZM108.154,14.014C111.133,17.041 116.26,17.041 119.238,14.014C122.217,10.938 122.217,5.957 119.238,2.93L72.9,-43.848C69.922,-46.875 64.746,-46.875 61.768,-43.848C58.789,-40.772 58.789,-35.791 61.768,-32.715L108.154,14.014ZM48.242,16.064C49.512,16.064 50.488,15.185 50.635,13.818C52.148,0.439 52.734,-0.098 66.504,-2.1C68.018,-2.295 68.897,-3.174 68.897,-4.492C68.897,-5.713 68.018,-6.592 66.797,-6.836C52.734,-9.57 52.148,-9.473 50.635,-22.754C50.488,-24.121 49.512,-25 48.242,-25C46.973,-25 46.045,-24.121 45.898,-22.852C44.287,-9.131 43.799,-8.643 29.736,-6.836C28.565,-6.689 27.637,-5.713 27.637,-4.492C27.637,-3.223 28.516,-2.344 29.736,-2.1C43.897,0.635 44.238,0.635 45.898,13.965C46.045,15.185 47.022,16.064 48.242,16.064ZM111.426,9.082L88.428,-13.916L91.846,-17.432L114.941,5.664C116.162,6.836 116.65,8.398 115.43,9.619C114.258,10.742 112.695,10.352 111.426,9.082Z" style="fill-rule:nonzero;"/>
        </g>
        <g id="Semibold-M" transform="matrix(1,0,0,1,1979.33,1126)">
            <path d="M50.586,-61.377C51.367,-61.377 51.807,-61.865 51.953,-62.598C53.565,-70.947 53.467,-71.143 62.109,-72.803C62.94,-72.949 63.428,-73.438 63.428,-74.17C63.428,-74.951 62.94,-75.391 62.207,-75.537C53.369,-77.344 53.369,-77.49 51.953,-85.693C51.856,-86.475 51.367,-86.963 50.586,-86.963C49.853,-86.963 49.365,-86.475 49.219,-85.742C47.607,-77.344 47.803,-77.002 39.014,-75.537C38.281,-75.44 37.744,-74.951 37.744,-74.17C37.744,-73.438 38.232,-72.949 39.014,-72.803C47.803,-70.996 47.754,-70.85 49.219,-62.598C49.365,-61.865 49.853,-61.377 50.586,-61.377ZM93.555,-43.897C94.385,-43.897 94.971,-44.482 95.117,-45.313C96.924,-54.932 96.777,-55.371 106.885,-57.08C107.812,-57.275 108.398,-57.813 108.398,-58.691C108.398,-59.522 107.812,-60.107 106.934,-60.254C96.729,-62.109 96.582,-62.451 95.117,-72.022C95.019,-72.852 94.385,-73.438 93.555,-73.438C92.676,-73.438 92.139,-72.852 91.992,-72.022C90.332,-62.305 90.381,-61.719 80.176,-60.254C79.346,-60.107 78.711,-59.522 78.711,-58.691C78.76,-57.813 79.297,-57.275 80.176,-57.08C90.381,-55.273 90.479,-54.883 91.992,-45.313C92.09,-44.482 92.676,-43.897 93.555,-43.897ZM23.584,-28.711C24.414,-28.711 25,-29.346 25.147,-30.176C26.611,-39.795 26.807,-40.234 36.865,-41.943C37.793,-42.09 38.379,-42.627 38.379,-43.506C38.379,-44.385 37.793,-44.922 36.963,-45.068C26.758,-46.924 26.709,-47.315 25.147,-56.836C25,-57.715 24.414,-58.301 23.584,-58.301C22.705,-58.301 22.119,-57.715 22.022,-56.885C20.508,-47.119 20.361,-46.728 10.205,-45.068C9.326,-44.922 8.74,-44.385 8.74,-43.506C8.74,-42.627 9.326,-42.09 10.156,-41.943C20.361,-40.088 20.313,-39.648 22.022,-30.127C22.119,-29.346 22.705,-28.711 23.584,-28.711ZM107.373,13.281C110.01,15.967 114.551,15.967 117.139,13.281C119.824,10.547 119.775,6.201 117.139,3.467L70.752,-43.213C68.115,-45.898 63.574,-45.85 60.986,-43.213C58.301,-40.43 58.35,-36.084 60.986,-33.398L107.373,13.281ZM47.363,14.893C48.486,14.893 49.316,14.111 49.463,12.891C51.025,-0.391 51.611,-0.879 65.186,-2.93C66.553,-3.076 67.334,-3.857 67.334,-5.029C67.334,-6.152 66.553,-6.885 65.43,-7.129C51.66,-9.766 51.025,-9.668 49.463,-22.9C49.316,-24.121 48.486,-24.902 47.363,-24.902C46.24,-24.902 45.41,-24.121 45.264,-22.949C43.603,-9.424 43.115,-8.984 29.297,-7.129C28.223,-6.982 27.393,-6.152 27.393,-5.029C27.393,-3.906 28.174,-3.125 29.248,-2.93C43.164,-0.195 43.555,-0.244 45.264,12.988C45.41,14.111 46.24,14.893 47.363,14.893ZM110.059,8.936L84.522,-16.699L87.549,-19.775L113.184,5.859C114.307,6.982 114.648,8.301 113.574,9.424C112.549,10.352 111.23,10.059 110.059,8.936Z" style="fill-rule:nonzero;"/>
        </g>
        <g id="Medium-M" transform="matrix(1,0,0,1,1683.52,1126)">
            <path d="M50.049,-61.182C50.732,-61.182 51.123,-61.67 51.27,-62.305C52.881,-70.41 52.783,-70.606 61.231,-72.266C61.963,-72.412 62.402,-72.803 62.402,-73.486C62.402,-74.17 61.963,-74.561 61.279,-74.707C52.734,-76.465 52.783,-76.66 51.27,-84.717C51.172,-85.352 50.732,-85.791 50.049,-85.791C49.365,-85.791 48.975,-85.352 48.877,-84.717C47.217,-76.563 47.363,-76.269 38.867,-74.707C38.184,-74.609 37.744,-74.17 37.744,-73.486C37.744,-72.852 38.184,-72.412 38.867,-72.266C47.363,-70.557 47.315,-70.361 48.877,-62.305C48.975,-61.67 49.365,-61.182 50.049,-61.182ZM91.894,-43.799C92.676,-43.799 93.164,-44.385 93.311,-45.117C95.068,-54.59 94.971,-55.078 104.932,-56.787C105.762,-56.934 106.299,-57.422 106.299,-58.203C106.299,-58.984 105.762,-59.473 104.98,-59.619C94.971,-61.426 94.824,-61.865 93.311,-71.289C93.164,-72.07 92.676,-72.607 91.894,-72.607C91.113,-72.607 90.576,-72.07 90.479,-71.289C88.769,-61.768 88.818,-61.182 78.76,-59.619C78.027,-59.522 77.441,-58.984 77.441,-58.203C77.49,-57.422 77.979,-56.934 78.76,-56.787C88.818,-55.029 88.916,-54.541 90.479,-45.117C90.576,-44.385 91.113,-43.799 91.894,-43.799ZM23.145,-29.15C23.926,-29.15 24.463,-29.688 24.561,-30.469C26.123,-39.941 26.27,-40.43 36.231,-42.139C37.012,-42.285 37.549,-42.773 37.549,-43.555C37.549,-44.336 37.012,-44.824 36.279,-44.971C26.221,-46.777 26.221,-47.217 24.561,-56.641C24.414,-57.422 23.926,-57.959 23.145,-57.959C22.363,-57.959 21.875,-57.422 21.729,-56.641C20.166,-47.119 20.068,-46.631 10.059,-44.971C9.277,-44.824 8.74,-44.336 8.74,-43.555C8.74,-42.773 9.277,-42.285 10.01,-42.139C20.068,-40.381 20.068,-39.844 21.729,-30.42C21.875,-29.688 22.363,-29.15 23.145,-29.15ZM106.738,12.744C109.131,15.185 113.232,15.137 115.576,12.744C117.969,10.254 117.92,6.348 115.576,3.906L69.19,-42.725C66.797,-45.117 62.695,-45.117 60.352,-42.725C57.959,-40.234 58.008,-36.279 60.352,-33.887L106.738,12.744ZM46.68,13.965C47.705,13.965 48.438,13.281 48.584,12.158C50.147,-1.025 50.781,-1.416 64.209,-3.516C65.43,-3.711 66.162,-4.346 66.162,-5.42C66.162,-6.445 65.43,-7.129 64.453,-7.324C50.83,-9.961 50.147,-9.863 48.584,-22.998C48.438,-24.121 47.705,-24.805 46.68,-24.805C45.654,-24.805 44.922,-24.121 44.775,-23.047C43.115,-9.668 42.627,-9.18 28.955,-7.324C27.979,-7.227 27.197,-6.445 27.197,-5.42C27.197,-4.395 27.93,-3.711 28.906,-3.516C42.676,-0.879 43.066,-0.879 44.775,12.256C44.922,13.281 45.654,13.965 46.68,13.965ZM109.082,8.789L81.494,-18.799L84.277,-21.582L111.865,6.055C112.891,7.031 113.184,8.203 112.207,9.229C111.279,10.107 110.107,9.863 109.082,8.789Z" style="fill-rule:nonzero;"/>
        </g>
        <g id="Regular-M" transform="matrix(1,0,0,1,1387.95,1126)">
            <path d="M49.365,-60.986C49.951,-60.986 50.244,-61.328 50.342,-61.865C52.002,-69.678 51.904,-69.971 60.107,-71.631C60.645,-71.729 61.035,-72.07 61.035,-72.607C61.035,-73.193 60.645,-73.535 60.107,-73.633C51.904,-75.293 52.002,-75.586 50.342,-83.35C50.244,-83.887 49.951,-84.277 49.365,-84.277C48.779,-84.277 48.486,-83.887 48.389,-83.35C46.728,-75.586 46.826,-75.293 38.623,-73.633C38.086,-73.535 37.695,-73.193 37.695,-72.607C37.695,-72.07 38.086,-71.729 38.623,-71.631C46.826,-69.971 46.728,-69.678 48.389,-61.865C48.486,-61.328 48.779,-60.986 49.365,-60.986ZM89.697,-43.75C90.381,-43.75 90.772,-44.19 90.918,-44.824C92.578,-54.102 92.627,-54.688 102.441,-56.397C103.125,-56.494 103.564,-56.934 103.564,-57.617C103.564,-58.301 103.125,-58.691 102.441,-58.838C92.627,-60.498 92.578,-61.084 90.918,-70.361C90.772,-70.996 90.381,-71.484 89.697,-71.484C89.014,-71.484 88.623,-70.996 88.477,-70.361C86.816,-61.084 86.768,-60.498 76.953,-58.838C76.318,-58.691 75.83,-58.301 75.83,-57.617C75.83,-56.934 76.318,-56.494 76.953,-56.397C86.768,-54.688 86.816,-54.102 88.477,-44.824C88.623,-44.19 89.014,-43.75 89.697,-43.75ZM22.607,-29.736C23.291,-29.736 23.682,-30.225 23.828,-30.859C25.488,-40.137 25.537,-40.723 35.352,-42.383C35.986,-42.529 36.475,-42.92 36.475,-43.603C36.475,-44.287 35.986,-44.727 35.352,-44.824C25.537,-46.533 25.488,-47.119 23.828,-56.397C23.682,-57.031 23.291,-57.471 22.607,-57.471C21.924,-57.471 21.533,-57.031 21.387,-56.397C19.727,-47.119 19.678,-46.533 9.863,-44.824C9.229,-44.727 8.74,-44.287 8.74,-43.603C8.74,-42.92 9.229,-42.529 9.863,-42.383C19.678,-40.723 19.727,-40.137 21.387,-30.859C21.533,-30.225 21.924,-29.736 22.607,-29.736ZM45.801,12.793C46.68,12.793 47.315,12.158 47.461,11.23C49.023,-1.807 49.658,-2.148 62.94,-4.297C63.965,-4.492 64.6,-4.98 64.6,-5.957C64.6,-6.885 63.965,-7.471 63.135,-7.617C49.756,-10.156 49.023,-10.107 47.461,-23.145C47.315,-24.072 46.68,-24.707 45.801,-24.707C44.873,-24.707 44.238,-24.072 44.141,-23.193C42.432,-9.961 41.992,-9.521 28.467,-7.617C27.637,-7.52 27.002,-6.885 27.002,-5.957C27.002,-5.029 27.637,-4.492 28.467,-4.297C41.992,-1.709 42.383,-1.709 44.141,11.328C44.238,12.158 44.873,12.793 45.801,12.793Z" style="fill-rule:nonzero;"/>
        </g>
        <g id="Light-M" transform="matrix(1,0,0,1,1091.88,1126)">
            <path d="M47.803,-60.938C48.291,-60.938 48.486,-61.231 48.584,-61.67C50.244,-69.19 50.293,-69.727 58.252,-71.338C58.74,-71.436 59.033,-71.68 59.033,-72.119C59.033,-72.559 58.74,-72.803 58.252,-72.9C50.293,-74.512 50.244,-75.098 48.584,-82.568C48.486,-83.008 48.291,-83.301 47.803,-83.301C47.363,-83.301 47.168,-83.008 47.07,-82.568C45.361,-75.098 45.41,-74.512 37.402,-72.9C36.914,-72.803 36.621,-72.559 36.621,-72.119C36.621,-71.729 36.914,-71.436 37.402,-71.338C45.41,-69.727 45.361,-69.19 47.07,-61.67C47.168,-61.231 47.363,-60.938 47.803,-60.938ZM87.158,-44.336C87.695,-44.336 87.988,-44.678 88.086,-45.215C89.893,-53.906 89.99,-54.688 99.268,-56.397C99.805,-56.494 100.146,-56.787 100.146,-57.324C100.146,-57.861 99.805,-58.203 99.268,-58.301C89.99,-59.961 89.893,-60.791 88.086,-69.482C87.988,-69.971 87.695,-70.313 87.158,-70.313C86.67,-70.313 86.377,-69.971 86.279,-69.482C84.473,-60.791 84.375,-59.961 75.098,-58.301C74.561,-58.203 74.17,-57.861 74.17,-57.324C74.17,-56.787 74.561,-56.494 75.098,-56.397C84.375,-54.688 84.473,-53.906 86.279,-45.215C86.377,-44.678 86.67,-44.336 87.158,-44.336ZM21.729,-30.615C22.217,-30.615 22.559,-30.957 22.656,-31.494C24.414,-40.186 24.561,-40.967 33.838,-42.676C34.375,-42.773 34.717,-43.066 34.717,-43.603C34.717,-44.141 34.375,-44.482 33.838,-44.58C24.561,-46.24 24.414,-47.022 22.656,-55.762C22.559,-56.25 22.217,-56.592 21.729,-56.592C21.24,-56.592 20.898,-56.25 20.801,-55.762C19.043,-47.022 18.945,-46.24 9.619,-44.58C9.082,-44.482 8.74,-44.141 8.74,-43.603C8.74,-43.066 9.082,-42.773 9.619,-42.676C18.945,-40.967 19.043,-40.186 20.801,-31.494C20.898,-30.957 21.24,-30.615 21.729,-30.615ZM106.201,12.5C107.959,14.307 110.84,14.258 112.451,12.5C114.16,10.693 114.209,8.008 112.451,6.201L65.723,-40.723C63.965,-42.481 61.084,-42.432 59.424,-40.723C57.715,-38.916 57.715,-36.182 59.424,-34.424L106.201,12.5ZM44.922,11.377C45.606,11.377 46.143,10.889 46.191,10.107C47.998,-2.93 48.34,-3.027 61.621,-5.322C62.451,-5.469 62.94,-5.859 62.94,-6.641C62.94,-7.373 62.451,-7.813 61.768,-7.959C48.389,-10.547 47.998,-10.352 46.191,-23.389C46.143,-24.17 45.606,-24.658 44.922,-24.658C44.238,-24.658 43.701,-24.17 43.603,-23.438C41.748,-10.254 41.504,-10.107 28.076,-7.959C27.393,-7.861 26.904,-7.373 26.904,-6.641C26.904,-5.908 27.393,-5.469 28.076,-5.322C41.504,-2.734 41.699,-2.881 43.603,10.205C43.701,10.889 44.238,11.377 44.922,11.377ZM107.617,9.668L76.953,-20.996L79.053,-23.096L109.717,7.617C110.498,8.398 110.693,9.18 109.961,9.961C109.229,10.645 108.447,10.498 107.617,9.668Z" style="fill-rule:nonzero;"/>
        </g>
        <g id="Thin-M" transform="matrix(1,0,0,1,796.022,1126)">
            <path d="M45.801,-60.889C46.045,-60.889 46.191,-61.084 46.24,-61.377C47.949,-68.506 48.145,-69.434 55.811,-70.947C56.201,-71.045 56.348,-71.191 56.348,-71.484C56.348,-71.729 56.201,-71.924 55.811,-71.973C48.145,-73.486 47.949,-74.463 46.24,-81.543C46.191,-81.885 46.045,-82.031 45.801,-82.031C45.508,-82.031 45.41,-81.885 45.313,-81.543C43.603,-74.463 43.457,-73.486 35.742,-71.973C35.4,-71.924 35.205,-71.729 35.205,-71.484C35.205,-71.24 35.4,-71.045 35.742,-70.947C43.457,-69.434 43.603,-68.506 45.313,-61.377C45.41,-61.084 45.508,-60.889 45.801,-60.889ZM83.838,-45.166C84.131,-45.166 84.326,-45.361 84.424,-45.703C86.279,-53.662 86.475,-54.688 95.117,-56.397C95.459,-56.445 95.654,-56.641 95.654,-56.982C95.654,-57.324 95.459,-57.52 95.117,-57.568C86.475,-59.277 86.279,-60.352 84.424,-68.311C84.326,-68.604 84.131,-68.799 83.838,-68.799C83.545,-68.799 83.35,-68.604 83.301,-68.311C81.397,-60.352 81.25,-59.277 72.607,-57.568C72.217,-57.52 72.022,-57.324 72.022,-56.982C72.022,-56.641 72.217,-56.445 72.607,-56.397C81.25,-54.688 81.397,-53.662 83.301,-45.703C83.35,-45.361 83.545,-45.166 83.838,-45.166ZM20.557,-31.787C20.85,-31.787 21.045,-31.982 21.094,-32.324C22.998,-40.283 23.193,-41.309 31.836,-43.018C32.178,-43.066 32.373,-43.262 32.373,-43.603C32.373,-43.945 32.178,-44.141 31.836,-44.19C23.193,-45.898 22.998,-46.973 21.094,-54.932C21.045,-55.225 20.85,-55.42 20.557,-55.42C20.264,-55.42 20.068,-55.225 20.02,-54.932C18.115,-46.973 17.969,-45.898 9.326,-44.19C8.936,-44.141 8.74,-43.945 8.74,-43.603C8.74,-43.262 8.936,-43.066 9.326,-43.018C17.969,-41.309 18.115,-40.283 20.02,-32.324C20.068,-31.982 20.264,-31.787 20.557,-31.787ZM106.445,13.135C107.812,14.551 109.863,14.453 111.084,13.135C112.354,11.768 112.451,9.912 111.084,8.496L63.867,-38.916C62.549,-40.234 60.498,-40.186 59.228,-38.916C57.91,-37.549 57.91,-35.596 59.228,-34.277L106.445,13.135ZM43.75,9.473C44.19,9.473 44.531,9.18 44.58,8.691C46.631,-4.395 46.582,-4.15 59.961,-6.689C60.4,-6.787 60.742,-7.031 60.742,-7.52C60.742,-8.008 60.4,-8.301 60.01,-8.398C46.582,-11.035 46.631,-10.693 44.58,-23.731C44.531,-24.268 44.19,-24.512 43.75,-24.512C43.311,-24.512 42.969,-24.268 42.92,-23.779C40.82,-10.645 40.918,-10.889 27.49,-8.398C27.1,-8.301 26.758,-8.008 26.758,-7.52C26.758,-7.031 27.1,-6.787 27.49,-6.689C40.918,-4.053 40.82,-4.395 42.92,8.691C42.969,9.18 43.311,9.473 43.75,9.473ZM107.52,11.035L76.074,-20.361L77.783,-22.022L109.131,9.424C109.814,10.059 109.961,10.645 109.375,11.279C108.789,11.865 108.203,11.719 107.52,11.035Z" style="fill-rule:nonzero;"/>
        </g>
        <g id="Ultralight-M" transform="matrix(1,0,0,1,499.726,1126)">
            <path d="M44.727,-60.889C44.922,-60.889 44.971,-60.986 45.02,-61.231C46.777,-68.115 47.022,-69.287 54.59,-70.752C54.883,-70.85 54.981,-70.947 54.981,-71.143C54.981,-71.289 54.883,-71.436 54.59,-71.484C47.022,-72.998 46.777,-74.121 45.02,-81.006C44.971,-81.25 44.922,-81.397 44.727,-81.397C44.58,-81.397 44.482,-81.25 44.434,-81.006C42.676,-74.121 42.481,-72.998 34.912,-71.484C34.619,-71.436 34.473,-71.289 34.473,-71.143C34.473,-70.996 34.619,-70.85 34.912,-70.752C42.481,-69.287 42.676,-68.115 44.434,-61.231C44.482,-60.986 44.58,-60.889 44.727,-60.889ZM82.129,-45.557C82.324,-45.557 82.422,-45.703 82.519,-45.947C84.424,-53.516 84.668,-54.688 92.969,-56.397C93.262,-56.445 93.359,-56.592 93.359,-56.787C93.359,-57.031 93.262,-57.178 92.969,-57.227C84.668,-58.935 84.424,-60.107 82.519,-67.676C82.422,-67.92 82.324,-68.066 82.129,-68.066C81.982,-68.066 81.836,-67.92 81.787,-67.676C79.834,-60.107 79.639,-58.935 71.338,-57.227C71.045,-57.178 70.898,-57.031 70.898,-56.787C70.898,-56.592 71.045,-56.445 71.338,-56.397C79.639,-54.688 79.834,-53.516 81.787,-45.947C81.836,-45.703 81.982,-45.557 82.129,-45.557ZM19.971,-32.373C20.166,-32.373 20.264,-32.52 20.313,-32.764C22.266,-40.332 22.51,-41.504 30.762,-43.213C31.104,-43.262 31.201,-43.359 31.201,-43.603C31.201,-43.848 31.104,-43.994 30.762,-44.043C22.51,-45.703 22.266,-46.924 20.313,-54.492C20.264,-54.736 20.166,-54.834 19.971,-54.834C19.775,-54.834 19.678,-54.736 19.629,-54.492C17.676,-46.924 17.481,-45.703 9.18,-44.043C8.838,-43.994 8.74,-43.848 8.74,-43.603C8.74,-43.359 8.838,-43.262 9.18,-43.213C17.481,-41.504 17.676,-40.332 19.629,-32.764C19.678,-32.52 19.775,-32.373 19.971,-32.373ZM106.592,13.428C107.764,14.648 109.326,14.551 110.4,13.428C111.426,12.354 111.523,10.889 110.4,9.668L62.94,-37.988C61.816,-39.111 60.156,-39.014 59.131,-37.988C58.008,-36.865 58.008,-35.303 59.131,-34.18L106.592,13.428ZM43.164,8.496C43.457,8.496 43.701,8.301 43.75,7.91C45.947,-5.176 45.703,-4.688 59.082,-7.373C59.375,-7.471 59.619,-7.617 59.619,-8.008C59.619,-8.35 59.375,-8.545 59.082,-8.594C45.703,-11.279 45.947,-10.84 43.75,-23.926C43.701,-24.316 43.457,-24.463 43.164,-24.463C42.871,-24.463 42.627,-24.316 42.529,-23.926C40.381,-10.84 40.625,-11.279 27.246,-8.594C26.904,-8.545 26.66,-8.35 26.66,-8.008C26.66,-7.617 26.904,-7.471 27.246,-7.373C40.625,-4.736 40.381,-5.176 42.529,7.91C42.627,8.301 42.871,8.496 43.164,8.496ZM107.422,11.719L75.635,-20.02L77.1,-21.484L108.838,10.303C109.473,10.938 109.619,11.426 109.033,11.963C108.545,12.451 108.057,12.354 107.422,11.719Z" style="fill-rule:nonzero;"/>
        </g>
        <g id="Black-S" transform="matrix(1,0,0,1,2879.96,696)">
            <path d="M41.65,-56.348C42.529,-56.348 43.164,-56.982 43.311,-57.861C44.531,-65.283 44.385,-65.234 52.002,-66.602C53.076,-66.797 53.662,-67.383 53.662,-68.262C53.662,-69.141 53.076,-69.727 52.148,-69.922C44.238,-71.582 44.043,-71.436 43.311,-78.613C43.213,-79.541 42.529,-80.176 41.65,-80.176C40.772,-80.176 40.137,-79.541 39.99,-78.662C38.721,-71.094 39.014,-70.801 31.201,-69.922C30.322,-69.824 29.639,-69.141 29.639,-68.262C29.639,-67.383 30.225,-66.797 31.152,-66.602C39.014,-64.941 39.111,-65.088 39.99,-57.813C40.088,-56.982 40.772,-56.348 41.65,-56.348ZM79.541,-42.236C80.518,-42.236 81.201,-42.92 81.397,-43.897C83.008,-52.002 82.519,-52.1 90.918,-53.516C92.09,-53.711 92.773,-54.346 92.773,-55.322C92.773,-56.299 92.09,-56.934 91.113,-57.129C82.422,-58.887 82.129,-58.789 81.397,-66.699C81.299,-67.725 80.518,-68.408 79.541,-68.408C78.565,-68.408 77.881,-67.725 77.734,-66.748C76.465,-58.398 76.66,-58.008 68.066,-57.129C67.09,-57.031 66.309,-56.299 66.357,-55.322C66.406,-54.346 66.992,-53.711 68.018,-53.516C76.66,-51.856 76.904,-51.856 77.734,-43.848C77.832,-42.92 78.565,-42.236 79.541,-42.236ZM20.02,-28.418C20.996,-28.418 21.729,-29.15 21.826,-30.127C22.656,-38.33 22.998,-38.33 31.397,-39.746C32.568,-39.941 33.203,-40.576 33.203,-41.553C33.203,-42.529 32.568,-43.164 31.592,-43.359C22.9,-45.117 22.949,-45.068 21.826,-52.93C21.68,-53.955 20.996,-54.688 20.02,-54.688C19.043,-54.688 18.311,-53.955 18.213,-52.978C17.383,-44.58 17.09,-44.629 8.496,-43.359C7.52,-43.213 6.836,-42.529 6.836,-41.553C6.836,-40.576 7.471,-39.941 8.447,-39.746C17.09,-38.037 16.895,-37.988 18.213,-30.029C18.359,-29.15 19.043,-28.418 20.02,-28.418ZM86.328,4.834C89.356,7.91 94.58,7.91 97.705,4.834C100.781,1.709 100.781,-3.418 97.705,-6.543L61.426,-43.311C58.398,-46.387 53.174,-46.387 50.049,-43.311C46.973,-40.186 46.973,-35.059 50.049,-31.934L86.328,4.834ZM39.648,7.422C40.918,7.422 41.895,6.543 42.041,5.176C43.213,-5.566 43.603,-6.152 54.785,-7.617C56.299,-7.813 57.178,-8.74 57.178,-10.01C57.178,-11.23 56.299,-12.158 55.078,-12.402C43.506,-14.697 43.164,-14.551 42.041,-25.195C41.895,-26.563 40.918,-27.441 39.648,-27.441C38.379,-27.441 37.402,-26.563 37.256,-25.244C36.035,-14.16 35.645,-13.77 24.268,-12.402C23.047,-12.256 22.119,-11.23 22.119,-10.01C22.119,-8.789 22.998,-7.861 24.219,-7.617C35.791,-5.322 36.035,-5.371 37.256,5.273C37.402,6.543 38.428,7.422 39.648,7.422ZM90.039,-0.195L77.393,-12.891L80.811,-16.504L93.652,-3.711C94.873,-2.49 95.41,-0.83 94.141,0.391C92.969,1.514 91.309,1.074 90.039,-0.195Z" style="fill-rule:nonzero;"/>
        </g>
        <g id="Heavy-S" transform="matrix(1,0,0,1,2584.35,696)">
            <path d="M41.113,-56.103C41.895,-56.103 42.481,-56.69 42.578,-57.471C43.848,-64.6 43.701,-64.6 51.025,-65.967C52.002,-66.113 52.49,-66.65 52.49,-67.432C52.49,-68.213 52.002,-68.75 51.172,-68.897C43.603,-70.508 43.457,-70.41 42.578,-77.344C42.481,-78.174 41.895,-78.76 41.113,-78.76C40.332,-78.76 39.795,-78.174 39.648,-77.393C38.379,-70.166 38.623,-69.873 31.104,-68.897C30.322,-68.799 29.736,-68.213 29.736,-67.432C29.736,-66.65 30.273,-66.113 31.104,-65.967C38.623,-64.356 38.672,-64.453 39.648,-57.422C39.746,-56.69 40.332,-56.103 41.113,-56.103ZM77.637,-42.09C78.516,-42.09 79.15,-42.725 79.297,-43.603C80.859,-51.563 80.469,-51.709 88.769,-53.125C89.795,-53.272 90.43,-53.857 90.43,-54.736C90.43,-55.615 89.795,-56.201 88.916,-56.397C80.42,-58.057 80.176,-58.057 79.297,-65.869C79.199,-66.797 78.516,-67.432 77.637,-67.432C76.758,-67.432 76.123,-66.797 76.025,-65.918C74.756,-57.764 74.902,-57.373 66.455,-56.397C65.576,-56.299 64.844,-55.615 64.893,-54.736C64.941,-53.857 65.478,-53.272 66.406,-53.125C74.902,-51.514 75.049,-51.465 76.025,-43.555C76.123,-42.725 76.758,-42.09 77.637,-42.09ZM19.58,-28.906C20.459,-28.906 21.094,-29.59 21.191,-30.469C22.168,-38.477 22.412,-38.574 30.713,-39.99C31.738,-40.137 32.324,-40.723 32.324,-41.602C32.324,-42.481 31.738,-43.066 30.859,-43.262C22.315,-44.922 22.363,-44.971 21.191,-52.734C21.094,-53.662 20.459,-54.297 19.58,-54.297C18.701,-54.297 18.018,-53.662 17.92,-52.783C16.992,-44.58 16.797,-44.531 8.35,-43.262C7.471,-43.115 6.836,-42.481 6.836,-41.602C6.836,-40.723 7.422,-40.137 8.301,-39.99C16.797,-38.379 16.65,-38.232 17.92,-30.371C18.066,-29.59 18.701,-28.906 19.58,-28.906ZM85.547,4.053C88.281,6.836 92.969,6.836 95.752,4.053C98.535,1.221 98.535,-3.369 95.752,-6.152L59.522,-42.822C56.787,-45.606 52.051,-45.606 49.268,-42.822C46.533,-39.99 46.533,-35.4 49.268,-32.617L85.547,4.053ZM38.867,6.396C39.99,6.396 40.918,5.615 41.016,4.346C42.188,-6.25 42.627,-6.787 53.613,-8.301C55.029,-8.496 55.811,-9.326 55.811,-10.449C55.811,-11.572 55.029,-12.402 53.906,-12.647C42.578,-14.844 42.139,-14.746 41.016,-25.293C40.918,-26.563 39.99,-27.344 38.867,-27.344C37.695,-27.344 36.816,-26.563 36.67,-25.342C35.449,-14.404 35.059,-14.014 23.828,-12.647C22.754,-12.5 21.875,-11.572 21.875,-10.449C21.875,-9.375 22.705,-8.496 23.828,-8.301C35.156,-6.055 35.449,-6.104 36.67,4.443C36.816,5.615 37.744,6.396 38.867,6.396ZM88.721,-0.488L73.584,-15.674L76.66,-18.897L91.992,-3.613C93.066,-2.539 93.555,-1.074 92.432,0.049C91.357,1.074 89.893,0.684 88.721,-0.488Z" style="fill-rule:nonzero;"/>
        </g>
        <g id="Bold-S" transform="matrix(1,0,0,1,2288.85,696)">
            <path d="M40.527,-55.859C41.211,-55.859 41.699,-56.348 41.797,-57.031C43.066,-63.867 42.92,-63.916 50,-65.234C50.732,-65.381 51.221,-65.82 51.221,-66.504C51.221,-67.236 50.732,-67.627 50.049,-67.773C42.822,-69.287 42.822,-69.238 41.797,-75.977C41.699,-76.66 41.211,-77.148 40.527,-77.148C39.844,-77.148 39.356,-76.66 39.258,-75.977C37.988,-69.092 38.184,-68.897 31.055,-67.773C30.371,-67.676 29.834,-67.236 29.834,-66.504C29.834,-65.82 30.322,-65.381 31.006,-65.234C38.184,-63.77 38.184,-63.77 39.258,-57.031C39.356,-56.348 39.844,-55.859 40.527,-55.859ZM75.537,-41.895C76.318,-41.895 76.856,-42.481 77.002,-43.262C78.418,-51.074 78.174,-51.318 86.328,-52.686C87.207,-52.783 87.793,-53.32 87.793,-54.102C87.793,-54.883 87.207,-55.42 86.426,-55.566C78.125,-57.08 77.979,-57.227 77.002,-64.941C76.904,-65.723 76.318,-66.309 75.537,-66.309C74.707,-66.309 74.17,-65.723 74.072,-64.99C72.803,-57.031 72.9,-56.641 64.648,-55.566C63.867,-55.469 63.232,-54.883 63.281,-54.102C63.281,-53.32 63.818,-52.783 64.6,-52.686C72.9,-51.172 72.998,-50.977 74.072,-43.213C74.17,-42.481 74.707,-41.895 75.537,-41.895ZM19.092,-29.443C19.873,-29.443 20.41,-30.029 20.508,-30.811C21.582,-38.672 21.729,-38.867 29.932,-40.234C30.762,-40.381 31.299,-40.869 31.299,-41.699C31.299,-42.481 30.762,-42.969 30.029,-43.115C21.68,-44.678 21.729,-44.824 20.508,-52.539C20.41,-53.32 19.873,-53.906 19.092,-53.906C18.262,-53.906 17.725,-53.32 17.627,-52.539C16.553,-44.58 16.406,-44.434 8.154,-43.115C7.373,-43.018 6.836,-42.481 6.836,-41.699C6.836,-40.869 7.373,-40.381 8.154,-40.234C16.406,-38.721 16.309,-38.525 17.627,-30.762C17.773,-30.029 18.262,-29.443 19.092,-29.443ZM84.668,3.174C87.061,5.615 91.211,5.615 93.604,3.174C95.996,0.684 95.996,-3.32 93.604,-5.762L57.373,-42.285C54.981,-44.727 50.83,-44.727 48.438,-42.285C45.996,-39.795 46.045,-35.791 48.438,-33.35L84.668,3.174ZM37.988,5.273C39.014,5.273 39.795,4.541 39.893,3.418C41.065,-7.031 41.553,-7.52 52.344,-9.082C53.565,-9.229 54.297,-9.912 54.297,-10.986C54.297,-12.012 53.565,-12.744 52.588,-12.94C41.553,-15.039 41.016,-14.99 39.893,-25.391C39.795,-26.514 39.014,-27.246 37.988,-27.246C36.914,-27.246 36.182,-26.514 36.035,-25.44C34.815,-14.697 34.375,-14.258 23.389,-12.94C22.412,-12.793 21.631,-12.012 21.631,-10.986C21.631,-9.961 22.363,-9.277 23.34,-9.082C34.424,-6.934 34.766,-6.885 36.035,3.516C36.182,4.541 36.963,5.273 37.988,5.273ZM87.256,-0.781L69.287,-18.799L72.022,-21.631L90.088,-3.516C91.065,-2.539 91.406,-1.318 90.479,-0.342C89.502,0.537 88.281,0.244 87.256,-0.781Z" style="fill-rule:nonzero;"/>
        </g>
        <g id="Semibold-S" transform="matrix(1,0,0,1,1993,696)">
            <path d="M40.137,-55.713C40.772,-55.713 41.162,-56.152 41.26,-56.738C42.529,-63.379 42.383,-63.428 49.268,-64.746C49.902,-64.844 50.342,-65.234 50.342,-65.869C50.342,-66.504 49.902,-66.894 49.268,-66.992C42.334,-68.457 42.383,-68.457 41.26,-75C41.162,-75.635 40.772,-76.025 40.137,-76.025C39.502,-76.025 39.111,-75.635 38.965,-75C37.695,-68.359 37.891,-68.213 30.957,-66.992C30.371,-66.943 29.932,-66.504 29.932,-65.869C29.932,-65.234 30.322,-64.844 30.957,-64.746C37.891,-63.33 37.842,-63.281 38.965,-56.738C39.063,-56.152 39.502,-55.713 40.137,-55.713ZM74.023,-41.797C74.756,-41.797 75.244,-42.285 75.391,-43.018C76.758,-50.732 76.611,-50.977 84.668,-52.344C85.449,-52.49 85.938,-52.93 85.938,-53.662C85.938,-54.395 85.449,-54.834 84.766,-54.981C76.563,-56.445 76.465,-56.641 75.391,-64.307C75.293,-65.039 74.756,-65.527 74.023,-65.527C73.34,-65.527 72.852,-65.039 72.754,-64.307C71.436,-56.543 71.533,-56.152 63.379,-54.981C62.695,-54.883 62.158,-54.395 62.158,-53.662C62.158,-52.93 62.647,-52.49 63.379,-52.344C71.533,-50.928 71.582,-50.684 72.754,-42.969C72.852,-42.285 73.34,-41.797 74.023,-41.797ZM18.75,-29.834C19.434,-29.834 19.922,-30.371 20.02,-31.055C21.191,-38.818 21.289,-39.063 29.395,-40.43C30.127,-40.527 30.615,-41.016 30.615,-41.699C30.615,-42.432 30.127,-42.92 29.443,-43.018C21.24,-44.482 21.289,-44.727 20.02,-52.344C19.922,-53.076 19.434,-53.613 18.75,-53.613C18.018,-53.613 17.529,-53.076 17.432,-52.393C16.26,-44.58 16.162,-44.336 8.057,-43.018C7.324,-42.92 6.836,-42.432 6.836,-41.699C6.836,-41.016 7.324,-40.527 8.008,-40.43C16.162,-38.965 16.113,-38.672 17.432,-31.006C17.529,-30.371 18.018,-29.834 18.75,-29.834ZM84.033,2.588C86.182,4.785 89.941,4.785 92.09,2.588C94.238,0.342 94.238,-3.271 92.09,-5.469L55.859,-41.895C53.711,-44.092 49.951,-44.092 47.803,-41.895C45.654,-39.648 45.654,-36.035 47.803,-33.838L84.033,2.588ZM37.353,4.492C38.33,4.492 39.014,3.809 39.111,2.783C40.283,-7.568 40.82,-8.057 51.465,-9.57C52.588,-9.766 53.223,-10.352 53.223,-11.328C53.223,-12.305 52.588,-12.94 51.66,-13.086C40.869,-15.185 40.234,-15.137 39.111,-25.488C39.014,-26.514 38.33,-27.148 37.353,-27.148C36.426,-27.148 35.693,-26.514 35.596,-25.537C34.375,-14.941 33.887,-14.453 23.047,-13.086C22.168,-12.988 21.484,-12.305 21.484,-11.328C21.484,-10.4 22.119,-9.766 23.047,-9.57C33.936,-7.471 34.326,-7.471 35.596,2.881C35.693,3.809 36.426,4.492 37.353,4.492ZM86.231,-0.977L66.309,-20.947L68.799,-23.486L88.769,-3.467C89.648,-2.588 89.99,-1.514 89.111,-0.586C88.232,0.195 87.158,-0.049 86.231,-0.977Z" style="fill-rule:nonzero;"/>
        </g>
        <g id="Medium-S" transform="matrix(1,0,0,1,1696.92,696)">
            <path d="M39.795,-55.566C40.381,-55.566 40.723,-55.957 40.82,-56.494C42.09,-62.988 41.992,-63.037 48.682,-64.356C49.268,-64.453 49.658,-64.795 49.658,-65.381C49.658,-65.967 49.268,-66.309 48.731,-66.406C41.943,-67.822 42.041,-67.871 40.82,-74.268C40.772,-74.805 40.381,-75.195 39.795,-75.195C39.209,-75.195 38.867,-74.805 38.77,-74.268C37.5,-67.773 37.647,-67.676 30.908,-66.406C30.371,-66.309 29.981,-65.967 29.981,-65.381C29.981,-64.795 30.371,-64.453 30.908,-64.356C37.647,-62.988 37.598,-62.94 38.77,-56.494C38.867,-55.957 39.209,-55.566 39.795,-55.566ZM72.949,-41.699C73.633,-41.699 74.023,-42.188 74.17,-42.822C75.488,-50.44 75.44,-50.781 83.447,-52.1C84.082,-52.246 84.57,-52.637 84.57,-53.32C84.57,-54.004 84.082,-54.443 83.447,-54.541C75.391,-55.957 75.342,-56.201 74.17,-63.818C74.072,-64.453 73.633,-64.941 72.949,-64.941C72.266,-64.941 71.826,-64.453 71.729,-63.818C70.459,-56.152 70.459,-55.762 62.402,-54.541C61.768,-54.443 61.279,-54.004 61.328,-53.32C61.328,-52.637 61.768,-52.246 62.402,-52.1C70.459,-50.732 70.508,-50.44 71.729,-42.822C71.826,-42.188 72.266,-41.699 72.949,-41.699ZM18.457,-30.127C19.141,-30.127 19.58,-30.615 19.678,-31.25C20.898,-38.916 20.947,-39.209 28.955,-40.527C29.639,-40.674 30.078,-41.065 30.078,-41.748C30.078,-42.432 29.639,-42.871 29.004,-42.969C20.947,-44.385 20.947,-44.678 19.678,-52.246C19.58,-52.881 19.141,-53.369 18.457,-53.369C17.773,-53.369 17.334,-52.881 17.236,-52.246C16.064,-44.58 16.016,-44.287 7.959,-42.969C7.324,-42.871 6.836,-42.432 6.836,-41.748C6.836,-41.065 7.275,-40.674 7.959,-40.527C16.016,-39.16 15.967,-38.818 17.236,-31.25C17.383,-30.615 17.773,-30.127 18.457,-30.127ZM83.545,2.148C85.547,4.15 89.014,4.15 90.918,2.148C92.92,0.049 92.92,-3.223 90.918,-5.225L54.736,-41.602C52.734,-43.652 49.268,-43.652 47.363,-41.602C45.361,-39.551 45.41,-36.231 47.363,-34.228L83.545,2.148ZM36.914,3.857C37.793,3.857 38.428,3.271 38.525,2.295C39.697,-8.008 40.283,-8.398 50.781,-10.01C51.807,-10.156 52.441,-10.693 52.441,-11.621C52.441,-12.5 51.807,-13.086 50.977,-13.232C40.332,-15.283 39.648,-15.283 38.525,-25.537C38.428,-26.514 37.793,-27.1 36.914,-27.1C35.986,-27.1 35.352,-26.514 35.254,-25.586C34.033,-15.088 33.545,-14.6 22.803,-13.232C21.973,-13.135 21.338,-12.5 21.338,-11.621C21.338,-10.742 21.973,-10.156 22.803,-10.01C33.594,-7.91 33.984,-7.861 35.254,2.393C35.352,3.271 36.035,3.857 36.914,3.857ZM85.498,-1.123L64.063,-22.607L66.357,-24.902L87.793,-3.418C88.623,-2.588 88.867,-1.66 88.086,-0.781C87.305,-0.098 86.328,-0.293 85.498,-1.123Z" style="fill-rule:nonzero;"/>
        </g>
        <g id="Regular-S" transform="matrix(1,0,0,1,1401.04,696)">
            <path d="M39.404,-55.42C39.941,-55.42 40.186,-55.762 40.283,-56.201C41.553,-62.451 41.455,-62.549 47.949,-63.867C48.438,-63.965 48.779,-64.258 48.779,-64.746C48.779,-65.283 48.438,-65.576 47.949,-65.674C41.455,-66.992 41.553,-67.041 40.283,-73.34C40.186,-73.779 39.941,-74.121 39.404,-74.121C38.916,-74.121 38.623,-73.779 38.525,-73.34C37.256,-67.041 37.353,-66.992 30.859,-65.674C30.371,-65.576 30.078,-65.283 30.078,-64.746C30.078,-64.258 30.371,-63.965 30.859,-63.867C37.353,-62.549 37.256,-62.451 38.525,-56.201C38.623,-55.762 38.916,-55.42 39.404,-55.42ZM71.484,-41.602C72.07,-41.602 72.461,-42.041 72.559,-42.578C73.828,-50.098 73.877,-50.488 81.787,-51.807C82.373,-51.904 82.764,-52.295 82.764,-52.881C82.764,-53.516 82.373,-53.857 81.787,-53.955C73.877,-55.273 73.828,-55.664 72.559,-63.184C72.461,-63.77 72.07,-64.16 71.484,-64.16C70.898,-64.16 70.508,-63.77 70.41,-63.184C69.141,-55.664 69.092,-55.273 61.182,-53.955C60.596,-53.857 60.205,-53.516 60.205,-52.881C60.205,-52.295 60.596,-51.904 61.182,-51.807C69.092,-50.488 69.141,-50.098 70.41,-42.578C70.508,-42.041 70.898,-41.602 71.484,-41.602ZM18.115,-30.518C18.75,-30.518 19.092,-30.908 19.19,-31.494C20.508,-39.014 20.508,-39.404 28.418,-40.723C29.004,-40.82 29.395,-41.162 29.395,-41.797C29.395,-42.432 29.004,-42.773 28.418,-42.871C20.508,-44.19 20.508,-44.58 19.19,-52.1C19.092,-52.686 18.75,-53.076 18.115,-53.076C17.529,-53.076 17.139,-52.686 17.041,-52.1C15.772,-44.58 15.772,-44.19 7.813,-42.871C7.275,-42.773 6.836,-42.432 6.836,-41.797C6.836,-41.162 7.275,-40.82 7.813,-40.723C15.772,-39.404 15.772,-39.014 17.041,-31.494C17.139,-30.908 17.529,-30.518 18.115,-30.518ZM82.959,1.563C84.717,3.369 87.793,3.32 89.453,1.563C91.211,-0.293 91.162,-3.174 89.453,-4.98L53.272,-41.26C51.514,-43.066 48.438,-43.066 46.777,-41.26C45.02,-39.404 45.068,-36.523 46.777,-34.766L82.959,1.563ZM36.279,3.076C37.109,3.076 37.647,2.539 37.744,1.709C38.916,-8.545 39.551,-8.936 49.902,-10.498C50.83,-10.645 51.416,-11.133 51.416,-11.963C51.416,-12.793 50.83,-13.281 50.098,-13.428C39.648,-15.381 38.916,-15.43 37.744,-25.635C37.647,-26.465 37.109,-27.051 36.279,-27.051C35.498,-27.051 34.912,-26.465 34.815,-25.684C33.594,-15.283 33.106,-14.795 22.51,-13.428C21.729,-13.33 21.191,-12.793 21.191,-11.963C21.191,-11.182 21.729,-10.645 22.51,-10.498C33.106,-8.496 33.545,-8.447 34.815,1.758C34.912,2.539 35.498,3.076 36.279,3.076ZM84.473,-1.367L61.133,-24.707L63.184,-26.709L86.523,-3.369C87.256,-2.637 87.451,-1.807 86.768,-1.074C86.035,-0.439 85.254,-0.586 84.473,-1.367Z" style="fill-rule:nonzero;"/>
        </g>
        <g id="Light-S" transform="matrix(1,0,0,1,1104.92,696)">
            <path d="M38.037,-55.371C38.428,-55.371 38.672,-55.664 38.721,-56.006C40.039,-62.012 39.99,-62.353 46.338,-63.623C46.728,-63.721 46.973,-63.916 46.973,-64.307C46.973,-64.746 46.728,-64.941 46.338,-65.039C39.99,-66.309 40.039,-66.65 38.721,-72.607C38.672,-72.998 38.428,-73.291 38.037,-73.291C37.647,-73.291 37.451,-72.998 37.353,-72.607C36.035,-66.65 36.084,-66.309 29.785,-65.039C29.346,-64.941 29.102,-64.746 29.102,-64.307C29.102,-63.965 29.346,-63.721 29.785,-63.623C36.084,-62.353 36.035,-62.012 37.353,-56.006C37.451,-55.664 37.647,-55.371 38.037,-55.371ZM69.238,-42.139C69.727,-42.139 70.019,-42.481 70.068,-42.92C71.436,-49.951 71.533,-50.488 79.004,-51.807C79.443,-51.904 79.785,-52.197 79.785,-52.637C79.785,-53.125 79.443,-53.418 79.004,-53.516C71.533,-54.834 71.436,-55.371 70.068,-62.402C70.019,-62.842 69.727,-63.184 69.238,-63.184C68.799,-63.184 68.506,-62.842 68.408,-62.402C67.09,-55.371 67.041,-54.834 59.522,-53.516C59.082,-53.418 58.74,-53.125 58.74,-52.637C58.74,-52.197 59.082,-51.904 59.522,-51.807C67.041,-50.488 67.09,-49.951 68.408,-42.92C68.506,-42.481 68.799,-42.139 69.238,-42.139ZM17.334,-31.299C17.822,-31.299 18.115,-31.592 18.164,-32.031C19.531,-39.063 19.58,-39.648 27.1,-40.967C27.539,-41.016 27.881,-41.309 27.881,-41.797C27.881,-42.285 27.539,-42.578 27.1,-42.627C19.58,-43.945 19.531,-44.531 18.164,-51.563C18.115,-52.002 17.822,-52.295 17.334,-52.295C16.895,-52.295 16.602,-52.002 16.504,-51.563C15.185,-44.531 15.088,-43.945 7.617,-42.627C7.178,-42.578 6.836,-42.285 6.836,-41.797C6.836,-41.309 7.178,-41.016 7.617,-40.967C15.088,-39.648 15.185,-39.063 16.504,-32.031C16.602,-31.592 16.895,-31.299 17.334,-31.299ZM83.106,1.953C84.619,3.516 87.109,3.467 88.525,1.953C89.99,0.439 89.99,-1.904 88.525,-3.418L52.002,-40.039C50.537,-41.553 48.047,-41.553 46.631,-40.039C45.166,-38.477 45.166,-36.133 46.631,-34.668L83.106,1.953ZM35.498,1.807C36.133,1.807 36.572,1.367 36.67,0.732C37.988,-9.521 38.379,-9.668 48.779,-11.426C49.512,-11.523 49.951,-11.914 49.951,-12.549C49.951,-13.232 49.512,-13.623 48.877,-13.721C38.428,-15.723 37.988,-15.625 36.67,-25.879C36.572,-26.514 36.133,-26.953 35.498,-26.953C34.912,-26.953 34.424,-26.514 34.375,-25.879C32.959,-15.527 32.666,-15.332 22.119,-13.721C21.533,-13.623 21.094,-13.232 21.094,-12.549C21.094,-11.914 21.533,-11.523 22.119,-11.426C32.666,-9.375 32.959,-9.424 34.375,0.781C34.424,1.367 34.912,1.807 35.498,1.807ZM84.375,-0.439L60.547,-24.268L62.305,-26.025L86.133,-2.148C86.768,-1.514 86.914,-0.83 86.328,-0.195C85.742,0.342 85.059,0.244 84.375,-0.439Z" style="fill-rule:nonzero;"/>
        </g>
        <g id="Thin-S" transform="matrix(1,0,0,1,808.961,696)">
            <path d="M36.231,-55.371C36.475,-55.371 36.621,-55.518 36.67,-55.762C37.988,-61.426 38.135,-62.109 44.19,-63.281C44.482,-63.379 44.629,-63.525 44.629,-63.77C44.629,-64.014 44.482,-64.16 44.19,-64.209C38.135,-65.43 37.988,-66.065 36.67,-71.729C36.621,-71.973 36.475,-72.168 36.231,-72.168C35.986,-72.168 35.889,-71.973 35.84,-71.729C34.473,-66.065 34.424,-65.43 28.32,-64.209C28.027,-64.16 27.832,-64.014 27.832,-63.77C27.832,-63.525 28.027,-63.379 28.32,-63.281C34.424,-62.109 34.473,-61.426 35.84,-55.762C35.889,-55.518 35.986,-55.371 36.231,-55.371ZM66.309,-42.871C66.602,-42.871 66.748,-43.018 66.797,-43.311C68.262,-49.707 68.408,-50.488 75.293,-51.807C75.635,-51.856 75.781,-52.051 75.781,-52.344C75.781,-52.637 75.635,-52.832 75.293,-52.881C68.408,-54.199 68.262,-54.981 66.797,-61.377C66.748,-61.67 66.602,-61.816 66.309,-61.816C66.065,-61.816 65.869,-61.67 65.82,-61.377C64.356,-54.981 64.258,-54.199 57.324,-52.881C57.031,-52.832 56.836,-52.637 56.836,-52.344C56.836,-52.051 57.031,-51.856 57.324,-51.807C64.258,-50.488 64.356,-49.707 65.82,-43.311C65.869,-43.018 66.065,-42.871 66.309,-42.871ZM16.309,-32.324C16.602,-32.324 16.748,-32.471 16.846,-32.764C18.262,-39.16 18.408,-39.941 25.293,-41.26C25.635,-41.309 25.83,-41.504 25.83,-41.797C25.83,-42.09 25.635,-42.285 25.293,-42.334C18.408,-43.652 18.262,-44.434 16.846,-50.83C16.748,-51.123 16.602,-51.27 16.309,-51.27C16.064,-51.27 15.869,-51.123 15.82,-50.83C14.355,-44.434 14.258,-43.652 7.373,-42.334C7.031,-42.285 6.836,-42.09 6.836,-41.797C6.836,-41.504 7.031,-41.309 7.373,-41.26C14.258,-39.941 14.355,-39.16 15.82,-32.764C15.869,-32.471 16.064,-32.324 16.309,-32.324ZM83.35,2.539C84.473,3.711 86.231,3.662 87.256,2.539C88.33,1.367 88.428,-0.244 87.256,-1.416L50.391,-38.477C49.268,-39.6 47.461,-39.551 46.436,-38.477C45.313,-37.305 45.313,-35.645 46.436,-34.522L83.35,2.539ZM34.473,0.146C34.863,0.146 35.156,-0.098 35.254,-0.537C36.816,-10.791 36.816,-10.645 47.266,-12.598C47.705,-12.695 47.998,-12.94 47.998,-13.379C47.998,-13.77 47.705,-14.014 47.315,-14.111C36.865,-16.162 36.816,-15.918 35.254,-26.172C35.156,-26.611 34.863,-26.856 34.473,-26.856C34.082,-26.856 33.789,-26.611 33.74,-26.172C32.178,-15.869 32.178,-16.016 21.631,-14.111C21.289,-14.063 20.996,-13.77 20.996,-13.379C20.996,-12.94 21.289,-12.695 21.631,-12.598C32.178,-10.547 32.129,-10.791 33.74,-0.537C33.789,-0.098 34.082,0.146 34.473,0.146ZM84.229,0.732L59.766,-23.731L61.133,-25.098L85.596,-0.586C86.133,-0.049 86.279,0.439 85.791,0.977C85.303,1.416 84.815,1.318 84.229,0.732Z" style="fill-rule:nonzero;"/>
        </g>
        <g id="Ultralight-S" transform="matrix(1,0,0,1,512.616,696)">
            <path d="M35.303,-55.322C35.498,-55.322 35.547,-55.42 35.596,-55.664C36.963,-61.084 37.158,-61.963 43.066,-63.135C43.311,-63.184 43.457,-63.281 43.457,-63.428C43.457,-63.623 43.311,-63.721 43.066,-63.77C37.158,-64.941 36.963,-65.772 35.596,-71.24C35.547,-71.436 35.498,-71.582 35.303,-71.582C35.156,-71.582 35.107,-71.436 35.059,-71.24C33.691,-65.772 33.545,-64.941 27.588,-63.77C27.295,-63.721 27.197,-63.623 27.197,-63.428C27.197,-63.33 27.295,-63.184 27.588,-63.135C33.545,-61.963 33.691,-61.084 35.059,-55.664C35.107,-55.42 35.156,-55.322 35.303,-55.322ZM64.795,-43.213C64.99,-43.213 65.088,-43.359 65.137,-43.555C66.65,-49.609 66.797,-50.488 73.389,-51.807C73.633,-51.856 73.779,-51.953 73.779,-52.197C73.779,-52.393 73.633,-52.49 73.389,-52.539C66.797,-53.857 66.65,-54.785 65.137,-60.84C65.088,-61.035 64.99,-61.133 64.795,-61.133C64.648,-61.133 64.502,-61.035 64.453,-60.84C62.988,-54.785 62.842,-53.857 56.201,-52.539C55.957,-52.49 55.859,-52.393 55.859,-52.197C55.859,-51.953 55.957,-51.856 56.201,-51.807C62.842,-50.488 62.988,-49.609 64.453,-43.555C64.502,-43.359 64.648,-43.213 64.795,-43.213ZM15.772,-32.861C15.967,-32.861 16.064,-32.959 16.113,-33.154C17.627,-39.209 17.822,-40.088 24.365,-41.406C24.658,-41.455 24.756,-41.602 24.756,-41.797C24.756,-41.992 24.658,-42.139 24.365,-42.188C17.822,-43.506 17.627,-44.385 16.113,-50.44C16.064,-50.635 15.967,-50.732 15.772,-50.732C15.625,-50.732 15.527,-50.635 15.479,-50.44C13.965,-44.385 13.818,-43.506 7.227,-42.188C6.934,-42.139 6.836,-41.992 6.836,-41.797C6.836,-41.602 6.934,-41.455 7.227,-41.406C13.818,-40.088 13.965,-39.209 15.479,-33.154C15.527,-32.959 15.625,-32.861 15.772,-32.861ZM83.447,2.832C84.424,3.809 85.791,3.76 86.621,2.832C87.5,1.904 87.598,0.635 86.621,-0.391L49.512,-37.647C48.633,-38.574 47.217,-38.525 46.338,-37.647C45.41,-36.719 45.41,-35.352 46.338,-34.424L83.447,2.832ZM33.936,-0.732C34.228,-0.732 34.424,-0.879 34.473,-1.221C36.182,-11.475 36.035,-11.182 46.533,-13.232C46.777,-13.281 47.022,-13.477 47.022,-13.77C47.022,-14.111 46.777,-14.258 46.533,-14.307C36.035,-16.406 36.182,-16.064 34.473,-26.318C34.424,-26.66 34.228,-26.807 33.936,-26.807C33.691,-26.807 33.496,-26.66 33.398,-26.318C31.738,-16.064 31.885,-16.357 21.387,-14.307C21.143,-14.258 20.898,-14.111 20.898,-13.77C20.898,-13.477 21.143,-13.281 21.387,-13.232C31.885,-11.133 31.738,-11.475 33.398,-1.221C33.496,-0.879 33.691,-0.732 33.936,-0.732ZM84.18,1.367L59.326,-23.389L60.547,-24.609L85.352,0.195C85.84,0.684 85.938,1.123 85.498,1.563C85.107,1.953 84.668,1.855 84.18,1.367Z" style="fill-rule:nonzero;"/>
        </g>
    </g>
</svg>
