<?xml version="1.0" encoding="UTF-8" standalone="no"?>
<!DOCTYPE svg PUBLIC "-//W3C//DTD SVG 1.1//EN" "http://www.w3.org/Graphics/SVG/1.1/DTD/svg11.dtd">
<svg width="100%" height="100%" viewBox="0 0 3300 2200" version="1.1" xmlns="http://www.w3.org/2000/svg" xmlns:xlink="http://www.w3.org/1999/xlink" xml:space="preserve" xmlns:serif="http://www.serif.com/" style="fill-rule:evenodd;clip-rule:evenodd;">
    <g id="Notes">
        <rect id="artboard" x="0" y="0" width="3300" height="2200" style="fill:white;"/>
        <path d="M263,292L3036,292" style="fill:none;fill-rule:nonzero;stroke:black;stroke-width:0.5px;"/>
        <g transform="matrix(1,0,0,1,263,322)">
            <text x="0px" y="0px" style="font-family:'SFProDisplay-Regular', 'SF Pro Display';font-size:16px;">W<tspan x="13.922px " y="0px ">e</tspan>ight/Scale V<tspan x="101.313px " y="0px ">a</tspan>riations</text>
        </g>
        <g transform="matrix(1,0,0,1,559.711,322)">
            <text x="-30.41px" y="0px" style="font-family:'SFProDisplay-Regular', 'SF Pro Display';font-size:16px;">Ultr<tspan x="-6.41px " y="0px ">a</tspan>light</text>
        </g>
        <g transform="matrix(1,0,0,1,856.422,322)">
            <text x="-14.824px" y="0px" style="font-family:'SFProDisplay-Regular', 'SF Pro Display';font-size:16px;">Thin</text>
        </g>
        <g transform="matrix(1,0,0,1,1153.13,322)">
            <text x="-16.957px" y="0px" style="font-family:'SFProDisplay-Regular', 'SF Pro Display';font-size:16px;">Light</text>
        </g>
        <g transform="matrix(1,0,0,1,1449.84,322)">
            <text x="-25.609px" y="0px" style="font-family:'SFProDisplay-Regular', 'SF Pro Display';font-size:16px;">Regular</text>
        </g>
        <g transform="matrix(1,0,0,1,1746.56,322)">
            <text x="-27.465px" y="0px" style="font-family:'SFProDisplay-Regular', 'SF Pro Display';font-size:16px;">Medium</text>
        </g>
        <g transform="matrix(1,0,0,1,2043.27,322)">
            <text x="-31.656px" y="0px" style="font-family:'SFProDisplay-Regular', 'SF Pro Display';font-size:16px;">Semibold</text>
        </g>
        <g transform="matrix(1,0,0,1,2339.98,322)">
            <text x="-15.145px" y="0px" style="font-family:'SFProDisplay-Regular', 'SF Pro Display';font-size:16px;">Bold</text>
        </g>
        <g transform="matrix(1,0,0,1,2636.69,322)">
            <text x="-21.461px" y="0px" style="font-family:'SFProDisplay-Regular', 'SF Pro Display';font-size:16px;">Heavy</text>
        </g>
        <g transform="matrix(1,0,0,1,2933.4,322)">
            <text x="-18.375px" y="0px" style="font-family:'SFProDisplay-Regular', 'SF Pro Display';font-size:16px;">Black</text>
        </g>
        <path d="M263,1903L3036,1903" style="fill:none;fill-rule:nonzero;stroke:black;stroke-width:0.5px;"/>
        <g transform="matrix(1,0,0,1,263,1933)">
            <path d="M9.248,0.83C13.555,0.83 17.139,-2.744 17.139,-7.051C17.139,-11.357 13.545,-14.932 9.238,-14.932C4.941,-14.932 1.367,-11.357 1.367,-7.051C1.367,-2.744 4.951,0.83 9.248,0.83ZM9.248,-0.654C5.703,-0.654 2.871,-3.496 2.871,-7.051C2.871,-10.605 5.693,-13.447 9.238,-13.447C12.793,-13.447 15.635,-10.605 15.645,-7.051C15.654,-3.496 12.803,-0.654 9.248,-0.654ZM6.396,-6.318L8.506,-6.318L8.506,-4.199C8.506,-3.76 8.799,-3.457 9.229,-3.457C9.678,-3.457 9.971,-3.76 9.971,-4.199L9.971,-6.318L12.1,-6.318C12.539,-6.318 12.842,-6.611 12.842,-7.041C12.842,-7.48 12.539,-7.783 12.1,-7.783L9.971,-7.783L9.971,-9.893C9.971,-10.342 9.678,-10.645 9.229,-10.645C8.799,-10.645 8.506,-10.342 8.506,-9.893L8.506,-7.783L6.396,-7.783C5.947,-7.783 5.645,-7.48 5.645,-7.041C5.645,-6.611 5.947,-6.318 6.396,-6.318Z" style="fill-rule:nonzero;"/>
        </g>
        <g transform="matrix(1,0,0,1,281.506,1933)">
            <path d="M11.709,2.91C17.158,2.91 21.67,-1.611 21.67,-7.051C21.67,-12.5 17.148,-17.012 11.699,-17.012C6.26,-17.012 1.748,-12.5 1.748,-7.051C1.748,-1.611 6.27,2.91 11.709,2.91ZM11.709,1.25C7.1,1.25 3.418,-2.441 3.418,-7.051C3.418,-11.66 7.09,-15.352 11.699,-15.352C16.309,-15.352 20,-11.66 20.01,-7.051C20.02,-2.441 16.318,1.25 11.709,1.25ZM7.988,-6.23L10.879,-6.23L10.879,-3.32C10.879,-2.832 11.211,-2.5 11.69,-2.5C12.178,-2.5 12.52,-2.832 12.52,-3.32L12.52,-6.23L15.43,-6.23C15.918,-6.23 16.25,-6.563 16.25,-7.041C16.25,-7.529 15.918,-7.871 15.43,-7.871L12.52,-7.871L12.52,-10.762C12.52,-11.27 12.178,-11.602 11.69,-11.602C11.211,-11.602 10.879,-11.26 10.879,-10.762L10.879,-7.871L7.988,-7.871C7.48,-7.871 7.148,-7.529 7.148,-7.041C7.148,-6.563 7.49,-6.23 7.988,-6.23Z" style="fill-rule:nonzero;"/>
        </g>
        <g transform="matrix(1,0,0,1,304.924,1933)">
            <path d="M14.971,5.664C21.934,5.664 27.695,-0.098 27.695,-7.051C27.695,-14.014 21.924,-19.775 14.961,-19.775C8.008,-19.775 2.256,-14.014 2.256,-7.051C2.256,-0.098 8.018,5.664 14.971,5.664ZM14.971,3.848C8.936,3.848 4.082,-1.016 4.082,-7.051C4.082,-13.096 8.926,-17.949 14.961,-17.949C21.006,-17.949 25.859,-13.096 25.869,-7.051C25.879,-1.016 21.016,3.848 14.971,3.848ZM10.059,-6.143L14.063,-6.143L14.063,-2.129C14.063,-1.592 14.434,-1.221 14.951,-1.221C15.488,-1.221 15.859,-1.592 15.859,-2.129L15.859,-6.143L19.883,-6.143C20.41,-6.143 20.791,-6.514 20.791,-7.031C20.791,-7.568 20.42,-7.949 19.883,-7.949L15.859,-7.949L15.859,-11.953C15.859,-12.51 15.488,-12.881 14.951,-12.881C14.434,-12.881 14.063,-12.5 14.063,-11.953L14.063,-7.949L10.059,-7.949C9.502,-7.949 9.131,-7.568 9.131,-7.031C9.131,-6.514 9.512,-6.143 10.059,-6.143Z" style="fill-rule:nonzero;"/>
        </g>
        <g transform="matrix(1,0,0,1,263,1953)">
            <text x="0px" y="0px" style="font-family:'SFProDisplay-Regular', 'SF Pro Display';font-size:16px;">Design V<tspan x="59.211px " y="0px ">a</tspan>riations</text>
        </g>
        <g transform="matrix(1,0,0,1,263,1971)">
            <text x="0px" y="0px" style="font-family:'SFProDisplay-Regular', 'SF Pro Display';font-size:16px;">Symbols ar<tspan x="74.039px " y="0px ">e</tspan> support<tspan x="136.977px " y="0px ">e</tspan>d in up t<tspan x="197.406px " y="0px ">o</tspan> nine weights and thr<tspan x="343.289px " y="0px ">e</tspan>e scales.</text>
        </g>
        <g transform="matrix(1,0,0,1,263,1989)">
            <text x="0px" y="0px" style="font-family:'SFProDisplay-Regular', 'SF Pro Display';font-size:16px;">F<tspan x="8.133px " y="0px ">o</tspan>r optimal lay<tspan x="96.43px " y="0px ">o</tspan>ut with t<tspan x="157.508px 165.547px " y="0px 0px ">ex</tspan>t and other symbols,<tspan x="306.883px 310.164px 317.578px " y="0px 0px 0px "> ve</tspan>rtically align</text>
        </g>
        <g transform="matrix(1,0,0,1,263,2007)">
            <text x="0px" y="0px" style="font-family:'SFProDisplay-Regular', 'SF Pro Display';font-size:16px;">symbols with the adjacent t<tspan x="181.344px 189.383px " y="0px 0px ">ex</tspan>t.</text>
        </g>
        <path d="M776,1919L776,1933" style="fill:none;fill-rule:nonzero;stroke:rgb(0,174,239);stroke-width:0.5px;"/>
        <g transform="matrix(1,0,0,1,776,1933)">
            <path d="M3.311,0.127C3.828,0.127 4.082,-0.068 4.268,-0.605L5.527,-4.063L11.289,-4.063L12.549,-0.605C12.734,-0.068 12.988,0.127 13.496,0.127C14.014,0.127 14.346,-0.186 14.346,-0.674C14.346,-0.84 14.316,-0.986 14.238,-1.201L9.658,-13.389C9.434,-13.994 9.033,-14.287 8.408,-14.287C7.803,-14.287 7.393,-13.994 7.178,-13.398L2.598,-1.191C2.52,-0.977 2.49,-0.83 2.49,-0.664C2.49,-0.176 2.803,0.127 3.311,0.127ZM6.006,-5.537L8.379,-12.109L8.428,-12.109L10.801,-5.537L6.006,-5.537Z" style="fill-rule:nonzero;"/>
        </g>
        <path d="M792.836,1919L792.836,1933" style="fill:none;fill-rule:nonzero;stroke:rgb(0,174,239);stroke-width:0.5px;"/>
        <g transform="matrix(1,0,0,1,776,1953)">
            <text x="0px" y="0px" style="font-family:'SFProDisplay-Regular', 'SF Pro Display';font-size:16px;">M<tspan x="13.063px 21.094px 25.633px " y="0px 0px 0px ">arg</tspan>ins</text>
        </g>
        <g transform="matrix(1,0,0,1,776,1971)">
            <text x="0px" y="0px" style="font-family:'SFProDisplay-Regular', 'SF Pro Display';font-size:16px;">L<tspan x="8.156px " y="0px ">e</tspan>ading and tr<tspan x="95.227px " y="0px ">a</tspan>iling mar<tspan x="159.031px " y="0px ">g</tspan>ins on the left and right side of each symbol</text>
        </g>
        <g transform="matrix(1,0,0,1,776,1989)">
            <text x="0px" y="0px" style="font-family:'SFProDisplay-Regular', 'SF Pro Display';font-size:16px;">can be adjust<tspan x="88.727px " y="0px ">e</tspan>d b<tspan x="117.609px " y="0px ">y</tspan> modifying the x<tspan x="230.703px " y="0px ">-</tspan>location of the mar<tspan x="360.664px " y="0px ">g</tspan>in guidelines.</text>
        </g>
        <g transform="matrix(1,0,0,1,776,2007)">
            <text x="0px" y="0px" style="font-family:'SFProDisplay-Regular', 'SF Pro Display';font-size:16px;">Modifications ar<tspan x="106.484px " y="0px ">e</tspan> aut<tspan x="139.008px " y="0px ">o</tspan>matically applied pr<tspan x="275.977px " y="0px ">o</tspan>portionally t<tspan x="361.93px " y="0px ">o</tspan> all</text>
        </g>
        <g transform="matrix(1,0,0,1,776,2025)">
            <text x="0px" y="0px" style="font-family:'SFProDisplay-Regular', 'SF Pro Display';font-size:16px;">scales and weights.</text>
        </g>
        <g transform="matrix(1,0,0,1,1289,1933)">
            <path d="M2.842,1.865L4.541,3.574C5.4,4.443 6.387,4.385 7.314,3.359L17.49,-7.852C17.754,-7.764 18.027,-7.783 18.34,-7.842L19.404,-8.037L20.068,-7.363L20.029,-6.807C19.99,-6.309 20.117,-5.928 20.606,-5.449L21.367,-4.707C21.846,-4.229 22.461,-4.199 22.93,-4.668L25.84,-7.588C26.309,-8.057 26.289,-8.652 25.811,-9.131L25.039,-9.893C24.561,-10.371 24.19,-10.527 23.711,-10.488L23.135,-10.44L22.49,-11.074L22.734,-12.197C22.861,-12.764 22.705,-13.203 22.119,-13.789L19.922,-15.977C16.582,-19.297 12.148,-19.219 9.258,-16.328C8.838,-15.918 8.809,-15.342 9.043,-14.951C9.277,-14.59 9.736,-14.355 10.381,-14.522C11.846,-14.863 13.369,-14.922 14.795,-13.984L14.209,-12.529C14.014,-12.051 13.984,-11.65 14.111,-11.289L3.047,-0.898C2.061,0.02 1.982,0.996 2.842,1.865ZM10.752,-15.957C13.184,-17.734 16.475,-17.432 18.701,-15.205L21.133,-12.793C21.367,-12.559 21.406,-12.373 21.338,-12.031L21.016,-10.547L22.52,-9.063L23.506,-9.121C23.76,-9.131 23.838,-9.111 24.033,-8.916L24.609,-8.34L22.168,-5.898L21.592,-6.475C21.397,-6.67 21.367,-6.748 21.377,-7.012L21.445,-7.988L19.951,-9.473L18.428,-9.219C18.106,-9.15 17.959,-9.18 17.715,-9.414L15.713,-11.416C15.459,-11.65 15.43,-11.816 15.586,-12.188L16.465,-14.277C14.902,-15.732 12.871,-16.357 10.84,-15.762C10.684,-15.723 10.625,-15.85 10.752,-15.957ZM5.273,2.305L4.102,1.143C3.633,0.684 3.74,0.342 4.141,-0.02L14.951,-10.195L16.416,-8.711L6.426,2.275C6.074,2.676 5.742,2.773 5.273,2.305Z" style="fill-rule:nonzero;"/>
        </g>
        <g transform="matrix(1,0,0,1,1289,1953)">
            <text x="0px" y="0px" style="font-family:'SFProDisplay-Regular', 'SF Pro Display';font-size:16px;">Exporting</text>
        </g>
        <g transform="matrix(1,0,0,1,1289,1971)">
            <text x="0px" y="0px" style="font-family:'SFProDisplay-Regular', 'SF Pro Display';font-size:16px;">Symbols should be outlined when e<tspan x="235.289px " y="0px ">x</tspan>porting t<tspan x="298.188px " y="0px ">o</tspan> ensur<tspan x="347px " y="0px ">e</tspan> the</text>
        </g>
        <g transform="matrix(1,0,0,1,1289,1989)">
            <text x="0px" y="0px" style="font-family:'SFProDisplay-Regular', 'SF Pro Display';font-size:16px;">design is pr<tspan x="75.641px " y="0px ">e</tspan>serv<tspan x="111.82px " y="0px ">e</tspan>d when submitting t<tspan x="251.031px " y="0px ">o</tspan> X<tspan x="272.414px " y="0px ">c</tspan>ode.</text>
        </g>
        <g id="template-version" transform="matrix(1,0,0,1,3036,1933)">
            <text x="-96.57px" y="0px" style="font-family:'SFProDisplay-Regular', 'SF Pro Display';font-size:16px;">T<tspan x="-89.383px " y="0px ">e</tspan>mplat<tspan x="-43.664px " y="0px ">e</tspan> v<tspan x="-25.633px " y="0px ">.</tspan>2.0</text>
        </g>
        <g transform="matrix(1,0,0,1,3036,1951)">
            <text x="-191.594px" y="0px" style="font-family:'SFProDisplay-Regular', 'SF Pro Display';font-size:16px;">Requir<tspan x="-148.766px " y="0px ">e</tspan>s X<tspan x="-120.234px " y="0px ">c</tspan>ode 12 or gr<tspan x="-33.938px " y="0px ">e</tspan>at<tspan x="-13.125px " y="0px ">e</tspan>r</text>
        </g>
        <g transform="matrix(1,0,0,1,3036,1969)">
            <text x="-221.703px" y="0px" style="font-family:'SFProDisplay-Regular', 'SF Pro Display';font-size:16px;">Gener<tspan x="-180.805px -172.773px -168.188px " y="0px 0px 0px ">ate</tspan>d fr<tspan x="-138.453px " y="0px ">o</tspan>m figur<tspan x="-83.922px -75.727px -73.227px -61.938px -53.906px -46.492px -38.297px -35.328px " y="0px 0px 0px 0px 0px 0px 0px 0px ">e.wave.c</tspan>ir<tspan x="-19.477px " y="0px ">c</tspan>le</text>
        </g>
        <g transform="matrix(1,0,0,1,3036,1987)">
            <text x="-143.117px" y="0px" style="font-family:'SFProDisplay-Regular', 'SF Pro Display';font-size:16px;">T<tspan x="-135.695px " y="0px ">y</tspan>peset at 100 points</text>
        </g>
        <g transform="matrix(1,0,0,1,263,726)">
            <text x="0px" y="0px" style="font-family:'SFProDisplay-Regular', 'SF Pro Display';font-size:16px;">Small</text>
        </g>
        <g transform="matrix(1,0,0,1,263,1156)">
            <text x="0px" y="0px" style="font-family:'SFProDisplay-Regular', 'SF Pro Display';font-size:16px;">Medium</text>
        </g>
        <g transform="matrix(1,0,0,1,263,1586)">
            <text x="0px" y="0px" style="font-family:'SFProDisplay-Regular', 'SF Pro Display';font-size:16px;">Lar<tspan x="20.961px " y="0px ">g</tspan>e</text>
        </g>
    </g>
    <g id="Guides">
        <g id="H-reference" transform="matrix(1,0,0,1,339,696)">
            <path d="M0.977,0L3.662,0L12.988,-24.463L45.752,-24.463L55.127,0L57.764,0L30.615,-70.459L28.125,-70.459L0.977,0ZM29.346,-67.139L29.443,-67.139L44.873,-26.709L13.867,-26.709L29.346,-67.139Z" style="fill:rgb(39,170,225);fill-rule:nonzero;"/>
        </g>
        <path id="Baseline-S" d="M263,696L3036,696" style="fill:none;fill-rule:nonzero;stroke:rgb(39,170,225);stroke-width:0.5px;"/>
        <path id="Capline-S" d="M263,625.541L3036,625.541" style="fill:none;fill-rule:nonzero;stroke:rgb(39,170,225);stroke-width:0.5px;"/>
        <g id="H-reference1" serif:id="H-reference" transform="matrix(1,0,0,1,339,1126)">
            <path d="M0.977,0L3.662,0L12.988,-24.463L45.752,-24.463L55.127,0L57.764,0L30.615,-70.459L28.125,-70.459L0.977,0ZM29.346,-67.139L29.443,-67.139L44.873,-26.709L13.867,-26.709L29.346,-67.139Z" style="fill:rgb(39,170,225);fill-rule:nonzero;"/>
        </g>
        <path id="Baseline-M" d="M263,1126L3036,1126" style="fill:none;fill-rule:nonzero;stroke:rgb(39,170,225);stroke-width:0.5px;"/>
        <path id="Capline-M" d="M263,1055.54L3036,1055.54" style="fill:none;fill-rule:nonzero;stroke:rgb(39,170,225);stroke-width:0.5px;"/>
        <g id="H-reference2" serif:id="H-reference" transform="matrix(1,0,0,1,339,1556)">
            <path d="M0.977,0L3.662,0L12.988,-24.463L45.752,-24.463L55.127,0L57.764,0L30.615,-70.459L28.125,-70.459L0.977,0ZM29.346,-67.139L29.443,-67.139L44.873,-26.709L13.867,-26.709L29.346,-67.139Z" style="fill:rgb(39,170,225);fill-rule:nonzero;"/>
        </g>
        <path id="Baseline-L" d="M263,1556L3036,1556" style="fill:none;fill-rule:nonzero;stroke:rgb(39,170,225);stroke-width:0.5px;"/>
        <path id="Capline-L" d="M263,1485.54L3036,1485.54" style="fill:none;fill-rule:nonzero;stroke:rgb(39,170,225);stroke-width:0.5px;"/>
        <path id="left-margin" d="M1391.3,1030.79L1391.3,1150.12" style="fill:none;fill-rule:nonzero;stroke:rgb(0,174,239);stroke-width:0.5px;"/>
        <path id="right-margin" d="M1508.39,1030.79L1508.39,1150.12" style="fill:none;fill-rule:nonzero;stroke:rgb(0,174,239);stroke-width:0.5px;"/>
    </g>
    <g id="Symbols">
        <g id="Black-L" transform="matrix(1,0,0,1,2854.05,1556)">
            <path d="M79.346,32.861C116.748,32.861 147.412,2.197 147.412,-35.205C147.412,-72.607 116.748,-103.271 79.297,-103.271C41.895,-103.271 11.279,-72.607 11.279,-35.205C11.279,2.197 41.943,32.861 79.346,32.861ZM79.346,12.402C52.978,12.402 31.738,-8.838 31.738,-35.205C31.738,-61.572 52.93,-82.813 79.297,-82.813C105.664,-82.813 126.953,-61.572 126.953,-35.205C127.002,-8.838 105.713,12.402 79.346,12.402ZM73.584,5.127C76.123,5.127 77.783,3.467 77.783,0.537L77.783,-22.119C77.783,-23.34 78.369,-24.023 79.346,-24.023C80.176,-24.023 80.859,-23.34 80.859,-22.119L80.859,0.537C80.859,3.418 82.519,5.127 85.01,5.127C87.598,5.127 89.209,3.467 89.209,0.537L89.209,-38.672C89.209,-39.746 89.795,-40.527 90.674,-40.527C91.455,-40.527 92.09,-39.746 92.09,-38.672L92.09,-23.682C92.09,-21.045 93.701,-19.434 95.947,-19.434C98.291,-19.434 99.854,-21.045 99.854,-23.682L99.854,-38.184C99.854,-48.682 93.994,-52.148 79.394,-52.148L74.414,-52.148C72.022,-52.148 70.898,-52.393 69.141,-53.809L64.209,-57.813L63.477,-69.238C63.33,-71.924 61.523,-73.389 59.228,-73.242C56.836,-73.144 55.225,-71.436 55.371,-68.701L56.201,-56.885C56.348,-54.492 57.471,-52.978 59.375,-51.416L67.92,-44.385C68.945,-43.506 69.434,-42.676 69.434,-41.357L69.434,0.537C69.434,3.418 71.143,5.127 73.584,5.127ZM79.394,-55.371C83.74,-55.371 87.402,-59.033 87.402,-63.232C87.402,-67.627 83.74,-71.289 79.394,-71.289C75,-71.289 71.533,-67.627 71.533,-63.232C71.533,-58.984 75,-55.371 79.394,-55.371Z" style="fill-rule:nonzero;"/>
        </g>
        <g id="Heavy-L" transform="matrix(1,0,0,1,2558.39,1556)">
            <path d="M78.272,31.787C115.088,31.787 145.312,1.563 145.312,-35.205C145.312,-72.022 115.039,-102.246 78.272,-102.246C41.455,-102.246 11.279,-72.022 11.279,-35.205C11.279,1.563 41.504,31.787 78.272,31.787ZM78.272,14.014C51.025,14.014 29.053,-7.959 29.053,-35.205C29.053,-62.5 50.977,-84.473 78.272,-84.473C105.518,-84.473 127.49,-62.5 127.539,-35.205C127.539,-7.959 105.566,14.014 78.272,14.014ZM72.559,5.615C75.098,5.615 76.709,4.053 76.709,1.123L76.709,-22.363C76.709,-23.584 77.295,-24.316 78.272,-24.316C79.15,-24.316 79.785,-23.584 79.785,-22.363L79.785,1.123C79.785,4.004 81.445,5.615 83.936,5.615C86.426,5.615 88.037,4.053 88.037,1.123L88.037,-39.551C88.037,-40.674 88.623,-41.406 89.502,-41.406C90.283,-41.406 90.918,-40.674 90.918,-39.551L90.918,-23.682C90.918,-21.094 92.481,-19.531 94.727,-19.531C97.022,-19.531 98.535,-21.094 98.535,-23.682L98.535,-39.014C98.535,-49.609 92.627,-52.978 78.32,-52.978L73.291,-52.978C70.898,-52.978 69.775,-53.272 67.969,-54.688L62.94,-58.643L62.158,-70.313C62.012,-72.949 60.303,-74.414 58.008,-74.268C55.713,-74.121 54.15,-72.51 54.297,-69.824L55.127,-57.861C55.273,-55.42 56.397,-53.906 58.252,-52.393L66.894,-45.459C67.969,-44.629 68.457,-43.701 68.457,-42.383L68.457,1.123C68.457,4.004 70.166,5.615 72.559,5.615ZM78.32,-56.299C82.715,-56.299 86.377,-60.01 86.377,-64.209C86.377,-68.652 82.715,-72.315 78.32,-72.315C73.926,-72.315 70.41,-68.652 70.41,-64.209C70.41,-59.961 73.926,-56.299 78.32,-56.299Z" style="fill-rule:nonzero;"/>
        </g>
        <g id="Bold-L" transform="matrix(1,0,0,1,2262.88,1556)">
            <path d="M77.1,30.566C113.232,30.566 142.92,0.879 142.92,-35.254C142.92,-71.338 113.184,-101.074 77.051,-101.074C40.967,-101.074 11.279,-71.338 11.279,-35.254C11.279,0.879 41.016,30.566 77.1,30.566ZM77.1,15.82C48.828,15.82 26.074,-6.982 26.074,-35.254C26.074,-63.525 48.779,-86.279 77.051,-86.279C105.371,-86.279 128.125,-63.525 128.174,-35.254C128.174,-6.982 105.371,15.82 77.1,15.82ZM71.436,6.201C73.926,6.201 75.537,4.639 75.537,1.758L75.537,-22.656C75.537,-23.877 76.074,-24.609 77.1,-24.609C77.979,-24.609 78.565,-23.926 78.565,-22.656L78.565,1.758C78.565,4.59 80.273,6.201 82.715,6.201C85.156,6.201 86.768,4.639 86.768,1.758L86.768,-40.576C86.768,-41.65 87.354,-42.383 88.184,-42.383C89.014,-42.383 89.551,-41.699 89.551,-40.576L89.551,-23.682C89.551,-21.143 91.113,-19.629 93.359,-19.629C95.557,-19.629 97.022,-21.143 97.022,-23.682L97.022,-39.941C97.022,-50.635 91.113,-53.955 77.148,-53.955L72.07,-53.955C69.629,-53.955 68.555,-54.297 66.699,-55.664L61.523,-59.57L60.693,-71.533C60.547,-74.121 58.887,-75.537 56.69,-75.391C54.443,-75.244 52.93,-73.682 53.125,-71.045L53.906,-58.984C54.053,-56.445 55.225,-54.883 57.031,-53.467L65.772,-46.68C66.894,-45.85 67.334,-44.873 67.334,-43.506L67.334,1.758C67.334,4.59 69.043,6.201 71.436,6.201ZM77.148,-57.422C81.592,-57.422 85.254,-61.084 85.254,-65.332C85.254,-69.824 81.592,-73.438 77.148,-73.438C72.705,-73.438 69.19,-69.824 69.19,-65.332C69.19,-61.084 72.705,-57.422 77.148,-57.422Z" style="fill-rule:nonzero;"/>
        </g>
        <g id="Semibold-L" transform="matrix(1,0,0,1,1966.97,1556)">
            <path d="M76.269,29.736C111.914,29.736 141.309,0.391 141.309,-35.254C141.309,-70.898 111.865,-100.244 76.269,-100.244C40.625,-100.244 11.279,-70.898 11.279,-35.254C11.279,0.391 40.674,29.736 76.269,29.736ZM76.269,17.041C47.315,17.041 24.023,-6.25 24.023,-35.254C24.023,-64.209 47.266,-87.549 76.269,-87.549C105.225,-87.549 128.564,-64.209 128.613,-35.254C128.662,-6.25 105.273,17.041 76.269,17.041ZM70.654,6.592C73.096,6.592 74.707,5.078 74.707,2.246L74.707,-22.852C74.707,-24.121 75.244,-24.854 76.269,-24.854C77.197,-24.854 77.783,-24.121 77.783,-22.852L77.783,2.246C77.783,5.029 79.443,6.592 81.885,6.592C84.277,6.592 85.84,5.078 85.84,2.246L85.84,-41.309C85.84,-42.334 86.426,-43.066 87.256,-43.066C88.086,-43.066 88.672,-42.383 88.672,-41.309L88.672,-23.682C88.672,-21.143 90.186,-19.727 92.383,-19.727C94.531,-19.727 95.996,-21.143 95.996,-23.682L95.996,-40.625C95.996,-51.318 90.088,-54.59 76.367,-54.59L71.24,-54.59C68.75,-54.59 67.676,-54.981 65.82,-56.348L60.547,-60.205L59.717,-72.363C59.57,-74.951 57.959,-76.318 55.762,-76.172C53.565,-76.025 52.1,-74.512 52.295,-71.875L53.076,-59.717C53.223,-57.178 54.395,-55.566 56.201,-54.248L64.99,-47.559C66.113,-46.68 66.602,-45.703 66.602,-44.287L66.602,2.246C66.602,5.029 68.311,6.592 70.654,6.592ZM76.367,-58.154C80.811,-58.154 84.424,-61.865 84.424,-66.113C84.424,-70.606 80.811,-74.219 76.367,-74.219C71.875,-74.219 68.359,-70.606 68.359,-66.113C68.359,-61.865 71.875,-58.154 76.367,-58.154Z" style="fill-rule:nonzero;"/>
        </g>
        <g id="Medium-L" transform="matrix(1,0,0,1,1670.87,1556)">
            <path d="M75.684,29.15C110.938,29.15 140.088,0 140.088,-35.254C140.088,-70.508 110.889,-99.658 75.635,-99.658C40.381,-99.658 11.279,-70.508 11.279,-35.254C11.279,0 40.381,29.15 75.684,29.15ZM75.684,18.018C46.143,18.018 22.461,-5.762 22.461,-35.254C22.461,-64.746 46.143,-88.525 75.635,-88.525C105.127,-88.525 128.906,-64.746 128.906,-35.254C128.955,-5.762 105.176,18.018 75.684,18.018ZM70.068,6.885C72.51,6.885 74.072,5.42 74.072,2.588L74.072,-22.998C74.072,-24.268 74.609,-25 75.635,-25C76.563,-25 77.148,-24.316 77.148,-22.998L77.148,2.588C77.148,5.371 78.809,6.885 81.25,6.885C83.594,6.885 85.156,5.42 85.156,2.588L85.156,-41.846C85.156,-42.871 85.791,-43.555 86.572,-43.555C87.402,-43.555 87.94,-42.92 87.94,-41.846L87.94,-23.682C87.94,-21.191 89.502,-19.775 91.65,-19.775C93.799,-19.775 95.264,-21.191 95.264,-23.682L95.264,-41.065C95.264,-51.856 89.307,-55.078 75.732,-55.078L70.557,-55.078C68.066,-55.078 66.992,-55.518 65.137,-56.836L59.815,-60.693L58.935,-72.998C58.789,-75.586 57.227,-76.904 55.078,-76.758C52.881,-76.611 51.514,-75.098 51.66,-72.51L52.441,-60.303C52.637,-57.715 53.76,-56.103 55.566,-54.785L64.356,-48.193C65.527,-47.315 66.016,-46.289 66.016,-44.873L66.016,2.588C66.016,5.371 67.725,6.885 70.068,6.885ZM75.732,-58.691C80.225,-58.691 83.838,-62.402 83.838,-66.699C83.838,-71.191 80.225,-74.805 75.732,-74.805C71.24,-74.805 67.725,-71.191 67.725,-66.699C67.725,-62.402 71.24,-58.691 75.732,-58.691Z" style="fill-rule:nonzero;"/>
        </g>
        <g id="Regular-L" transform="matrix(1,0,0,1,1374.97,1556)">
            <path d="M74.854,28.32C109.668,28.32 138.477,-0.488 138.477,-35.254C138.477,-70.068 109.619,-98.877 74.805,-98.877C40.039,-98.877 11.279,-70.068 11.279,-35.254C11.279,-0.488 40.088,28.32 74.854,28.32ZM74.854,19.238C44.678,19.238 20.41,-5.078 20.41,-35.254C20.41,-65.478 44.629,-89.746 74.805,-89.746C105.029,-89.746 129.297,-65.478 129.346,-35.254C129.395,-5.078 105.078,19.238 74.854,19.238ZM69.336,7.275C71.68,7.275 73.242,5.811 73.242,3.027L73.242,-23.193C73.242,-24.463 73.779,-25.195 74.854,-25.195C75.781,-25.195 76.318,-24.512 76.318,-23.193L76.318,3.027C76.318,5.811 78.027,7.275 80.42,7.275C82.764,7.275 84.277,5.811 84.277,3.027L84.277,-42.529C84.277,-43.555 84.863,-44.238 85.693,-44.238C86.523,-44.238 87.061,-43.603 87.061,-42.529L87.061,-23.682C87.061,-21.24 88.574,-19.824 90.723,-19.824C92.822,-19.824 94.238,-21.24 94.238,-23.682L94.238,-41.699C94.238,-52.539 88.281,-55.762 74.951,-55.762L69.727,-55.762C67.236,-55.762 66.162,-56.201 64.258,-57.52L58.838,-61.279L57.959,-73.828C57.813,-76.367 56.299,-77.637 54.15,-77.539C52.051,-77.344 50.684,-75.928 50.83,-73.389L51.66,-61.035C51.807,-58.447 52.93,-56.787 54.736,-55.518L63.574,-49.023C64.795,-48.145 65.283,-47.119 65.283,-45.654L65.283,3.027C65.283,5.811 66.992,7.275 69.336,7.275ZM74.951,-59.424C79.443,-59.424 83.057,-63.135 83.057,-67.481C83.057,-72.022 79.443,-75.586 74.951,-75.586C70.41,-75.586 66.894,-72.022 66.894,-67.481C66.894,-63.184 70.41,-59.424 74.951,-59.424Z" style="fill-rule:nonzero;"/>
        </g>
        <g id="Light-L" transform="matrix(1,0,0,1,1079.18,1556)">
            <path d="M73.926,27.393C108.301,27.393 136.621,-0.928 136.621,-35.254C136.621,-69.629 108.252,-97.949 73.926,-97.949C39.551,-97.949 11.279,-69.629 11.279,-35.254C11.279,-0.928 39.6,27.393 73.926,27.393ZM73.926,20.508C43.115,20.508 18.213,-4.443 18.213,-35.254C18.213,-66.113 43.066,-91.016 73.926,-91.016C104.736,-91.016 129.688,-66.113 129.736,-35.254C129.736,-4.443 104.785,20.508 73.926,20.508ZM68.75,7.031C70.996,7.031 72.412,5.566 72.412,2.979L72.412,-23.779C72.412,-25 72.949,-25.732 73.926,-25.732C74.854,-25.732 75.342,-25.049 75.342,-23.779L75.342,2.979C75.342,5.518 76.953,7.031 79.199,7.031C81.397,7.031 82.813,5.566 82.813,2.979L82.813,-43.311C82.813,-44.336 83.447,-45.02 84.229,-45.02C85.107,-45.02 85.596,-44.385 85.596,-43.311L85.596,-23.877C85.596,-21.582 86.963,-20.264 89.014,-20.264C90.918,-20.264 92.236,-21.582 92.236,-23.877L92.236,-42.725C92.236,-52.978 86.816,-56.299 74.072,-56.299L68.994,-56.299C66.602,-56.299 65.674,-56.787 63.916,-57.959L58.496,-61.67L57.617,-74.17C57.422,-76.514 56.055,-77.734 54.102,-77.637C52.1,-77.441 50.83,-76.074 50.977,-73.731L51.807,-61.768C51.953,-59.228 52.978,-57.568 54.736,-56.348L63.281,-50.147C64.453,-49.316 64.941,-48.193 64.941,-46.68L64.941,2.979C64.941,5.518 66.504,7.031 68.75,7.031ZM74.072,-60.01C78.516,-60.01 82.031,-63.623 82.031,-67.92C82.031,-72.363 78.565,-75.928 74.072,-75.928C69.678,-75.928 66.113,-72.363 66.113,-67.92C66.113,-63.672 69.678,-60.01 74.072,-60.01Z" style="fill-rule:nonzero;"/>
        </g>
        <g id="Thin-L" transform="matrix(1,0,0,1,783.693,1556)">
            <path d="M72.705,26.172C106.494,26.172 134.18,-1.514 134.18,-35.254C134.18,-69.043 106.494,-96.729 72.705,-96.729C38.965,-96.729 11.279,-69.043 11.279,-35.254C11.279,-1.514 38.965,26.172 72.705,26.172ZM72.705,22.168C41.016,22.168 15.283,-3.564 15.283,-35.254C15.283,-66.992 41.016,-92.725 72.705,-92.725C104.395,-92.725 130.176,-66.992 130.176,-35.254C130.176,-3.564 104.443,22.168 72.705,22.168ZM68.018,6.641C70.068,6.641 71.289,5.273 71.289,2.93L71.289,-24.609C71.289,-25.684 71.875,-26.416 72.705,-26.416C73.584,-26.416 74.072,-25.732 74.072,-24.609L74.072,2.93C74.072,5.176 75.488,6.641 77.637,6.641C79.59,6.641 80.908,5.273 80.908,2.93L80.908,-44.336C80.908,-45.361 81.494,-46.094 82.275,-46.094C83.154,-46.094 83.643,-45.459 83.643,-44.336L83.643,-24.121C83.643,-22.022 84.863,-20.801 86.719,-20.801C88.477,-20.801 89.648,-22.022 89.648,-24.121L89.648,-44.092C89.648,-53.516 84.863,-57.031 72.9,-57.031L67.969,-57.031C65.772,-57.031 64.99,-57.52 63.428,-58.594L58.106,-62.158L57.129,-74.561C56.982,-76.709 55.811,-77.881 54.004,-77.783C52.197,-77.588 51.025,-76.318 51.172,-74.219L52.002,-62.695C52.148,-60.303 52.978,-58.643 54.736,-57.422L62.891,-51.611C63.965,-50.879 64.453,-49.658 64.453,-48.096L64.453,2.93C64.453,5.176 65.869,6.641 68.018,6.641ZM72.9,-60.742C77.295,-60.742 80.713,-64.209 80.713,-68.506C80.713,-72.852 77.344,-76.318 72.9,-76.318C68.652,-76.318 65.137,-72.852 65.137,-68.506C65.137,-64.307 68.652,-60.742 72.9,-60.742Z" style="fill-rule:nonzero;"/>
        </g>
        <g id="Ultralight-L" transform="matrix(1,0,0,1,487.616,1556)">
            <path d="M72.119,25.537C105.566,25.537 132.91,-1.807 132.91,-35.254C132.91,-68.75 105.566,-96.094 72.119,-96.094C38.623,-96.094 11.279,-68.75 11.279,-35.254C11.279,-1.807 38.623,25.537 72.119,25.537ZM72.119,23.047C39.941,23.047 13.77,-3.125 13.77,-35.254C13.77,-67.432 39.941,-93.604 72.119,-93.604C104.248,-93.604 130.42,-67.432 130.42,-35.254C130.42,-3.125 104.248,23.047 72.119,23.047ZM67.627,6.445C69.58,6.445 70.752,5.127 70.752,2.93L70.752,-25C70.752,-26.025 71.289,-26.758 72.07,-26.758C72.949,-26.758 73.438,-26.123 73.438,-25L73.438,2.93C73.438,5.029 74.756,6.445 76.807,6.445C78.711,6.445 79.932,5.127 79.932,2.93L79.932,-44.873C79.932,-45.898 80.518,-46.631 81.299,-46.631C82.178,-46.631 82.666,-45.996 82.666,-44.873L82.666,-24.219C82.666,-22.266 83.74,-21.094 85.547,-21.094C87.207,-21.094 88.281,-22.266 88.281,-24.219L88.281,-44.775C88.281,-53.809 83.887,-57.422 72.315,-57.422L67.481,-57.422C65.332,-57.422 64.648,-57.91 63.184,-58.887L57.861,-62.402L56.885,-74.756C56.738,-76.807 55.664,-77.93 53.955,-77.832C52.197,-77.686 51.123,-76.416 51.27,-74.463L52.1,-63.184C52.246,-60.889 52.978,-59.18 54.785,-57.959L62.695,-52.344C63.721,-51.66 64.209,-50.44 64.209,-48.779L64.209,2.93C64.209,5.029 65.527,6.445 67.627,6.445ZM72.315,-61.084C76.66,-61.084 80.029,-64.551 80.029,-68.799C80.029,-73.096 76.758,-76.563 72.315,-76.563C68.115,-76.563 64.648,-73.096 64.648,-68.799C64.648,-64.6 68.115,-61.084 72.315,-61.084Z" style="fill-rule:nonzero;"/>
        </g>
        <g id="Black-M" transform="matrix(1,0,0,1,2870.97,1126)">
            <path d="M62.402,18.457C91.992,18.457 116.113,-5.615 116.113,-35.205C116.113,-64.795 91.992,-88.867 62.402,-88.867C32.813,-88.867 8.74,-64.795 8.74,-35.205C8.74,-5.615 32.813,18.457 62.402,18.457ZM62.402,0.195C42.871,0.195 27.002,-15.625 27.002,-35.205C27.002,-54.736 42.871,-70.606 62.402,-70.606C81.982,-70.606 97.803,-54.736 97.803,-35.205C97.803,-15.625 81.982,0.195 62.402,0.195ZM58.057,-4.785C60.01,-4.785 61.279,-6.104 61.279,-8.35L61.279,-25.049C61.279,-25.928 61.719,-26.465 62.402,-26.465C62.988,-26.465 63.574,-25.928 63.574,-25.049L63.574,-8.35C63.574,-6.152 64.746,-4.785 66.699,-4.785C68.652,-4.785 69.922,-6.104 69.922,-8.35L69.922,-37.061C69.922,-37.94 70.361,-38.574 71.045,-38.574C71.68,-38.574 72.168,-37.94 72.168,-37.061L72.168,-26.367C72.168,-24.365 73.34,-23.096 75.098,-23.096C76.904,-23.096 78.076,-24.365 78.076,-26.367L78.076,-36.963C78.076,-44.629 73.877,-47.461 62.451,-47.461L58.74,-47.461C56.982,-47.461 56.201,-47.607 54.883,-48.731L51.27,-51.807L50.732,-60.254C50.586,-62.305 49.219,-63.525 47.412,-63.379C45.557,-63.33 44.287,-61.963 44.434,-59.912L45.068,-51.074C45.166,-49.365 45.996,-48.242 47.461,-46.924L53.809,-41.406C54.541,-40.82 54.932,-40.186 54.932,-39.16L54.932,-8.35C54.932,-6.152 56.152,-4.785 58.057,-4.785ZM62.451,-49.805C65.772,-49.805 68.555,-52.637 68.555,-55.811C68.555,-59.18 65.772,-61.963 62.451,-61.963C59.18,-61.963 56.494,-59.18 56.494,-55.811C56.494,-52.539 59.18,-49.805 62.451,-49.805Z" style="fill-rule:nonzero;"/>
        </g>
        <g id="Heavy-M" transform="matrix(1,0,0,1,2575.19,1126)">
            <path d="M61.523,17.529C90.527,17.529 114.258,-6.201 114.258,-35.205C114.258,-64.258 90.527,-87.988 61.475,-87.988C32.471,-87.988 8.74,-64.258 8.74,-35.205C8.74,-6.201 32.471,17.529 61.523,17.529ZM61.523,1.611C41.113,1.611 24.658,-14.844 24.658,-35.205C24.658,-55.615 41.113,-72.07 61.475,-72.07C81.885,-72.07 98.34,-55.615 98.34,-35.205C98.34,-14.844 81.885,1.611 61.523,1.611ZM57.08,-4.15C59.082,-4.15 60.303,-5.42 60.303,-7.666L60.303,-25.147C60.303,-26.074 60.742,-26.611 61.475,-26.611C62.109,-26.611 62.647,-26.074 62.647,-25.147L62.647,-7.666C62.647,-5.469 63.867,-4.15 65.82,-4.15C67.773,-4.15 69.043,-5.42 69.043,-7.666L69.043,-37.842C69.043,-38.721 69.482,-39.307 70.117,-39.307C70.752,-39.307 71.24,-38.721 71.24,-37.842L71.24,-26.318C71.24,-24.316 72.461,-23.096 74.17,-23.096C75.977,-23.096 77.148,-24.316 77.148,-26.318L77.148,-37.598C77.148,-45.557 72.754,-48.242 61.523,-48.242L57.715,-48.242C55.908,-48.242 55.078,-48.438 53.711,-49.561L50,-52.637L49.414,-61.377C49.268,-63.428 47.949,-64.6 46.143,-64.453C44.287,-64.404 43.066,-63.086 43.213,-60.986L43.848,-51.953C43.945,-50.147 44.824,-48.975 46.289,-47.754L52.783,-42.334C53.565,-41.699 53.955,-41.016 53.955,-39.99L53.955,-7.666C53.955,-5.469 55.225,-4.15 57.08,-4.15ZM61.523,-50.732C64.893,-50.732 67.676,-53.565 67.676,-56.787C67.676,-60.205 64.893,-62.988 61.523,-62.988C58.154,-62.988 55.469,-60.205 55.469,-56.787C55.469,-53.516 58.154,-50.732 61.523,-50.732Z" style="fill-rule:nonzero;"/>
        </g>
        <g id="Bold-M" transform="matrix(1,0,0,1,2279.5,1126)">
            <path d="M60.498,16.504C88.867,16.504 112.207,-6.836 112.207,-35.205C112.207,-63.623 88.867,-86.963 60.449,-86.963C32.031,-86.963 8.74,-63.623 8.74,-35.205C8.74,-6.836 32.08,16.504 60.498,16.504ZM60.498,3.223C39.16,3.223 22.07,-13.916 22.07,-35.205C22.07,-56.543 39.16,-73.682 60.449,-73.682C81.738,-73.682 98.926,-56.543 98.926,-35.205C98.975,-13.916 81.787,3.223 60.498,3.223ZM56.055,-3.467C57.959,-3.467 59.228,-4.688 59.228,-6.934L59.228,-25.293C59.228,-26.27 59.668,-26.807 60.449,-26.807C61.133,-26.807 61.621,-26.27 61.621,-25.293L61.621,-6.934C61.621,-4.736 62.891,-3.467 64.844,-3.467C66.748,-3.467 68.018,-4.688 68.018,-6.934L68.018,-38.77C68.018,-39.6 68.457,-40.186 69.141,-40.186C69.775,-40.186 70.215,-39.6 70.215,-38.77L70.215,-26.27C70.215,-24.268 71.436,-23.096 73.193,-23.096C74.951,-23.096 76.123,-24.268 76.123,-26.27L76.123,-38.33C76.123,-46.533 71.533,-49.121 60.498,-49.121L56.592,-49.121C54.688,-49.121 53.857,-49.365 52.441,-50.488L48.535,-53.516L47.9,-62.598C47.803,-64.697 46.484,-65.772 44.727,-65.674C42.92,-65.576 41.748,-64.307 41.846,-62.256L42.481,-52.978C42.627,-51.025 43.506,-49.853 44.922,-48.682L51.611,-43.359C52.49,-42.676 52.832,-41.992 52.832,-40.918L52.832,-6.934C52.832,-4.736 54.15,-3.467 56.055,-3.467ZM60.498,-51.758C63.916,-51.758 66.748,-54.59 66.748,-57.861C66.748,-61.328 63.916,-64.16 60.498,-64.16C57.08,-64.16 54.346,-61.328 54.346,-57.861C54.346,-54.59 57.08,-51.758 60.498,-51.758Z" style="fill-rule:nonzero;"/>
        </g>
        <g id="Semibold-M" transform="matrix(1,0,0,1,1983.5,1126)">
            <path d="M59.766,15.82C87.744,15.82 110.791,-7.275 110.791,-35.254C110.791,-63.232 87.695,-86.279 59.766,-86.279C31.787,-86.279 8.74,-63.232 8.74,-35.254C8.74,-7.275 31.787,15.82 59.766,15.82ZM59.766,4.346C37.842,4.346 20.264,-13.33 20.264,-35.254C20.264,-57.178 37.793,-74.805 59.766,-74.805C81.69,-74.805 99.316,-57.178 99.365,-35.254C99.365,-13.33 81.69,4.346 59.766,4.346ZM55.322,-2.979C57.227,-2.979 58.496,-4.199 58.496,-6.445L58.496,-25.391C58.496,-26.367 58.935,-26.953 59.766,-26.953C60.449,-26.953 60.889,-26.367 60.889,-25.391L60.889,-6.445C60.889,-4.199 62.256,-2.979 64.16,-2.979C66.065,-2.979 67.334,-4.199 67.334,-6.445L67.334,-39.356C67.334,-40.186 67.773,-40.723 68.457,-40.723C69.043,-40.723 69.531,-40.186 69.531,-39.356L69.531,-26.221C69.531,-24.219 70.752,-23.047 72.461,-23.047C74.219,-23.047 75.391,-24.219 75.391,-26.221L75.391,-38.818C75.391,-47.217 70.703,-49.756 59.815,-49.756L55.811,-49.756C53.857,-49.756 53.027,-50.049 51.563,-51.123L47.51,-54.15L46.875,-63.477C46.777,-65.527 45.459,-66.602 43.701,-66.504C41.943,-66.406 40.82,-65.186 40.918,-63.086L41.553,-53.662C41.65,-51.66 42.578,-50.44 43.994,-49.365L50.83,-44.043C51.709,-43.408 52.1,-42.627 52.1,-41.602L52.1,-6.445C52.1,-4.199 53.418,-2.979 55.322,-2.979ZM59.815,-52.441C63.232,-52.441 66.065,-55.322 66.065,-58.643C66.065,-62.109 63.232,-64.941 59.815,-64.941C56.348,-64.941 53.565,-62.109 53.565,-58.643C53.565,-55.322 56.348,-52.441 59.815,-52.441Z" style="fill-rule:nonzero;"/>
        </g>
        <g id="Medium-M" transform="matrix(1,0,0,1,1687.3,1126)">
            <path d="M59.228,15.234C86.914,15.234 109.766,-7.617 109.766,-35.254C109.766,-62.891 86.865,-85.742 59.18,-85.742C31.543,-85.742 8.74,-62.891 8.74,-35.254C8.74,-7.617 31.592,15.234 59.228,15.234ZM59.228,5.176C36.816,5.176 18.897,-12.842 18.897,-35.254C18.897,-57.666 36.816,-75.635 59.18,-75.635C81.592,-75.635 99.609,-57.666 99.658,-35.254C99.707,-12.842 81.641,5.176 59.228,5.176ZM54.736,-2.588C56.69,-2.588 57.959,-3.809 57.959,-6.055L57.959,-25.44C57.959,-26.465 58.398,-27.051 59.228,-27.051C59.912,-27.051 60.352,-26.465 60.352,-25.44L60.352,-6.055C60.352,-3.809 61.719,-2.588 63.623,-2.588C65.576,-2.588 66.797,-3.809 66.797,-6.055L66.797,-39.844C66.797,-40.674 67.285,-41.211 67.92,-41.211C68.555,-41.211 68.994,-40.674 68.994,-39.844L68.994,-26.221C68.994,-24.219 70.215,-23.047 71.973,-23.047C73.682,-23.047 74.854,-24.219 74.854,-26.221L74.854,-39.209C74.854,-47.754 70.068,-50.195 59.277,-50.195L55.225,-50.195C53.272,-50.195 52.344,-50.537 50.879,-51.611L46.728,-54.59L46.094,-64.111C45.996,-66.162 44.678,-67.236 42.969,-67.139C41.211,-66.992 40.088,-65.82 40.234,-63.721L40.82,-54.15C40.967,-52.148 41.895,-50.879 43.311,-49.853L50.244,-44.58C51.123,-43.897 51.514,-43.164 51.514,-42.09L51.514,-6.055C51.514,-3.809 52.881,-2.588 54.736,-2.588ZM59.277,-52.978C62.744,-52.978 65.576,-55.908 65.576,-59.228C65.576,-62.744 62.744,-65.576 59.277,-65.576C55.762,-65.576 52.978,-62.744 52.978,-59.228C52.978,-55.908 55.762,-52.978 59.277,-52.978Z" style="fill-rule:nonzero;"/>
        </g>
        <g id="Regular-M" transform="matrix(1,0,0,1,1391.3,1126)">
            <path d="M58.545,14.551C85.791,14.551 108.35,-8.057 108.35,-35.254C108.35,-62.5 85.742,-85.059 58.496,-85.059C31.299,-85.059 8.74,-62.5 8.74,-35.254C8.74,-8.057 31.348,14.551 58.545,14.551ZM58.545,6.25C35.498,6.25 17.09,-12.207 17.09,-35.254C17.09,-58.301 35.449,-76.758 58.496,-76.758C81.543,-76.758 100,-58.301 100.049,-35.254C100.098,-12.207 81.592,6.25 58.545,6.25ZM54.053,-2.1C55.908,-2.1 57.227,-3.271 57.227,-5.566L57.227,-25.537C57.227,-26.611 57.666,-27.148 58.496,-27.148C59.228,-27.148 59.668,-26.611 59.668,-25.537L59.668,-5.566C59.668,-3.271 61.084,-2.1 62.988,-2.1C64.844,-2.1 66.113,-3.271 66.113,-5.566L66.113,-40.43C66.113,-41.26 66.602,-41.748 67.236,-41.748C67.871,-41.748 68.262,-41.26 68.262,-40.43L68.262,-26.172C68.262,-24.17 69.531,-23.047 71.289,-23.047C72.949,-23.047 74.121,-24.17 74.121,-26.172L74.121,-39.697C74.121,-48.389 69.19,-50.83 58.545,-50.83L54.443,-50.83C52.441,-50.83 51.514,-51.172 50,-52.246L45.752,-55.225L45.117,-64.99C44.971,-67.041 43.701,-68.066 41.992,-67.92C40.283,-67.822 39.16,-66.65 39.307,-64.551L39.893,-54.834C40.039,-52.734 41.016,-51.465 42.383,-50.488L49.414,-45.313C50.391,-44.58 50.781,-43.799 50.781,-42.725L50.781,-5.566C50.781,-3.271 52.148,-2.1 54.053,-2.1ZM58.545,-53.662C62.06,-53.662 64.941,-56.592 64.941,-59.961C64.941,-63.525 62.06,-66.357 58.545,-66.357C54.981,-66.357 52.246,-63.525 52.246,-59.961C52.246,-56.592 54.981,-53.662 58.545,-53.662Z" style="fill-rule:nonzero;"/>
            <path d="M58.545,14.551C85.791,14.551 108.35,-8.057 108.35,-35.254C108.35,-62.5 85.742,-85.059 58.496,-85.059C31.299,-85.059 8.74,-62.5 8.74,-35.254C8.74,-8.057 31.348,14.551 58.545,14.551ZM58.496,-76.758C81.543,-76.758 100,-58.301 100.049,-35.254C100.098,-25.049 96.436,-15.723 90.381,-8.545L31.836,-67.09C39.014,-73.144 48.291,-76.758 58.496,-76.758ZM58.545,6.25C35.498,6.25 17.09,-12.207 17.09,-35.254C17.09,-45.41 20.654,-54.688 26.66,-61.914L85.205,-3.369C77.979,2.637 68.701,6.25 58.545,6.25Z" style="fill-rule:nonzero;"/>
        </g>
        <g id="Light-M" transform="matrix(1,0,0,1,1095.42,1126)">
            <path d="M57.715,13.721C84.522,13.721 106.689,-8.447 106.689,-35.254C106.689,-62.109 84.522,-84.229 57.666,-84.229C30.859,-84.229 8.74,-62.109 8.74,-35.254C8.74,-8.447 30.908,13.721 57.715,13.721ZM57.715,7.373C34.082,7.373 15.088,-11.67 15.088,-35.254C15.088,-58.887 34.082,-77.93 57.666,-77.93C81.299,-77.93 100.342,-58.887 100.391,-35.254C100.391,-11.67 81.348,7.373 57.715,7.373ZM53.516,-2.393C55.322,-2.393 56.445,-3.516 56.445,-5.615L56.445,-26.074C56.445,-27.051 56.885,-27.637 57.666,-27.637C58.398,-27.637 58.789,-27.1 58.789,-26.074L58.789,-5.615C58.789,-3.516 60.107,-2.393 61.914,-2.393C63.672,-2.393 64.844,-3.516 64.844,-5.615L64.844,-41.113C64.844,-41.943 65.283,-42.481 65.918,-42.481C66.553,-42.481 66.992,-41.992 66.992,-41.113L66.992,-26.318C66.992,-24.512 68.115,-23.438 69.727,-23.438C71.289,-23.438 72.363,-24.512 72.363,-26.318L72.363,-40.576C72.363,-48.779 67.92,-51.318 57.764,-51.318L53.76,-51.318C51.856,-51.318 51.074,-51.66 49.658,-52.637L45.459,-55.566L44.775,-65.234C44.678,-67.139 43.506,-68.115 41.943,-68.018C40.332,-67.92 39.307,-66.797 39.404,-64.893L40.039,-55.469C40.186,-53.467 41.016,-52.197 42.383,-51.221L49.17,-46.289C50.098,-45.654 50.44,-44.775 50.44,-43.652L50.44,-5.615C50.44,-3.516 51.758,-2.393 53.516,-2.393ZM57.764,-54.199C61.231,-54.199 64.014,-57.031 64.014,-60.352C64.014,-63.867 61.279,-66.602 57.764,-66.602C54.297,-66.602 51.563,-63.867 51.563,-60.352C51.563,-57.031 54.297,-54.199 57.764,-54.199Z" style="fill-rule:nonzero;"/>
        </g>
        <g id="Thin-M" transform="matrix(1,0,0,1,799.806,1126)">
            <path d="M56.641,12.598C82.91,12.598 104.492,-8.984 104.492,-35.254C104.492,-61.572 82.91,-83.154 56.592,-83.154C30.322,-83.154 8.74,-61.572 8.74,-35.254C8.74,-8.984 30.322,12.598 56.641,12.598ZM56.641,8.887C32.227,8.887 12.451,-10.889 12.451,-35.254C12.451,-59.619 32.227,-79.443 56.592,-79.443C81.006,-79.443 100.781,-59.619 100.781,-35.254C100.781,-10.889 81.006,8.887 56.641,8.887ZM52.832,-2.686C54.492,-2.686 55.469,-3.76 55.469,-5.615L55.469,-26.807C55.469,-27.686 55.908,-28.223 56.592,-28.223C57.275,-28.223 57.666,-27.734 57.666,-26.807L57.666,-5.615C57.666,-3.809 58.789,-2.686 60.498,-2.686C62.06,-2.686 63.135,-3.76 63.135,-5.615L63.135,-42.041C63.135,-42.871 63.574,-43.408 64.209,-43.408C64.844,-43.408 65.234,-42.92 65.234,-42.041L65.234,-26.563C65.234,-24.902 66.211,-23.926 67.725,-23.926C69.092,-23.926 70.019,-24.902 70.019,-26.563L70.019,-41.797C70.019,-49.316 66.211,-51.953 56.738,-51.953L52.881,-51.953C51.123,-51.953 50.488,-52.344 49.268,-53.223L45.117,-56.006L44.385,-65.625C44.238,-67.334 43.311,-68.262 41.846,-68.164C40.43,-68.066 39.502,-66.992 39.6,-65.332L40.234,-56.299C40.381,-54.443 41.065,-53.125 42.432,-52.197L48.828,-47.607C49.658,-47.022 50.049,-46.094 50.049,-44.873L50.049,-5.615C50.049,-3.809 51.172,-2.686 52.832,-2.686ZM56.738,-54.834C60.156,-54.834 62.842,-57.568 62.842,-60.889C62.842,-64.307 60.205,-66.992 56.738,-66.992C53.418,-66.992 50.684,-64.307 50.684,-60.889C50.684,-57.617 53.418,-54.834 56.738,-54.834Z" style="fill-rule:nonzero;"/>
        </g>
        <g id="Ultralight-M" transform="matrix(1,0,0,1,503.656,1126)">
            <path d="M56.055,12.06C82.08,12.06 103.369,-9.229 103.369,-35.254C103.369,-61.279 82.08,-82.568 56.055,-82.568C30.029,-82.568 8.74,-61.279 8.74,-35.254C8.74,-9.229 30.029,12.06 56.055,12.06ZM56.055,9.668C31.299,9.668 11.133,-10.498 11.133,-35.254C11.133,-60.059 31.299,-80.176 56.055,-80.176C80.859,-80.176 100.977,-60.059 100.977,-35.254C100.977,-10.498 80.859,9.668 56.055,9.668ZM52.49,-2.881C54.053,-2.881 54.981,-3.906 54.981,-5.664L54.981,-27.197C54.981,-27.979 55.42,-28.565 56.055,-28.565C56.738,-28.565 57.08,-28.076 57.08,-27.197L57.08,-5.664C57.08,-4.004 58.154,-2.881 59.766,-2.881C61.279,-2.881 62.256,-3.906 62.256,-5.664L62.256,-42.529C62.256,-43.359 62.695,-43.897 63.33,-43.897C64.014,-43.897 64.356,-43.408 64.356,-42.529L64.356,-26.66C64.356,-25.098 65.234,-24.17 66.65,-24.17C67.969,-24.17 68.848,-25.098 68.848,-26.66L68.848,-42.432C68.848,-49.561 65.283,-52.295 56.25,-52.295L52.441,-52.295C50.781,-52.295 50.195,-52.686 49.023,-53.467L44.922,-56.201L44.19,-65.82C44.043,-67.432 43.164,-68.311 41.797,-68.213C40.43,-68.115 39.6,-67.139 39.697,-65.576L40.332,-56.738C40.478,-54.932 41.065,-53.613 42.432,-52.686L48.682,-48.291C49.463,-47.705 49.853,-46.777 49.853,-45.557L49.853,-5.664C49.853,-4.004 50.879,-2.881 52.49,-2.881ZM56.25,-55.176C59.619,-55.176 62.207,-57.861 62.207,-61.133C62.207,-64.502 59.668,-67.188 56.25,-67.188C52.93,-67.188 50.244,-64.502 50.244,-61.133C50.244,-57.91 52.93,-55.176 56.25,-55.176Z" style="fill-rule:nonzero;"/>
        </g>
        <g id="Black-S" transform="matrix(1,0,0,1,2884.57,696)">
            <path d="M48.828,6.787C71.973,6.787 90.82,-12.06 90.82,-35.205C90.82,-58.35 71.973,-77.197 48.828,-77.197C25.684,-77.197 6.836,-58.35 6.836,-35.205C6.836,-12.06 25.684,6.787 48.828,6.787ZM48.828,-7.373C33.447,-7.373 20.996,-19.824 20.996,-35.205C20.996,-50.586 33.447,-63.037 48.828,-63.037C64.209,-63.037 76.66,-50.586 76.66,-35.205C76.66,-19.824 64.209,-7.373 48.828,-7.373ZM45.41,-11.328C46.973,-11.328 47.949,-12.354 47.949,-14.111L47.949,-27.246C47.949,-27.93 48.291,-28.369 48.828,-28.369C49.316,-28.369 49.756,-27.93 49.756,-27.246L49.756,-14.111C49.756,-12.402 50.684,-11.328 52.197,-11.328C53.76,-11.328 54.736,-12.354 54.736,-14.111L54.736,-36.719C54.736,-37.402 55.078,-37.891 55.615,-37.891C56.103,-37.891 56.494,-37.402 56.494,-36.719L56.494,-28.272C56.494,-26.709 57.422,-25.732 58.789,-25.732C60.205,-25.732 61.133,-26.709 61.133,-28.272L61.133,-36.621C61.133,-42.676 57.813,-44.873 48.877,-44.873L45.947,-44.873C44.58,-44.873 43.945,-44.971 42.92,-45.85L40.088,-48.291L39.648,-54.932C39.551,-56.543 38.477,-57.471 37.061,-57.373C35.596,-57.324 34.619,-56.25 34.717,-54.639L35.205,-47.705C35.303,-46.338 35.938,-45.459 37.109,-44.434L42.09,-40.137C42.676,-39.648 42.969,-39.16 42.969,-38.379L42.969,-14.111C42.969,-12.402 43.945,-11.328 45.41,-11.328ZM48.877,-46.728C51.465,-46.728 53.662,-48.926 53.662,-51.416C53.662,-54.053 51.465,-56.25 48.877,-56.25C46.289,-56.25 44.19,-54.053 44.19,-51.416C44.19,-48.877 46.289,-46.728 48.877,-46.728Z" style="fill-rule:nonzero;"/>
        </g>
        <g id="Heavy-S" transform="matrix(1,0,0,1,2588.47,696)">
            <path d="M48.242,6.152C70.996,6.152 89.6,-12.451 89.6,-35.205C89.6,-57.959 70.996,-76.611 48.193,-76.611C25.44,-76.611 6.836,-57.959 6.836,-35.205C6.836,-12.451 25.44,6.152 48.242,6.152ZM48.242,-6.396C32.275,-6.396 19.434,-19.287 19.434,-35.205C19.434,-51.172 32.275,-64.014 48.193,-64.014C64.16,-64.014 77.002,-51.172 77.051,-35.205C77.051,-19.287 64.16,-6.396 48.242,-6.396ZM44.775,-10.84C46.289,-10.84 47.315,-11.816 47.315,-13.623L47.315,-27.295C47.315,-28.027 47.656,-28.467 48.242,-28.467C48.731,-28.467 49.17,-28.027 49.17,-27.295L49.17,-13.623C49.17,-11.865 50.147,-10.84 51.66,-10.84C53.223,-10.84 54.199,-11.816 54.199,-13.623L54.199,-37.256C54.199,-37.94 54.541,-38.379 55.078,-38.379C55.566,-38.379 55.957,-37.94 55.957,-37.256L55.957,-28.223C55.957,-26.66 56.885,-25.684 58.301,-25.684C59.668,-25.684 60.645,-26.66 60.645,-28.223L60.645,-37.012C60.645,-43.311 57.129,-45.41 48.291,-45.41L45.264,-45.41C43.848,-45.41 43.164,-45.557 42.09,-46.436L39.111,-48.877L38.672,-55.762C38.574,-57.373 37.5,-58.301 36.084,-58.203C34.668,-58.106 33.691,-57.08 33.789,-55.469L34.277,-48.34C34.375,-46.875 35.059,-45.947 36.182,-45.02L41.357,-40.723C41.992,-40.234 42.285,-39.697 42.285,-38.916L42.285,-13.623C42.285,-11.865 43.262,-10.84 44.775,-10.84ZM48.291,-47.363C50.879,-47.363 53.125,-49.609 53.125,-52.1C53.125,-54.785 50.879,-57.031 48.291,-57.031C45.606,-57.031 43.506,-54.785 43.506,-52.1C43.506,-49.561 45.606,-47.363 48.291,-47.363Z" style="fill-rule:nonzero;"/>
        </g>
        <g id="Bold-S" transform="matrix(1,0,0,1,2292.44,696)">
            <path d="M47.559,5.469C69.873,5.469 88.232,-12.891 88.232,-35.254C88.232,-57.568 69.873,-75.928 47.51,-75.928C25.195,-75.928 6.836,-57.568 6.836,-35.254C6.836,-12.891 25.195,5.469 47.559,5.469ZM47.559,-5.322C30.957,-5.322 17.676,-18.652 17.676,-35.254C17.676,-51.807 30.957,-65.137 47.51,-65.137C64.111,-65.137 77.441,-51.807 77.441,-35.254C77.441,-18.652 64.111,-5.322 47.559,-5.322ZM43.994,-10.254C45.557,-10.254 46.582,-11.23 46.582,-13.037L46.582,-27.295C46.582,-28.076 46.924,-28.516 47.559,-28.516C48.096,-28.516 48.486,-28.076 48.486,-27.295L48.486,-13.037C48.486,-11.23 49.512,-10.254 51.025,-10.254C52.588,-10.254 53.613,-11.23 53.613,-13.037L53.613,-37.842C53.613,-38.525 53.955,-38.965 54.492,-38.965C54.981,-38.965 55.322,-38.525 55.322,-37.842L55.322,-28.174C55.322,-26.563 56.299,-25.635 57.715,-25.635C59.082,-25.635 60.059,-26.563 60.059,-28.174L60.059,-37.451C60.059,-44.043 56.348,-46.045 47.559,-46.045L44.482,-46.045C42.969,-46.045 42.285,-46.24 41.162,-47.119L38.037,-49.512L37.598,-56.641C37.5,-58.301 36.426,-59.18 35.01,-59.082C33.594,-59.033 32.617,-58.008 32.715,-56.348L33.203,-49.023C33.301,-47.461 34.033,-46.533 35.156,-45.654L40.478,-41.406C41.162,-40.869 41.455,-40.332 41.455,-39.502L41.455,-13.037C41.455,-11.23 42.529,-10.254 43.994,-10.254ZM47.559,-48.096C50.244,-48.096 52.49,-50.342 52.49,-52.93C52.49,-55.664 50.244,-57.861 47.559,-57.861C44.873,-57.861 42.725,-55.664 42.725,-52.93C42.725,-50.342 44.873,-48.096 47.559,-48.096Z" style="fill-rule:nonzero;"/>
        </g>
        <g id="Semibold-S" transform="matrix(1,0,0,1,1996.2,696)">
            <path d="M47.07,4.98C69.092,4.98 87.305,-13.184 87.305,-35.254C87.305,-57.275 69.092,-75.488 47.022,-75.488C25,-75.488 6.836,-57.275 6.836,-35.254C6.836,-13.184 25.049,4.98 47.07,4.98ZM47.07,-4.59C30.078,-4.59 16.455,-18.213 16.455,-35.254C16.455,-52.246 30.029,-65.869 47.022,-65.869C64.063,-65.869 77.686,-52.246 77.734,-35.254C77.734,-18.213 64.063,-4.59 47.07,-4.59ZM43.506,-9.863C45.068,-9.863 46.094,-10.791 46.094,-12.647L46.094,-27.344C46.094,-28.125 46.436,-28.565 47.07,-28.565C47.656,-28.565 47.998,-28.125 47.998,-27.344L47.998,-12.647C47.998,-10.84 49.072,-9.863 50.635,-9.863C52.197,-9.863 53.174,-10.791 53.174,-12.647L53.174,-38.281C53.174,-38.916 53.565,-39.356 54.053,-39.356C54.541,-39.356 54.883,-38.916 54.883,-38.281L54.883,-28.125C54.883,-26.514 55.908,-25.586 57.324,-25.586C58.691,-25.586 59.668,-26.514 59.668,-28.125L59.668,-37.744C59.668,-44.531 55.811,-46.436 47.119,-46.436L43.945,-46.436C42.383,-46.436 41.65,-46.68 40.478,-47.559L37.305,-49.951L36.816,-57.275C36.719,-58.935 35.645,-59.815 34.277,-59.717C32.861,-59.619 31.934,-58.643 32.031,-56.982L32.52,-49.463C32.617,-47.9 33.35,-46.924 34.473,-46.094L39.893,-41.846C40.625,-41.309 40.918,-40.723 40.918,-39.893L40.918,-12.647C40.918,-10.84 41.992,-9.863 43.506,-9.863ZM47.119,-48.584C49.805,-48.584 52.051,-50.879 52.051,-53.467C52.051,-56.201 49.805,-58.447 47.119,-58.447C44.336,-58.447 42.188,-56.201 42.188,-53.467C42.188,-50.83 44.336,-48.584 47.119,-48.584Z" style="fill-rule:nonzero;"/>
        </g>
        <g id="Medium-S" transform="matrix(1,0,0,1,1699.83,696)">
            <path d="M46.728,4.639C68.555,4.639 86.621,-13.428 86.621,-35.254C86.621,-57.08 68.506,-75.147 46.68,-75.147C24.854,-75.147 6.836,-57.08 6.836,-35.254C6.836,-13.428 24.902,4.639 46.728,4.639ZM46.728,-4.004C29.395,-4.004 15.527,-17.92 15.527,-35.254C15.527,-52.588 29.346,-66.455 46.68,-66.455C64.014,-66.455 77.881,-52.588 77.93,-35.254C77.979,-17.92 64.063,-4.004 46.728,-4.004ZM43.115,-9.57C44.678,-9.57 45.703,-10.498 45.703,-12.354L45.703,-27.344C45.703,-28.174 46.045,-28.613 46.728,-28.613C47.315,-28.613 47.656,-28.174 47.656,-27.344L47.656,-12.354C47.656,-10.498 48.779,-9.57 50.293,-9.57C51.856,-9.57 52.881,-10.498 52.881,-12.354L52.881,-38.574C52.881,-39.209 53.223,-39.6 53.711,-39.6C54.248,-39.6 54.59,-39.209 54.59,-38.574L54.59,-28.076C54.59,-26.465 55.615,-25.537 56.982,-25.537C58.398,-25.537 59.375,-26.465 59.375,-28.076L59.375,-37.988C59.375,-44.873 55.42,-46.777 46.728,-46.777L43.555,-46.777C41.943,-46.777 41.211,-47.022 39.99,-47.9L36.719,-50.293L36.231,-57.764C36.133,-59.424 35.107,-60.303 33.691,-60.205C32.275,-60.107 31.348,-59.131 31.445,-57.422L31.934,-49.805C32.031,-48.193 32.813,-47.217 33.936,-46.387L39.453,-42.188C40.186,-41.602 40.478,-41.065 40.478,-40.234L40.478,-12.354C40.478,-10.498 41.602,-9.57 43.115,-9.57ZM46.728,-48.975C49.463,-48.975 51.758,-51.27 51.758,-53.857C51.758,-56.641 49.463,-58.887 46.728,-58.887C43.945,-58.887 41.797,-56.641 41.797,-53.857C41.797,-51.27 43.945,-48.975 46.728,-48.975Z" style="fill-rule:nonzero;"/>
        </g>
        <g id="Regular-S" transform="matrix(1,0,0,1,1403.58,696)">
            <path d="M46.24,4.15C67.773,4.15 85.693,-13.721 85.693,-35.254C85.693,-56.787 67.725,-74.658 46.191,-74.658C24.707,-74.658 6.836,-56.787 6.836,-35.254C6.836,-13.721 24.756,4.15 46.24,4.15ZM46.24,-3.271C28.516,-3.271 14.355,-17.481 14.355,-35.254C14.355,-53.027 28.467,-67.236 46.191,-67.236C63.965,-67.236 78.174,-53.027 78.223,-35.254C78.272,-17.481 64.014,-3.271 46.24,-3.271ZM42.627,-9.18C44.141,-9.18 45.215,-10.107 45.215,-11.963L45.215,-27.393C45.215,-28.223 45.557,-28.662 46.289,-28.662C46.826,-28.662 47.168,-28.272 47.168,-27.393L47.168,-11.963C47.168,-10.107 48.34,-9.18 49.902,-9.18C51.416,-9.18 52.441,-10.107 52.441,-11.963L52.441,-38.965C52.441,-39.6 52.832,-39.99 53.32,-39.99C53.809,-39.99 54.15,-39.6 54.15,-38.965L54.15,-28.076C54.15,-26.416 55.225,-25.488 56.592,-25.488C58.008,-25.488 58.984,-26.416 58.984,-28.076L58.984,-38.281C58.984,-45.361 54.883,-47.217 46.289,-47.217L43.018,-47.217C41.357,-47.217 40.625,-47.51 39.356,-48.34L35.986,-50.732L35.498,-58.398C35.4,-60.059 34.375,-60.889 32.959,-60.791C31.543,-60.693 30.664,-59.766 30.762,-58.057L31.25,-50.293C31.348,-48.584 32.129,-47.607 33.203,-46.826L38.867,-42.627C39.648,-42.041 39.941,-41.455 39.941,-40.625L39.941,-11.963C39.941,-10.107 41.113,-9.18 42.627,-9.18ZM46.289,-49.463C49.072,-49.463 51.318,-51.758 51.318,-54.395C51.318,-57.227 49.072,-59.473 46.289,-59.473C43.457,-59.473 41.26,-57.227 41.26,-54.395C41.26,-51.758 43.457,-49.463 46.289,-49.463Z" style="fill-rule:nonzero;"/>
        </g>
        <g id="Light-S" transform="matrix(1,0,0,1,1107.6,696)">
            <path d="M45.508,3.418C66.699,3.418 84.229,-14.063 84.229,-35.254C84.229,-56.445 66.65,-73.926 45.508,-73.926C24.316,-73.926 6.836,-56.445 6.836,-35.254C6.836,-14.063 24.365,3.418 45.508,3.418ZM45.508,-2.295C27.246,-2.295 12.598,-16.992 12.598,-35.254C12.598,-53.516 27.197,-68.213 45.508,-68.213C63.77,-68.213 78.467,-53.516 78.516,-35.254C78.516,-16.992 63.818,-2.295 45.508,-2.295ZM42.139,-9.375C43.603,-9.375 44.531,-10.303 44.531,-12.012L44.531,-27.881C44.531,-28.662 44.873,-29.102 45.508,-29.102C46.094,-29.102 46.436,-28.662 46.436,-27.881L46.436,-12.012C46.436,-10.303 47.461,-9.375 48.926,-9.375C50.342,-9.375 51.318,-10.303 51.318,-12.012L51.318,-39.6C51.318,-40.234 51.66,-40.625 52.148,-40.625C52.686,-40.625 52.978,-40.234 52.978,-39.6L52.978,-28.223C52.978,-26.709 53.906,-25.83 55.225,-25.83C56.494,-25.83 57.373,-26.709 57.373,-28.223L57.373,-39.063C57.373,-45.703 53.711,-47.656 45.606,-47.656L42.432,-47.656C40.869,-47.656 40.234,-47.949 39.063,-48.731L35.742,-51.025L35.205,-58.643C35.107,-60.205 34.18,-60.986 32.91,-60.889C31.592,-60.791 30.762,-59.912 30.859,-58.35L31.348,-50.83C31.445,-49.268 32.129,-48.242 33.203,-47.51L38.623,-43.506C39.356,-42.969 39.648,-42.334 39.648,-41.455L39.648,-12.012C39.648,-10.303 40.723,-9.375 42.139,-9.375ZM45.606,-49.902C48.291,-49.902 50.537,-52.148 50.537,-54.736C50.537,-57.52 48.34,-59.717 45.606,-59.717C42.822,-59.717 40.674,-57.52 40.674,-54.736C40.674,-52.148 42.822,-49.902 45.606,-49.902Z" style="fill-rule:nonzero;"/>
        </g>
        <g id="Thin-S" transform="matrix(1,0,0,1,811.867,696)">
            <path d="M44.58,2.49C65.283,2.49 82.275,-14.551 82.275,-35.254C82.275,-55.957 65.234,-72.998 44.531,-72.998C23.828,-72.998 6.836,-55.957 6.836,-35.254C6.836,-14.551 23.877,2.49 44.58,2.49ZM44.58,-0.928C25.586,-0.928 10.254,-16.309 10.254,-35.254C10.254,-54.199 25.586,-69.58 44.531,-69.58C63.525,-69.58 78.857,-54.199 78.857,-35.254C78.857,-16.309 63.525,-0.928 44.58,-0.928ZM41.553,-9.668C42.871,-9.668 43.652,-10.547 43.652,-12.012L43.652,-28.516C43.652,-29.199 43.994,-29.639 44.58,-29.639C45.117,-29.639 45.41,-29.248 45.41,-28.516L45.41,-12.012C45.41,-10.547 46.338,-9.668 47.656,-9.668C48.926,-9.668 49.805,-10.547 49.805,-12.012L49.805,-40.381C49.805,-41.016 50.147,-41.455 50.635,-41.455C51.172,-41.455 51.465,-41.065 51.465,-40.381L51.465,-28.369C51.465,-27.051 52.246,-26.27 53.418,-26.27C54.541,-26.27 55.322,-27.051 55.322,-28.369L55.322,-40.137C55.322,-46.143 52.197,-48.193 44.678,-48.193L41.602,-48.193C40.234,-48.193 39.697,-48.486 38.672,-49.219L35.4,-51.416L34.863,-58.984C34.766,-60.352 33.984,-61.084 32.813,-60.986C31.641,-60.889 30.908,-60.107 31.006,-58.74L31.494,-51.563C31.592,-50.098 32.178,-49.072 33.252,-48.34L38.33,-44.678C39.014,-44.19 39.307,-43.506 39.307,-42.578L39.307,-12.012C39.307,-10.547 40.234,-9.668 41.553,-9.668ZM44.678,-50.44C47.363,-50.44 49.463,-52.637 49.463,-55.225C49.463,-57.91 47.363,-60.059 44.678,-60.059C42.041,-60.059 39.893,-57.91 39.893,-55.225C39.893,-52.637 42.041,-50.44 44.678,-50.44Z" style="fill-rule:nonzero;"/>
        </g>
        <g id="Ultralight-S" transform="matrix(1,0,0,1,515.644,696)">
            <path d="M44.043,1.953C64.502,1.953 81.299,-14.795 81.299,-35.254C81.299,-55.713 64.502,-72.461 44.043,-72.461C23.584,-72.461 6.836,-55.713 6.836,-35.254C6.836,-14.795 23.584,1.953 44.043,1.953ZM44.043,-0.244C24.756,-0.244 9.082,-15.967 9.082,-35.254C9.082,-54.541 24.756,-70.264 44.043,-70.264C63.379,-70.264 79.053,-54.541 79.053,-35.254C79.053,-15.967 63.379,-0.244 44.043,-0.244ZM41.211,-9.814C42.481,-9.814 43.213,-10.645 43.213,-12.06L43.213,-28.809C43.213,-29.492 43.555,-29.932 44.043,-29.932C44.58,-29.932 44.873,-29.541 44.873,-28.809L44.873,-12.06C44.873,-10.693 45.752,-9.814 47.022,-9.814C48.193,-9.814 49.023,-10.645 49.023,-12.06L49.023,-40.82C49.023,-41.455 49.365,-41.895 49.853,-41.895C50.391,-41.895 50.684,-41.504 50.684,-40.82L50.684,-28.516C50.684,-27.246 51.367,-26.514 52.49,-26.514C53.565,-26.514 54.248,-27.246 54.248,-28.516L54.248,-40.674C54.248,-46.387 51.416,-48.535 44.19,-48.535L41.211,-48.535C39.893,-48.535 39.404,-48.828 38.477,-49.463L35.254,-51.611L34.668,-59.131C34.57,-60.449 33.887,-61.133 32.764,-61.084C31.69,-60.986 31.006,-60.205 31.104,-58.935L31.592,-51.953C31.69,-50.537 32.178,-49.512 33.252,-48.779L38.184,-45.264C38.818,-44.824 39.111,-44.092 39.111,-43.115L39.111,-12.06C39.111,-10.693 39.941,-9.814 41.211,-9.814ZM44.19,-50.781C46.826,-50.781 48.926,-52.881 48.926,-55.469C48.926,-58.106 46.875,-60.205 44.19,-60.205C41.602,-60.205 39.502,-58.106 39.502,-55.469C39.502,-52.93 41.602,-50.781 44.19,-50.781Z" style="fill-rule:nonzero;"/>
        </g>
    </g>
</svg>
