<?xml version="1.0" encoding="UTF-8" standalone="no"?>
<!DOCTYPE svg PUBLIC "-//W3C//DTD SVG 1.1//EN" "http://www.w3.org/Graphics/SVG/1.1/DTD/svg11.dtd">
<svg width="100%" height="100%" viewBox="0 0 3300 2200" version="1.1" xmlns="http://www.w3.org/2000/svg" xmlns:xlink="http://www.w3.org/1999/xlink" xml:space="preserve" xmlns:serif="http://www.serif.com/" style="fill-rule:evenodd;clip-rule:evenodd;">
    <g id="Notes">
        <g id="artboard" transform="matrix(1,0,0,1,-0.968506,-48.2416)">
            <rect x="0" y="0" width="3300" height="2200" style="fill:white;"/>
        </g>
        <path d="M263,292L3036,292" style="fill:none;fill-rule:nonzero;stroke:black;stroke-width:0.5px;"/>
        <g transform="matrix(1,0,0,1,263,322)">
            <text x="0px" y="0px" style="font-family:'SFProDisplay-Regular', 'SF Pro Display';font-size:16px;">W<tspan x="13.922px " y="0px ">e</tspan>ight/Scale V<tspan x="101.313px " y="0px ">a</tspan>riations</text>
        </g>
        <g transform="matrix(1,0,0,1,559.711,322)">
            <text x="-30.41px" y="0px" style="font-family:'SFProDisplay-Regular', 'SF Pro Display';font-size:16px;">Ultr<tspan x="-6.41px " y="0px ">a</tspan>light</text>
        </g>
        <g transform="matrix(1,0,0,1,856.422,322)">
            <text x="-14.824px" y="0px" style="font-family:'SFProDisplay-Regular', 'SF Pro Display';font-size:16px;">Thin</text>
        </g>
        <g transform="matrix(1,0,0,1,1153.13,322)">
            <text x="-16.957px" y="0px" style="font-family:'SFProDisplay-Regular', 'SF Pro Display';font-size:16px;">Light</text>
        </g>
        <g transform="matrix(1,0,0,1,1449.84,322)">
            <text x="-25.609px" y="0px" style="font-family:'SFProDisplay-Regular', 'SF Pro Display';font-size:16px;">Regular</text>
        </g>
        <g transform="matrix(1,0,0,1,1746.56,322)">
            <text x="-27.465px" y="0px" style="font-family:'SFProDisplay-Regular', 'SF Pro Display';font-size:16px;">Medium</text>
        </g>
        <g transform="matrix(1,0,0,1,2043.27,322)">
            <text x="-31.656px" y="0px" style="font-family:'SFProDisplay-Regular', 'SF Pro Display';font-size:16px;">Semibold</text>
        </g>
        <g transform="matrix(1,0,0,1,2339.98,322)">
            <text x="-15.145px" y="0px" style="font-family:'SFProDisplay-Regular', 'SF Pro Display';font-size:16px;">Bold</text>
        </g>
        <g transform="matrix(1,0,0,1,2636.69,322)">
            <text x="-21.461px" y="0px" style="font-family:'SFProDisplay-Regular', 'SF Pro Display';font-size:16px;">Heavy</text>
        </g>
        <g transform="matrix(1,0,0,1,2933.4,322)">
            <text x="-18.375px" y="0px" style="font-family:'SFProDisplay-Regular', 'SF Pro Display';font-size:16px;">Black</text>
        </g>
        <path d="M263,1903L3036,1903" style="fill:none;fill-rule:nonzero;stroke:black;stroke-width:0.5px;"/>
        <g transform="matrix(1,0,0,1,263,1933)">
            <path d="M9.248,0.83C13.555,0.83 17.139,-2.744 17.139,-7.051C17.139,-11.357 13.545,-14.932 9.238,-14.932C4.941,-14.932 1.367,-11.357 1.367,-7.051C1.367,-2.744 4.951,0.83 9.248,0.83ZM9.248,-0.654C5.703,-0.654 2.871,-3.496 2.871,-7.051C2.871,-10.605 5.693,-13.447 9.238,-13.447C12.793,-13.447 15.635,-10.605 15.645,-7.051C15.654,-3.496 12.803,-0.654 9.248,-0.654ZM6.396,-6.318L8.506,-6.318L8.506,-4.199C8.506,-3.76 8.799,-3.457 9.229,-3.457C9.678,-3.457 9.971,-3.76 9.971,-4.199L9.971,-6.318L12.1,-6.318C12.539,-6.318 12.842,-6.611 12.842,-7.041C12.842,-7.48 12.539,-7.783 12.1,-7.783L9.971,-7.783L9.971,-9.893C9.971,-10.342 9.678,-10.645 9.229,-10.645C8.799,-10.645 8.506,-10.342 8.506,-9.893L8.506,-7.783L6.396,-7.783C5.947,-7.783 5.645,-7.48 5.645,-7.041C5.645,-6.611 5.947,-6.318 6.396,-6.318Z" style="fill-rule:nonzero;"/>
        </g>
        <g transform="matrix(1,0,0,1,281.506,1933)">
            <path d="M11.709,2.91C17.158,2.91 21.67,-1.611 21.67,-7.051C21.67,-12.5 17.148,-17.012 11.699,-17.012C6.26,-17.012 1.748,-12.5 1.748,-7.051C1.748,-1.611 6.27,2.91 11.709,2.91ZM11.709,1.25C7.1,1.25 3.418,-2.441 3.418,-7.051C3.418,-11.66 7.09,-15.352 11.699,-15.352C16.309,-15.352 20,-11.66 20.01,-7.051C20.02,-2.441 16.318,1.25 11.709,1.25ZM7.988,-6.23L10.879,-6.23L10.879,-3.32C10.879,-2.832 11.211,-2.5 11.69,-2.5C12.178,-2.5 12.52,-2.832 12.52,-3.32L12.52,-6.23L15.43,-6.23C15.918,-6.23 16.25,-6.563 16.25,-7.041C16.25,-7.529 15.918,-7.871 15.43,-7.871L12.52,-7.871L12.52,-10.762C12.52,-11.27 12.178,-11.602 11.69,-11.602C11.211,-11.602 10.879,-11.26 10.879,-10.762L10.879,-7.871L7.988,-7.871C7.48,-7.871 7.148,-7.529 7.148,-7.041C7.148,-6.563 7.49,-6.23 7.988,-6.23Z" style="fill-rule:nonzero;"/>
        </g>
        <g transform="matrix(1,0,0,1,304.924,1933)">
            <path d="M14.971,5.664C21.934,5.664 27.695,-0.098 27.695,-7.051C27.695,-14.014 21.924,-19.775 14.961,-19.775C8.008,-19.775 2.256,-14.014 2.256,-7.051C2.256,-0.098 8.018,5.664 14.971,5.664ZM14.971,3.848C8.936,3.848 4.082,-1.016 4.082,-7.051C4.082,-13.096 8.926,-17.949 14.961,-17.949C21.006,-17.949 25.859,-13.096 25.869,-7.051C25.879,-1.016 21.016,3.848 14.971,3.848ZM10.059,-6.143L14.063,-6.143L14.063,-2.129C14.063,-1.592 14.434,-1.221 14.951,-1.221C15.488,-1.221 15.859,-1.592 15.859,-2.129L15.859,-6.143L19.883,-6.143C20.41,-6.143 20.791,-6.514 20.791,-7.031C20.791,-7.568 20.42,-7.949 19.883,-7.949L15.859,-7.949L15.859,-11.953C15.859,-12.51 15.488,-12.881 14.951,-12.881C14.434,-12.881 14.063,-12.5 14.063,-11.953L14.063,-7.949L10.059,-7.949C9.502,-7.949 9.131,-7.568 9.131,-7.031C9.131,-6.514 9.512,-6.143 10.059,-6.143Z" style="fill-rule:nonzero;"/>
        </g>
        <g transform="matrix(1,0,0,1,263,1953)">
            <text x="0px" y="0px" style="font-family:'SFProDisplay-Regular', 'SF Pro Display';font-size:16px;">Design V<tspan x="59.211px " y="0px ">a</tspan>riations</text>
        </g>
        <g transform="matrix(1,0,0,1,263,1971)">
            <text x="0px" y="0px" style="font-family:'SFProDisplay-Regular', 'SF Pro Display';font-size:16px;">Symbols ar<tspan x="74.039px " y="0px ">e</tspan> support<tspan x="136.977px " y="0px ">e</tspan>d in up t<tspan x="197.406px " y="0px ">o</tspan> nine weights and thr<tspan x="343.289px " y="0px ">e</tspan>e scales.</text>
        </g>
        <g transform="matrix(1,0,0,1,263,1989)">
            <text x="0px" y="0px" style="font-family:'SFProDisplay-Regular', 'SF Pro Display';font-size:16px;">F<tspan x="8.133px " y="0px ">o</tspan>r optimal lay<tspan x="96.43px " y="0px ">o</tspan>ut with t<tspan x="157.508px 165.547px " y="0px 0px ">ex</tspan>t and other symbols,<tspan x="306.883px 310.164px 317.578px " y="0px 0px 0px "> ve</tspan>rtically align</text>
        </g>
        <g transform="matrix(1,0,0,1,263,2007)">
            <text x="0px" y="0px" style="font-family:'SFProDisplay-Regular', 'SF Pro Display';font-size:16px;">symbols with the adjacent t<tspan x="181.344px 189.383px " y="0px 0px ">ex</tspan>t.</text>
        </g>
        <path d="M776,1919L776,1933" style="fill:none;fill-rule:nonzero;stroke:rgb(0,174,239);stroke-width:0.5px;"/>
        <g transform="matrix(1,0,0,1,776,1933)">
            <path d="M3.311,0.127C3.828,0.127 4.082,-0.068 4.268,-0.605L5.527,-4.063L11.289,-4.063L12.549,-0.605C12.734,-0.068 12.988,0.127 13.496,0.127C14.014,0.127 14.346,-0.186 14.346,-0.674C14.346,-0.84 14.316,-0.986 14.238,-1.201L9.658,-13.389C9.434,-13.994 9.033,-14.287 8.408,-14.287C7.803,-14.287 7.393,-13.994 7.178,-13.398L2.598,-1.191C2.52,-0.977 2.49,-0.83 2.49,-0.664C2.49,-0.176 2.803,0.127 3.311,0.127ZM6.006,-5.537L8.379,-12.109L8.428,-12.109L10.801,-5.537L6.006,-5.537Z" style="fill-rule:nonzero;"/>
        </g>
        <path d="M792.836,1919L792.836,1933" style="fill:none;fill-rule:nonzero;stroke:rgb(0,174,239);stroke-width:0.5px;"/>
        <g transform="matrix(1,0,0,1,776,1953)">
            <text x="0px" y="0px" style="font-family:'SFProDisplay-Regular', 'SF Pro Display';font-size:16px;">M<tspan x="13.063px 21.094px 25.633px " y="0px 0px 0px ">arg</tspan>ins</text>
        </g>
        <g transform="matrix(1,0,0,1,776,1971)">
            <text x="0px" y="0px" style="font-family:'SFProDisplay-Regular', 'SF Pro Display';font-size:16px;">L<tspan x="8.156px " y="0px ">e</tspan>ading and tr<tspan x="95.227px " y="0px ">a</tspan>iling mar<tspan x="159.031px " y="0px ">g</tspan>ins on the left and right side of each symbol</text>
        </g>
        <g transform="matrix(1,0,0,1,776,1989)">
            <text x="0px" y="0px" style="font-family:'SFProDisplay-Regular', 'SF Pro Display';font-size:16px;">can be adjust<tspan x="88.727px " y="0px ">e</tspan>d b<tspan x="117.609px " y="0px ">y</tspan> modifying the x<tspan x="230.703px " y="0px ">-</tspan>location of the mar<tspan x="360.664px " y="0px ">g</tspan>in guidelines.</text>
        </g>
        <g transform="matrix(1,0,0,1,776,2007)">
            <text x="0px" y="0px" style="font-family:'SFProDisplay-Regular', 'SF Pro Display';font-size:16px;">Modifications ar<tspan x="106.484px " y="0px ">e</tspan> aut<tspan x="139.008px " y="0px ">o</tspan>matically applied pr<tspan x="275.977px " y="0px ">o</tspan>portionally t<tspan x="361.93px " y="0px ">o</tspan> all</text>
        </g>
        <g transform="matrix(1,0,0,1,776,2025)">
            <text x="0px" y="0px" style="font-family:'SFProDisplay-Regular', 'SF Pro Display';font-size:16px;">scales and weights.</text>
        </g>
        <g transform="matrix(1,0,0,1,1289,1933)">
            <path d="M2.842,1.865L4.541,3.574C5.4,4.443 6.387,4.385 7.314,3.359L17.49,-7.852C17.754,-7.764 18.027,-7.783 18.34,-7.842L19.404,-8.037L20.068,-7.363L20.029,-6.807C19.99,-6.309 20.117,-5.928 20.606,-5.449L21.367,-4.707C21.846,-4.229 22.461,-4.199 22.93,-4.668L25.84,-7.588C26.309,-8.057 26.289,-8.652 25.811,-9.131L25.039,-9.893C24.561,-10.371 24.19,-10.527 23.711,-10.488L23.135,-10.44L22.49,-11.074L22.734,-12.197C22.861,-12.764 22.705,-13.203 22.119,-13.789L19.922,-15.977C16.582,-19.297 12.148,-19.219 9.258,-16.328C8.838,-15.918 8.809,-15.342 9.043,-14.951C9.277,-14.59 9.736,-14.355 10.381,-14.522C11.846,-14.863 13.369,-14.922 14.795,-13.984L14.209,-12.529C14.014,-12.051 13.984,-11.65 14.111,-11.289L3.047,-0.898C2.061,0.02 1.982,0.996 2.842,1.865ZM10.752,-15.957C13.184,-17.734 16.475,-17.432 18.701,-15.205L21.133,-12.793C21.367,-12.559 21.406,-12.373 21.338,-12.031L21.016,-10.547L22.52,-9.063L23.506,-9.121C23.76,-9.131 23.838,-9.111 24.033,-8.916L24.609,-8.34L22.168,-5.898L21.592,-6.475C21.397,-6.67 21.367,-6.748 21.377,-7.012L21.445,-7.988L19.951,-9.473L18.428,-9.219C18.106,-9.15 17.959,-9.18 17.715,-9.414L15.713,-11.416C15.459,-11.65 15.43,-11.816 15.586,-12.188L16.465,-14.277C14.902,-15.732 12.871,-16.357 10.84,-15.762C10.684,-15.723 10.625,-15.85 10.752,-15.957ZM5.273,2.305L4.102,1.143C3.633,0.684 3.74,0.342 4.141,-0.02L14.951,-10.195L16.416,-8.711L6.426,2.275C6.074,2.676 5.742,2.773 5.273,2.305Z" style="fill-rule:nonzero;"/>
        </g>
        <g transform="matrix(1,0,0,1,1289,1953)">
            <text x="0px" y="0px" style="font-family:'SFProDisplay-Regular', 'SF Pro Display';font-size:16px;">Exporting</text>
        </g>
        <g transform="matrix(1,0,0,1,1289,1971)">
            <text x="0px" y="0px" style="font-family:'SFProDisplay-Regular', 'SF Pro Display';font-size:16px;">Symbols should be outlined when e<tspan x="235.289px " y="0px ">x</tspan>porting t<tspan x="298.188px " y="0px ">o</tspan> ensur<tspan x="347px " y="0px ">e</tspan> the</text>
        </g>
        <g transform="matrix(1,0,0,1,1289,1989)">
            <text x="0px" y="0px" style="font-family:'SFProDisplay-Regular', 'SF Pro Display';font-size:16px;">design is pr<tspan x="75.641px " y="0px ">e</tspan>serv<tspan x="111.82px " y="0px ">e</tspan>d when submitting t<tspan x="251.031px " y="0px ">o</tspan> X<tspan x="272.414px " y="0px ">c</tspan>ode.</text>
        </g>
        <g id="template-version" transform="matrix(1,0,0,1,3036,1933)">
            <text x="-96.57px" y="0px" style="font-family:'SFProDisplay-Regular', 'SF Pro Display';font-size:16px;">T<tspan x="-89.383px " y="0px ">e</tspan>mplat<tspan x="-43.664px " y="0px ">e</tspan> v<tspan x="-25.633px " y="0px ">.</tspan>2.0</text>
        </g>
        <g transform="matrix(1,0,0,1,3036,1951)">
            <text x="-191.594px" y="0px" style="font-family:'SFProDisplay-Regular', 'SF Pro Display';font-size:16px;">Requir<tspan x="-148.766px " y="0px ">e</tspan>s X<tspan x="-120.234px " y="0px ">c</tspan>ode 12 or gr<tspan x="-33.938px " y="0px ">e</tspan>at<tspan x="-13.125px " y="0px ">e</tspan>r</text>
        </g>
        <g transform="matrix(1,0,0,1,3036,1969)">
            <text x="-212.742px" y="0px" style="font-family:'SFProDisplay-Regular', 'SF Pro Display';font-size:16px;">Gener<tspan x="-171.844px -163.813px -159.227px " y="0px 0px 0px ">ate</tspan>d fr<tspan x="-129.492px " y="0px ">o</tspan>m line.horiz<tspan x="-45.727px " y="0px ">o</tspan>nt<tspan x="-24.141px " y="0px ">a</tspan>l.3</text>
        </g>
        <g transform="matrix(1,0,0,1,3036,1987)">
            <text x="-143.117px" y="0px" style="font-family:'SFProDisplay-Regular', 'SF Pro Display';font-size:16px;">T<tspan x="-135.695px " y="0px ">y</tspan>peset at 100 points</text>
        </g>
        <g transform="matrix(1,0,0,1,263,726)">
            <text x="0px" y="0px" style="font-family:'SFProDisplay-Regular', 'SF Pro Display';font-size:16px;">Small</text>
        </g>
        <g transform="matrix(1,0,0,1,263,1156)">
            <text x="0px" y="0px" style="font-family:'SFProDisplay-Regular', 'SF Pro Display';font-size:16px;">Medium</text>
        </g>
        <g transform="matrix(1,0,0,1,263,1586)">
            <text x="0px" y="0px" style="font-family:'SFProDisplay-Regular', 'SF Pro Display';font-size:16px;">Lar<tspan x="20.961px " y="0px ">g</tspan>e</text>
        </g>
    </g>
    <g id="Guides">
        <g id="H-reference" transform="matrix(1,0,0,1,339,696)">
            <path d="M0.977,0L3.662,0L12.988,-24.463L45.752,-24.463L55.127,0L57.764,0L30.615,-70.459L28.125,-70.459L0.977,0ZM29.346,-67.139L29.443,-67.139L44.873,-26.709L13.867,-26.709L29.346,-67.139Z" style="fill:rgb(39,170,225);fill-rule:nonzero;"/>
        </g>
        <path id="Baseline-S" d="M263,696L3036,696" style="fill:none;fill-rule:nonzero;stroke:rgb(39,170,225);stroke-width:0.5px;"/>
        <path id="Capline-S" d="M263,625.541L3036,625.541" style="fill:none;fill-rule:nonzero;stroke:rgb(39,170,225);stroke-width:0.5px;"/>
        <g id="H-reference1" serif:id="H-reference" transform="matrix(1,0,0,1,339,1126)">
            <path d="M0.977,0L3.662,0L12.988,-24.463L45.752,-24.463L55.127,0L57.764,0L30.615,-70.459L28.125,-70.459L0.977,0ZM29.346,-67.139L29.443,-67.139L44.873,-26.709L13.867,-26.709L29.346,-67.139Z" style="fill:rgb(39,170,225);fill-rule:nonzero;"/>
        </g>
        <path id="Baseline-M" d="M263,1126L3036,1126" style="fill:none;fill-rule:nonzero;stroke:rgb(39,170,225);stroke-width:0.5px;"/>
        <path id="Capline-M" d="M263,1055.54L3036,1055.54" style="fill:none;fill-rule:nonzero;stroke:rgb(39,170,225);stroke-width:0.5px;"/>
        <g id="H-reference2" serif:id="H-reference" transform="matrix(1,0,0,1,339,1556)">
            <path d="M0.977,0L3.662,0L12.988,-24.463L45.752,-24.463L55.127,0L57.764,0L30.615,-70.459L28.125,-70.459L0.977,0ZM29.346,-67.139L29.443,-67.139L44.873,-26.709L13.867,-26.709L29.346,-67.139Z" style="fill:rgb(39,170,225);fill-rule:nonzero;"/>
        </g>
        <path id="Baseline-L" d="M263,1556L3036,1556" style="fill:none;fill-rule:nonzero;stroke:rgb(39,170,225);stroke-width:0.5px;"/>
        <path id="Capline-L" d="M263,1485.54L3036,1485.54" style="fill:none;fill-rule:nonzero;stroke:rgb(39,170,225);stroke-width:0.5px;"/>
        <path id="left-margin" d="M1388,1030.79L1388,1150.12" style="fill:none;fill-rule:nonzero;stroke:rgb(0,174,239);stroke-width:0.5px;"/>
        <path id="right-margin" d="M1511.69,1030.79L1511.69,1150.12" style="fill:none;fill-rule:nonzero;stroke:rgb(0,174,239);stroke-width:0.5px;"/>
    </g>
    <g id="Symbols">
        <g id="Black-L" transform="matrix(1,0,0,1,2849.86,1556)">
            <path d="M24.902,-57.422L142.188,-57.422C147.119,-57.422 151.025,-61.719 151.025,-66.553C151.025,-71.533 147.168,-75.684 142.188,-75.684L24.902,-75.684C19.971,-75.684 16.064,-71.436 16.064,-66.553C16.064,-61.816 20.02,-57.422 24.902,-57.422ZM24.902,-26.123L142.188,-26.123C147.119,-26.123 151.025,-30.42 151.025,-35.254C151.025,-40.283 147.168,-44.385 142.188,-44.385L24.902,-44.385C19.971,-44.385 16.064,-40.137 16.064,-35.254C16.064,-30.518 20.02,-26.123 24.902,-26.123ZM24.902,5.225L142.188,5.225C147.119,5.225 151.025,0.928 151.025,-3.906C151.025,-8.936 147.168,-13.037 142.188,-13.037L24.902,-13.037C19.971,-13.037 16.064,-8.789 16.064,-3.906C16.064,0.83 20.02,5.225 24.902,5.225Z" style="fill-rule:nonzero;"/>
        </g>
        <g id="Heavy-L" transform="matrix(1,0,0,1,2554.12,1556)">
            <path d="M23.779,-57.813L141.309,-57.813C145.605,-57.813 149.072,-61.523 149.072,-65.772C149.072,-70.117 145.654,-73.682 141.309,-73.682L23.779,-73.682C19.482,-73.682 16.064,-70.019 16.064,-65.772C16.064,-61.621 19.531,-57.813 23.779,-57.813ZM23.779,-27.295L141.309,-27.295C145.605,-27.295 149.072,-31.006 149.072,-35.205C149.072,-39.6 145.654,-43.164 141.309,-43.164L23.779,-43.164C19.482,-43.164 16.064,-39.502 16.064,-35.205C16.064,-31.055 19.531,-27.295 23.779,-27.295ZM23.779,3.32L141.309,3.32C145.605,3.32 149.072,-0.391 149.072,-4.639C149.072,-8.984 145.654,-12.598 141.309,-12.598L23.779,-12.598C19.482,-12.598 16.064,-8.936 16.064,-4.639C16.064,-0.488 19.531,3.32 23.779,3.32Z" style="fill-rule:nonzero;"/>
        </g>
        <g id="Bold-L" transform="matrix(1,0,0,1,2258.53,1556)">
            <path d="M22.51,-58.301L140.332,-58.301C143.945,-58.301 146.826,-61.328 146.826,-64.893C146.826,-68.506 143.994,-71.484 140.332,-71.484L22.51,-71.484C18.897,-71.484 16.064,-68.457 16.064,-64.893C16.064,-61.377 18.945,-58.301 22.51,-58.301ZM22.51,-28.565L140.332,-28.565C143.945,-28.565 146.826,-31.641 146.826,-35.156C146.826,-38.867 143.994,-41.797 140.332,-41.797L22.51,-41.797C18.897,-41.797 16.064,-38.77 16.064,-35.156C16.064,-31.69 18.945,-28.565 22.51,-28.565ZM22.51,1.172L140.332,1.172C143.945,1.172 146.826,-1.855 146.826,-5.469C146.826,-9.082 143.994,-12.06 140.332,-12.06L22.51,-12.06C18.897,-12.06 16.064,-9.033 16.064,-5.469C16.064,-1.953 18.945,1.172 22.51,1.172Z" style="fill-rule:nonzero;"/>
        </g>
        <g id="Semibold-L" transform="matrix(1,0,0,1,1962.58,1556)">
            <path d="M21.68,-58.594L139.648,-58.594C142.773,-58.594 145.312,-61.182 145.312,-64.307C145.312,-67.432 142.822,-69.971 139.648,-69.971L21.68,-69.971C18.555,-69.971 16.064,-67.383 16.064,-64.307C16.064,-61.231 18.555,-58.594 21.68,-58.594ZM21.68,-29.443L139.648,-29.443C142.773,-29.443 145.312,-32.08 145.312,-35.156C145.312,-38.33 142.822,-40.869 139.648,-40.869L21.68,-40.869C18.555,-40.869 16.064,-38.281 16.064,-35.156C16.064,-32.08 18.555,-29.443 21.68,-29.443ZM21.68,-0.293L139.648,-0.293C142.773,-0.293 145.312,-2.881 145.312,-6.006C145.312,-9.18 142.822,-11.719 139.648,-11.719L21.68,-11.719C18.555,-11.719 16.064,-9.131 16.064,-6.006C16.064,-2.93 18.555,-0.293 21.68,-0.293Z" style="fill-rule:nonzero;"/>
        </g>
        <g id="Medium-L" transform="matrix(1,0,0,1,1666.45,1556)">
            <path d="M20.996,-58.838L139.16,-58.838C141.895,-58.838 144.141,-61.084 144.141,-63.818C144.141,-66.602 141.943,-68.799 139.16,-68.799L20.996,-68.799C18.262,-68.799 16.064,-66.553 16.064,-63.818C16.064,-61.133 18.262,-58.838 20.996,-58.838ZM20.996,-30.127L139.16,-30.127C141.895,-30.127 144.141,-32.373 144.141,-35.107C144.141,-37.94 141.943,-40.137 139.16,-40.137L20.996,-40.137C18.262,-40.137 16.064,-37.891 16.064,-35.107C16.064,-32.422 18.262,-30.127 20.996,-30.127ZM20.996,-1.416L139.16,-1.416C141.895,-1.416 144.141,-3.662 144.141,-6.445C144.141,-9.229 141.943,-11.426 139.16,-11.426L20.996,-11.426C18.262,-11.426 16.064,-9.18 16.064,-6.445C16.064,-3.711 18.262,-1.416 20.996,-1.416Z" style="fill-rule:nonzero;"/>
        </g>
        <g id="Regular-L" transform="matrix(1,0,0,1,1370.5,1556)">
            <path d="M20.166,-59.18L138.477,-59.18C140.771,-59.18 142.627,-60.986 142.627,-63.232C142.627,-65.527 140.771,-67.334 138.477,-67.334L20.166,-67.334C17.871,-67.334 16.064,-65.527 16.064,-63.232C16.064,-60.986 17.871,-59.18 20.166,-59.18ZM20.166,-31.006L138.477,-31.006C140.771,-31.006 142.627,-32.813 142.627,-35.107C142.627,-37.402 140.771,-39.209 138.477,-39.209L20.166,-39.209C17.871,-39.209 16.064,-37.402 16.064,-35.107C16.064,-32.813 17.871,-31.006 20.166,-31.006ZM20.166,-2.881L138.477,-2.881C140.771,-2.881 142.627,-4.688 142.627,-7.031C142.627,-9.277 140.771,-11.084 138.477,-11.084L20.166,-11.084C17.871,-11.084 16.064,-9.277 16.064,-7.031C16.064,-4.688 17.871,-2.881 20.166,-2.881Z" style="fill-rule:nonzero;"/>
        </g>
        <g id="Light-L" transform="matrix(1,0,0,1,1074.42,1556)">
            <path d="M19.238,-60.938L138.184,-60.938C139.941,-60.938 141.357,-62.353 141.357,-64.063C141.357,-65.82 139.941,-67.236 138.184,-67.236L19.238,-67.236C17.481,-67.236 16.064,-65.82 16.064,-64.063C16.064,-62.353 17.481,-60.938 19.238,-60.938ZM19.238,-31.885L138.184,-31.885C139.941,-31.885 141.357,-33.301 141.357,-35.059C141.357,-36.816 139.941,-38.232 138.184,-38.232L19.238,-38.232C17.481,-38.232 16.064,-36.816 16.064,-35.059C16.064,-33.301 17.481,-31.885 19.238,-31.885ZM19.238,-2.832L138.184,-2.832C139.941,-2.832 141.357,-4.248 141.357,-6.006C141.357,-7.764 139.941,-9.18 138.184,-9.18L19.238,-9.18C17.481,-9.18 16.064,-7.764 16.064,-6.006C16.064,-4.248 17.481,-2.832 19.238,-2.832Z" style="fill-rule:nonzero;"/>
        </g>
        <g id="Thin-L" transform="matrix(1,0,0,1,778.541,1556)">
            <path d="M18.018,-63.281L137.793,-63.281C138.818,-63.281 139.697,-64.16 139.697,-65.186C139.697,-66.26 138.818,-67.139 137.793,-67.139L18.018,-67.139C16.943,-67.139 16.064,-66.26 16.064,-65.186C16.064,-64.16 16.943,-63.281 18.018,-63.281ZM18.018,-33.057L137.793,-33.057C138.818,-33.057 139.697,-33.887 139.697,-34.961C139.697,-36.035 138.818,-36.914 137.793,-36.914L18.018,-36.914C16.943,-36.914 16.064,-36.035 16.064,-34.961C16.064,-33.887 16.943,-33.057 18.018,-33.057ZM18.018,-2.783L137.793,-2.783C138.818,-2.783 139.697,-3.662 139.697,-4.736C139.697,-5.811 138.818,-6.641 137.793,-6.641L18.018,-6.641C16.943,-6.641 16.064,-5.811 16.064,-4.736C16.064,-3.662 16.943,-2.783 18.018,-2.783Z" style="fill-rule:nonzero;"/>
        </g>
        <g id="Ultralight-L" transform="matrix(1,0,0,1,482.245,1556)">
            <path d="M17.383,-64.502L137.549,-64.502C138.281,-64.502 138.867,-65.088 138.867,-65.772C138.867,-66.504 138.281,-67.09 137.549,-67.09L17.383,-67.09C16.65,-67.09 16.064,-66.504 16.064,-65.772C16.064,-65.088 16.65,-64.502 17.383,-64.502ZM17.383,-33.643L137.549,-33.643C138.281,-33.643 138.867,-34.228 138.867,-34.912C138.867,-35.645 138.281,-36.231 137.549,-36.231L17.383,-36.231C16.65,-36.231 16.064,-35.645 16.064,-34.912C16.064,-34.228 16.65,-33.643 17.383,-33.643ZM17.383,-2.783L137.549,-2.783C138.281,-2.783 138.867,-3.369 138.867,-4.053C138.867,-4.785 138.281,-5.371 137.549,-5.371L17.383,-5.371C16.65,-5.371 16.064,-4.785 16.064,-4.053C16.064,-3.369 16.65,-2.783 17.383,-2.783Z" style="fill-rule:nonzero;"/>
        </g>
        <g id="Black-M" transform="matrix(1,0,0,1,2867.65,1126)">
            <path d="M20.313,-52.783L111.182,-52.783C115.625,-52.783 119.043,-56.738 119.043,-60.986C119.043,-65.478 115.674,-69.19 111.182,-69.19L20.313,-69.19C15.918,-69.19 12.451,-65.332 12.451,-60.986C12.451,-56.836 15.967,-52.783 20.313,-52.783ZM20.313,-27.051L111.182,-27.051C115.625,-27.051 119.043,-30.957 119.043,-35.254C119.043,-39.746 115.674,-43.457 111.182,-43.457L20.313,-43.457C15.918,-43.457 12.451,-39.6 12.451,-35.254C12.451,-31.104 15.967,-27.051 20.313,-27.051ZM20.313,-1.27L111.182,-1.27C115.625,-1.27 119.043,-5.176 119.043,-9.473C119.043,-13.916 115.674,-17.676 111.182,-17.676L20.313,-17.676C15.918,-17.676 12.451,-13.818 12.451,-9.473C12.451,-5.322 15.967,-1.27 20.313,-1.27Z" style="fill-rule:nonzero;"/>
        </g>
        <g id="Heavy-M" transform="matrix(1,0,0,1,2571.85,1126)">
            <path d="M19.336,-52.783L110.303,-52.783C114.16,-52.783 117.236,-56.152 117.236,-59.912C117.236,-63.818 114.209,-67.041 110.303,-67.041L19.336,-67.041C15.479,-67.041 12.451,-63.721 12.451,-59.912C12.451,-56.25 15.527,-52.783 19.336,-52.783ZM19.336,-28.125L110.303,-28.125C114.16,-28.125 117.236,-31.494 117.236,-35.254C117.236,-39.16 114.209,-42.383 110.303,-42.383L19.336,-42.383C15.479,-42.383 12.451,-39.063 12.451,-35.254C12.451,-31.592 15.527,-28.125 19.336,-28.125ZM19.336,-3.369L110.303,-3.369C114.16,-3.369 117.236,-6.738 117.236,-10.498C117.236,-14.404 114.209,-17.627 110.303,-17.627L19.336,-17.627C15.479,-17.627 12.451,-14.307 12.451,-10.498C12.451,-6.836 15.527,-3.369 19.336,-3.369Z" style="fill-rule:nonzero;"/>
        </g>
        <g id="Bold-M" transform="matrix(1,0,0,1,2276.18,1126)">
            <path d="M18.213,-52.783L109.375,-52.783C112.598,-52.783 115.137,-55.566 115.137,-58.74C115.137,-62.012 112.598,-64.648 109.375,-64.648L18.213,-64.648C14.99,-64.648 12.451,-61.914 12.451,-58.74C12.451,-55.615 15.039,-52.783 18.213,-52.783ZM18.213,-29.248L109.375,-29.248C112.598,-29.248 115.137,-32.031 115.137,-35.205C115.137,-38.477 112.598,-41.162 109.375,-41.162L18.213,-41.162C14.99,-41.162 12.451,-38.428 12.451,-35.205C12.451,-32.129 15.039,-29.248 18.213,-29.248ZM18.213,-5.713L109.375,-5.713C112.598,-5.713 115.137,-8.496 115.137,-11.67C115.137,-14.941 112.598,-17.627 109.375,-17.627L18.213,-17.627C14.99,-17.627 12.451,-14.893 12.451,-11.67C12.451,-8.545 15.039,-5.713 18.213,-5.713Z" style="fill-rule:nonzero;"/>
        </g>
        <g id="Semibold-M" transform="matrix(1,0,0,1,1980.18,1126)">
            <path d="M17.481,-52.783L108.691,-52.783C111.475,-52.783 113.721,-55.127 113.721,-57.91C113.721,-60.742 111.523,-63.037 108.691,-63.037L17.481,-63.037C14.648,-63.037 12.451,-60.693 12.451,-57.91C12.451,-55.176 14.697,-52.783 17.481,-52.783ZM17.481,-30.078L108.691,-30.078C111.475,-30.078 113.721,-32.422 113.721,-35.205C113.721,-38.037 111.523,-40.332 108.691,-40.332L17.481,-40.332C14.648,-40.332 12.451,-37.988 12.451,-35.205C12.451,-32.471 14.697,-30.078 17.481,-30.078ZM17.481,-7.324L108.691,-7.324C111.475,-7.324 113.721,-9.717 113.721,-12.5C113.721,-15.332 111.523,-17.627 108.691,-17.627L17.481,-17.627C14.648,-17.627 12.451,-15.283 12.451,-12.5C12.451,-9.766 14.697,-7.324 17.481,-7.324Z" style="fill-rule:nonzero;"/>
        </g>
        <g id="Medium-M" transform="matrix(1,0,0,1,1684.01,1126)">
            <path d="M16.895,-52.783L108.154,-52.783C110.645,-52.783 112.646,-54.834 112.646,-57.275C112.646,-59.766 110.645,-61.768 108.154,-61.768L16.895,-61.768C14.404,-61.768 12.451,-59.717 12.451,-57.275C12.451,-54.834 14.404,-52.783 16.895,-52.783ZM16.895,-30.664L108.154,-30.664C110.645,-30.664 112.646,-32.715 112.646,-35.156C112.646,-37.695 110.645,-39.697 108.154,-39.697L16.895,-39.697C14.404,-39.697 12.451,-37.695 12.451,-35.156C12.451,-32.764 14.404,-30.664 16.895,-30.664ZM16.895,-8.594L108.154,-8.594C110.645,-8.594 112.646,-10.596 112.646,-13.135C112.646,-15.576 110.645,-17.627 108.154,-17.627L16.895,-17.627C14.404,-17.627 12.451,-15.576 12.451,-13.135C12.451,-10.645 14.404,-8.594 16.895,-8.594Z" style="fill-rule:nonzero;"/>
        </g>
        <g id="Regular-M" transform="matrix(1,0,0,1,1388,1126)">
            <g transform="matrix(0.356962,0,0,1,5.00659,0)">
                <path d="M16.113,-31.494L107.52,-31.494C109.57,-31.494 111.23,-33.106 111.23,-35.156C111.23,-37.256 109.57,-38.916 107.52,-38.916L16.113,-38.916C14.063,-38.916 12.451,-37.256 12.451,-35.156C12.451,-33.106 14.063,-31.494 16.113,-31.494Z" style="fill-rule:nonzero;"/>
            </g>
            <g transform="matrix(0.356962,0,0,1,75.0066,0)">
                <path d="M16.113,-31.494L107.52,-31.494C109.57,-31.494 111.23,-33.106 111.23,-35.156C111.23,-37.256 109.57,-38.916 107.52,-38.916L16.113,-38.916C14.063,-38.916 12.451,-37.256 12.451,-35.156C12.451,-33.106 14.063,-31.494 16.113,-31.494Z" style="fill-rule:nonzero;"/>
            </g>
            <g transform="matrix(0.379263,0,0,0.379263,39.9558,-22.3004)">
                <path d="M58.545,14.551C85.791,14.551 108.35,-8.057 108.35,-35.254C108.35,-62.5 85.742,-85.059 58.496,-85.059C31.299,-85.059 8.74,-62.5 8.74,-35.254C8.74,-8.057 31.348,14.551 58.545,14.551ZM58.496,-76.758C81.543,-76.758 100,-58.301 100.049,-35.254C100.098,-25.049 96.436,-15.723 90.381,-8.545L31.836,-67.09C39.014,-73.144 48.291,-76.758 58.496,-76.758ZM58.545,6.25C35.498,6.25 17.09,-12.207 17.09,-35.254C17.09,-45.41 20.654,-54.688 26.66,-61.914L85.205,-3.369C77.979,2.637 68.701,6.25 58.545,6.25Z" style="fill-rule:nonzero;"/>
            </g>
        </g>
        <g id="Light-M" transform="matrix(1,0,0,1,1091.85,1126)">
            <path d="M15.332,-54.346L107.227,-54.346C108.838,-54.346 110.107,-55.615 110.107,-57.227C110.107,-58.789 108.838,-60.059 107.227,-60.059L15.332,-60.059C13.721,-60.059 12.451,-58.789 12.451,-57.227C12.451,-55.615 13.721,-54.346 15.332,-54.346ZM15.332,-32.227L107.227,-32.227C108.838,-32.227 110.107,-33.496 110.107,-35.107C110.107,-36.719 108.838,-37.988 107.227,-37.988L15.332,-37.988C13.721,-37.988 12.451,-36.719 12.451,-35.107C12.451,-33.496 13.721,-32.227 15.332,-32.227ZM15.332,-10.156L107.227,-10.156C108.838,-10.156 110.107,-11.426 110.107,-13.037C110.107,-14.648 108.838,-15.918 107.227,-15.918L15.332,-15.918C13.721,-15.918 12.451,-14.648 12.451,-13.037C12.451,-11.426 13.721,-10.156 15.332,-10.156Z" style="fill-rule:nonzero;"/>
        </g>
        <g id="Thin-M" transform="matrix(1,0,0,1,795.875,1126)">
            <path d="M14.209,-56.445L106.885,-56.445C107.812,-56.445 108.643,-57.227 108.643,-58.203C108.643,-59.18 107.812,-59.961 106.885,-59.961L14.209,-59.961C13.232,-59.961 12.451,-59.18 12.451,-58.203C12.451,-57.227 13.232,-56.445 14.209,-56.445ZM14.209,-33.301L106.885,-33.301C107.812,-33.301 108.643,-34.082 108.643,-35.059C108.643,-36.035 107.812,-36.816 106.885,-36.816L14.209,-36.816C13.232,-36.816 12.451,-36.035 12.451,-35.059C12.451,-34.082 13.232,-33.301 14.209,-33.301ZM14.209,-10.107L106.885,-10.107C107.812,-10.107 108.643,-10.889 108.643,-11.865C108.643,-12.842 107.812,-13.623 106.885,-13.623L14.209,-13.623C13.232,-13.623 12.451,-12.842 12.451,-11.865C12.451,-10.889 13.232,-10.107 14.209,-10.107Z" style="fill-rule:nonzero;"/>
        </g>
        <g id="Ultralight-M" transform="matrix(1,0,0,1,499.555,1126)">
            <path d="M13.672,-57.52L106.689,-57.52C107.324,-57.52 107.861,-58.057 107.861,-58.74C107.861,-59.375 107.324,-59.961 106.689,-59.961L13.672,-59.961C12.988,-59.961 12.451,-59.375 12.451,-58.74C12.451,-58.057 12.988,-57.52 13.672,-57.52ZM13.672,-33.789L106.689,-33.789C107.324,-33.789 107.861,-34.326 107.861,-35.01C107.861,-35.645 107.324,-36.231 106.689,-36.231L13.672,-36.231C12.988,-36.231 12.451,-35.645 12.451,-35.01C12.451,-34.326 12.988,-33.789 13.672,-33.789ZM13.672,-10.059L106.689,-10.059C107.324,-10.059 107.861,-10.645 107.861,-11.279C107.861,-11.963 107.324,-12.5 106.689,-12.5L13.672,-12.5C12.988,-12.5 12.451,-11.963 12.451,-11.279C12.451,-10.645 12.988,-10.059 13.672,-10.059Z" style="fill-rule:nonzero;"/>
        </g>
        <g id="Black-S" transform="matrix(1,0,0,1,2881.94,696)">
            <path d="M15.869,-48.975L87.061,-48.975C90.479,-48.975 93.164,-52.002 93.164,-55.322C93.164,-58.789 90.527,-61.67 87.061,-61.67L15.869,-61.67C12.451,-61.67 9.766,-58.691 9.766,-55.322C9.766,-52.1 12.5,-48.975 15.869,-48.975ZM15.869,-28.906L87.061,-28.906C90.479,-28.906 93.164,-31.934 93.164,-35.254C93.164,-38.721 90.527,-41.602 87.061,-41.602L15.869,-41.602C12.451,-41.602 9.766,-38.623 9.766,-35.254C9.766,-32.031 12.5,-28.906 15.869,-28.906ZM15.869,-8.789L87.061,-8.789C90.479,-8.789 93.164,-11.816 93.164,-15.137C93.164,-18.604 90.527,-21.484 87.061,-21.484L15.869,-21.484C12.451,-21.484 9.766,-18.506 9.766,-15.137C9.766,-11.914 12.5,-8.789 15.869,-8.789Z" style="fill-rule:nonzero;"/>
        </g>
        <g id="Heavy-S" transform="matrix(1,0,0,1,2585.86,696)">
            <path d="M15.185,-48.779L86.426,-48.779C89.453,-48.779 91.894,-51.465 91.894,-54.395C91.894,-57.52 89.502,-60.059 86.426,-60.059L15.185,-60.059C12.158,-60.059 9.766,-57.422 9.766,-54.395C9.766,-51.514 12.207,-48.779 15.185,-48.779ZM15.185,-29.639L86.426,-29.639C89.453,-29.639 91.894,-32.275 91.894,-35.254C91.894,-38.33 89.502,-40.869 86.426,-40.869L15.185,-40.869C12.158,-40.869 9.766,-38.281 9.766,-35.254C9.766,-32.324 12.207,-29.639 15.185,-29.639ZM15.185,-10.4L86.426,-10.4C89.453,-10.4 91.894,-13.037 91.894,-16.016C91.894,-19.141 89.502,-21.68 86.426,-21.68L15.185,-21.68C12.158,-21.68 9.766,-19.043 9.766,-16.016C9.766,-13.135 12.207,-10.4 15.185,-10.4Z" style="fill-rule:nonzero;"/>
        </g>
        <g id="Bold-S" transform="matrix(1,0,0,1,2289.88,696)">
            <path d="M14.453,-48.584L85.742,-48.584C88.33,-48.584 90.43,-50.83 90.43,-53.418C90.43,-56.055 88.379,-58.203 85.742,-58.203L14.453,-58.203C11.816,-58.203 9.766,-56.006 9.766,-53.418C9.766,-50.879 11.865,-48.584 14.453,-48.584ZM14.453,-30.42L85.742,-30.42C88.33,-30.42 90.43,-32.666 90.43,-35.205C90.43,-37.891 88.379,-40.088 85.742,-40.088L14.453,-40.088C11.816,-40.088 9.766,-37.842 9.766,-35.205C9.766,-32.715 11.865,-30.42 14.453,-30.42ZM14.453,-12.207L85.742,-12.207C88.33,-12.207 90.43,-14.453 90.43,-17.041C90.43,-19.678 88.379,-21.875 85.742,-21.875L14.453,-21.875C11.816,-21.875 9.766,-19.629 9.766,-17.041C9.766,-14.502 11.865,-12.207 14.453,-12.207Z" style="fill-rule:nonzero;"/>
        </g>
        <g id="Semibold-S" transform="matrix(1,0,0,1,1993.66,696)">
            <path d="M13.965,-48.438L85.254,-48.438C87.549,-48.438 89.453,-50.391 89.453,-52.686C89.453,-55.078 87.598,-56.982 85.254,-56.982L13.965,-56.982C11.621,-56.982 9.766,-55.029 9.766,-52.686C9.766,-50.44 11.621,-48.438 13.965,-48.438ZM13.965,-30.957L85.254,-30.957C87.549,-30.957 89.453,-32.91 89.453,-35.205C89.453,-37.598 87.598,-39.502 85.254,-39.502L13.965,-39.502C11.621,-39.502 9.766,-37.549 9.766,-35.205C9.766,-32.959 11.621,-30.957 13.965,-30.957ZM13.965,-13.428L85.254,-13.428C87.549,-13.428 89.453,-15.381 89.453,-17.725C89.453,-20.117 87.598,-22.022 85.254,-22.022L13.965,-22.022C11.621,-22.022 9.766,-20.068 9.766,-17.725C9.766,-15.43 11.621,-13.428 13.965,-13.428Z" style="fill-rule:nonzero;"/>
        </g>
        <g id="Medium-S" transform="matrix(1,0,0,1,1697.31,696)">
            <path d="M13.574,-48.34L84.863,-48.34C86.963,-48.34 88.721,-50.098 88.721,-52.197C88.721,-54.297 87.012,-56.006 84.863,-56.006L13.574,-56.006C11.426,-56.006 9.766,-54.297 9.766,-52.197C9.766,-50.098 11.475,-48.34 13.574,-48.34ZM13.574,-31.348L84.863,-31.348C86.963,-31.348 88.721,-33.106 88.721,-35.205C88.721,-37.353 87.012,-39.063 84.863,-39.063L13.574,-39.063C11.426,-39.063 9.766,-37.353 9.766,-35.205C9.766,-33.106 11.475,-31.348 13.574,-31.348ZM13.574,-14.404L84.863,-14.404C86.963,-14.404 88.721,-16.113 88.721,-18.262C88.721,-20.41 87.012,-22.119 84.863,-22.119L13.574,-22.119C11.426,-22.119 9.766,-20.361 9.766,-18.262C9.766,-16.162 11.475,-14.404 13.574,-14.404Z" style="fill-rule:nonzero;"/>
        </g>
        <g id="Regular-S" transform="matrix(1,0,0,1,1401.11,696)">
            <path d="M13.037,-48.193L84.375,-48.193C86.231,-48.193 87.695,-49.658 87.695,-51.465C87.695,-53.32 86.231,-54.785 84.375,-54.785L13.037,-54.785C11.23,-54.785 9.766,-53.32 9.766,-51.465C9.766,-49.658 11.23,-48.193 13.037,-48.193ZM13.037,-31.885L84.375,-31.885C86.231,-31.885 87.695,-33.35 87.695,-35.205C87.695,-37.061 86.231,-38.525 84.375,-38.525L13.037,-38.525C11.23,-38.525 9.766,-37.061 9.766,-35.205C9.766,-33.35 11.23,-31.885 13.037,-31.885ZM13.037,-15.625L84.375,-15.625C86.231,-15.625 87.695,-17.09 87.695,-18.945C87.695,-20.801 86.231,-22.266 84.375,-22.266L13.037,-22.266C11.23,-22.266 9.766,-20.801 9.766,-18.945C9.766,-17.09 11.23,-15.625 13.037,-15.625Z" style="fill-rule:nonzero;"/>
        </g>
        <g id="Light-S" transform="matrix(1,0,0,1,1104.89,696)">
            <path d="M12.305,-49.609L84.131,-49.609C85.547,-49.609 86.719,-50.732 86.719,-52.148C86.719,-53.565 85.547,-54.736 84.131,-54.736L12.305,-54.736C10.889,-54.736 9.766,-53.565 9.766,-52.148C9.766,-50.732 10.889,-49.609 12.305,-49.609ZM12.305,-32.617L84.131,-32.617C85.547,-32.617 86.719,-33.74 86.719,-35.156C86.719,-36.621 85.547,-37.744 84.131,-37.744L12.305,-37.744C10.889,-37.744 9.766,-36.621 9.766,-35.156C9.766,-33.74 10.889,-32.617 12.305,-32.617ZM12.305,-15.576L84.131,-15.576C85.547,-15.576 86.719,-16.748 86.719,-18.164C86.719,-19.58 85.547,-20.752 84.131,-20.752L12.305,-20.752C10.889,-20.752 9.766,-19.58 9.766,-18.164C9.766,-16.748 10.889,-15.576 12.305,-15.576Z" style="fill-rule:nonzero;"/>
        </g>
        <g id="Thin-S" transform="matrix(1,0,0,1,808.839,696)">
            <path d="M11.377,-51.465L83.789,-51.465C84.668,-51.465 85.4,-52.148 85.4,-53.027C85.4,-53.906 84.668,-54.639 83.789,-54.639L11.377,-54.639C10.498,-54.639 9.766,-53.906 9.766,-53.027C9.766,-52.148 10.498,-51.465 11.377,-51.465ZM11.377,-33.496L83.789,-33.496C84.668,-33.496 85.4,-34.228 85.4,-35.107C85.4,-35.986 84.668,-36.719 83.789,-36.719L11.377,-36.719C10.498,-36.719 9.766,-35.986 9.766,-35.107C9.766,-34.228 10.498,-33.496 11.377,-33.496ZM11.377,-15.576L83.789,-15.576C84.668,-15.576 85.4,-16.26 85.4,-17.139C85.4,-18.018 84.668,-18.75 83.789,-18.75L11.377,-18.75C10.498,-18.75 9.766,-18.018 9.766,-17.139C9.766,-16.26 10.498,-15.576 11.377,-15.576Z" style="fill-rule:nonzero;"/>
        </g>
        <g id="Ultralight-S" transform="matrix(1,0,0,1,512.47,696)">
            <path d="M10.84,-52.441L83.643,-52.441C84.229,-52.441 84.717,-52.93 84.717,-53.516C84.717,-54.102 84.229,-54.59 83.643,-54.59L10.84,-54.59C10.254,-54.59 9.766,-54.102 9.766,-53.516C9.766,-52.93 10.254,-52.441 10.84,-52.441ZM10.84,-33.984L83.643,-33.984C84.229,-33.984 84.717,-34.473 84.717,-35.059C84.717,-35.645 84.229,-36.182 83.643,-36.182L10.84,-36.182C10.254,-36.182 9.766,-35.645 9.766,-35.059C9.766,-34.473 10.254,-33.984 10.84,-33.984ZM10.84,-15.527L83.643,-15.527C84.229,-15.527 84.717,-16.016 84.717,-16.602C84.717,-17.236 84.229,-17.725 83.643,-17.725L10.84,-17.725C10.254,-17.725 9.766,-17.236 9.766,-16.602C9.766,-16.016 10.254,-15.527 10.84,-15.527Z" style="fill-rule:nonzero;"/>
        </g>
    </g>
</svg>
