<?xml version="1.0" encoding="UTF-8" standalone="no"?>
<!DOCTYPE svg PUBLIC "-//W3C//DTD SVG 1.1//EN" "http://www.w3.org/Graphics/SVG/1.1/DTD/svg11.dtd">
<svg width="100%" height="100%" viewBox="0 0 3300 2200" version="1.1" xmlns="http://www.w3.org/2000/svg" xmlns:xlink="http://www.w3.org/1999/xlink" xml:space="preserve" xmlns:serif="http://www.serif.com/" style="fill-rule:evenodd;clip-rule:evenodd;">
    <g id="Notes">
        <rect id="artboard" x="0" y="0" width="3300" height="2200" style="fill:white;"/>
        <path d="M263,292L3036,292" style="fill:none;fill-rule:nonzero;stroke:black;stroke-width:0.5px;"/>
        <g transform="matrix(1,0,0,1,263,322)">
            <text x="0px" y="0px" style="font-family:'SFProDisplay-Regular', 'SF Pro Display';font-size:16px;">W<tspan x="13.922px " y="0px ">e</tspan>ight/Scale V<tspan x="101.313px " y="0px ">a</tspan>riations</text>
        </g>
        <g transform="matrix(1,0,0,1,559.711,322)">
            <text x="-30.41px" y="0px" style="font-family:'SFProDisplay-Regular', 'SF Pro Display';font-size:16px;">Ultr<tspan x="-6.41px " y="0px ">a</tspan>light</text>
        </g>
        <g transform="matrix(1,0,0,1,856.422,322)">
            <text x="-14.824px" y="0px" style="font-family:'SFProDisplay-Regular', 'SF Pro Display';font-size:16px;">Thin</text>
        </g>
        <g transform="matrix(1,0,0,1,1153.13,322)">
            <text x="-16.957px" y="0px" style="font-family:'SFProDisplay-Regular', 'SF Pro Display';font-size:16px;">Light</text>
        </g>
        <g transform="matrix(1,0,0,1,1449.84,322)">
            <text x="-25.609px" y="0px" style="font-family:'SFProDisplay-Regular', 'SF Pro Display';font-size:16px;">Regular</text>
        </g>
        <g transform="matrix(1,0,0,1,1746.56,322)">
            <text x="-27.465px" y="0px" style="font-family:'SFProDisplay-Regular', 'SF Pro Display';font-size:16px;">Medium</text>
        </g>
        <g transform="matrix(1,0,0,1,2043.27,322)">
            <text x="-31.656px" y="0px" style="font-family:'SFProDisplay-Regular', 'SF Pro Display';font-size:16px;">Semibold</text>
        </g>
        <g transform="matrix(1,0,0,1,2339.98,322)">
            <text x="-15.145px" y="0px" style="font-family:'SFProDisplay-Regular', 'SF Pro Display';font-size:16px;">Bold</text>
        </g>
        <g transform="matrix(1,0,0,1,2636.69,322)">
            <text x="-21.461px" y="0px" style="font-family:'SFProDisplay-Regular', 'SF Pro Display';font-size:16px;">Heavy</text>
        </g>
        <g transform="matrix(1,0,0,1,2933.4,322)">
            <text x="-18.375px" y="0px" style="font-family:'SFProDisplay-Regular', 'SF Pro Display';font-size:16px;">Black</text>
        </g>
        <path d="M263,1903L3036,1903" style="fill:none;fill-rule:nonzero;stroke:black;stroke-width:0.5px;"/>
        <g transform="matrix(1,0,0,1,263,1933)">
            <path d="M9.248,0.83C13.555,0.83 17.139,-2.744 17.139,-7.051C17.139,-11.357 13.545,-14.932 9.238,-14.932C4.941,-14.932 1.367,-11.357 1.367,-7.051C1.367,-2.744 4.951,0.83 9.248,0.83ZM9.248,-0.654C5.703,-0.654 2.871,-3.496 2.871,-7.051C2.871,-10.605 5.693,-13.447 9.238,-13.447C12.793,-13.447 15.635,-10.605 15.645,-7.051C15.654,-3.496 12.803,-0.654 9.248,-0.654ZM6.396,-6.318L8.506,-6.318L8.506,-4.199C8.506,-3.76 8.799,-3.457 9.229,-3.457C9.678,-3.457 9.971,-3.76 9.971,-4.199L9.971,-6.318L12.1,-6.318C12.539,-6.318 12.842,-6.611 12.842,-7.041C12.842,-7.48 12.539,-7.783 12.1,-7.783L9.971,-7.783L9.971,-9.893C9.971,-10.342 9.678,-10.645 9.229,-10.645C8.799,-10.645 8.506,-10.342 8.506,-9.893L8.506,-7.783L6.396,-7.783C5.947,-7.783 5.645,-7.48 5.645,-7.041C5.645,-6.611 5.947,-6.318 6.396,-6.318Z" style="fill-rule:nonzero;"/>
        </g>
        <g transform="matrix(1,0,0,1,281.506,1933)">
            <path d="M11.709,2.91C17.158,2.91 21.67,-1.611 21.67,-7.051C21.67,-12.5 17.148,-17.012 11.699,-17.012C6.26,-17.012 1.748,-12.5 1.748,-7.051C1.748,-1.611 6.27,2.91 11.709,2.91ZM11.709,1.25C7.1,1.25 3.418,-2.441 3.418,-7.051C3.418,-11.66 7.09,-15.352 11.699,-15.352C16.309,-15.352 20,-11.66 20.01,-7.051C20.02,-2.441 16.318,1.25 11.709,1.25ZM7.988,-6.23L10.879,-6.23L10.879,-3.32C10.879,-2.832 11.211,-2.5 11.69,-2.5C12.178,-2.5 12.52,-2.832 12.52,-3.32L12.52,-6.23L15.43,-6.23C15.918,-6.23 16.25,-6.563 16.25,-7.041C16.25,-7.529 15.918,-7.871 15.43,-7.871L12.52,-7.871L12.52,-10.762C12.52,-11.27 12.178,-11.602 11.69,-11.602C11.211,-11.602 10.879,-11.26 10.879,-10.762L10.879,-7.871L7.988,-7.871C7.48,-7.871 7.148,-7.529 7.148,-7.041C7.148,-6.563 7.49,-6.23 7.988,-6.23Z" style="fill-rule:nonzero;"/>
        </g>
        <g transform="matrix(1,0,0,1,304.924,1933)">
            <path d="M14.971,5.664C21.934,5.664 27.695,-0.098 27.695,-7.051C27.695,-14.014 21.924,-19.775 14.961,-19.775C8.008,-19.775 2.256,-14.014 2.256,-7.051C2.256,-0.098 8.018,5.664 14.971,5.664ZM14.971,3.848C8.936,3.848 4.082,-1.016 4.082,-7.051C4.082,-13.096 8.926,-17.949 14.961,-17.949C21.006,-17.949 25.859,-13.096 25.869,-7.051C25.879,-1.016 21.016,3.848 14.971,3.848ZM10.059,-6.143L14.063,-6.143L14.063,-2.129C14.063,-1.592 14.434,-1.221 14.951,-1.221C15.488,-1.221 15.859,-1.592 15.859,-2.129L15.859,-6.143L19.883,-6.143C20.41,-6.143 20.791,-6.514 20.791,-7.031C20.791,-7.568 20.42,-7.949 19.883,-7.949L15.859,-7.949L15.859,-11.953C15.859,-12.51 15.488,-12.881 14.951,-12.881C14.434,-12.881 14.063,-12.5 14.063,-11.953L14.063,-7.949L10.059,-7.949C9.502,-7.949 9.131,-7.568 9.131,-7.031C9.131,-6.514 9.512,-6.143 10.059,-6.143Z" style="fill-rule:nonzero;"/>
        </g>
        <g transform="matrix(1,0,0,1,263,1953)">
            <text x="0px" y="0px" style="font-family:'SFProDisplay-Regular', 'SF Pro Display';font-size:16px;">Design V<tspan x="59.211px " y="0px ">a</tspan>riations</text>
        </g>
        <g transform="matrix(1,0,0,1,263,1971)">
            <text x="0px" y="0px" style="font-family:'SFProDisplay-Regular', 'SF Pro Display';font-size:16px;">Symbols ar<tspan x="74.039px " y="0px ">e</tspan> support<tspan x="136.977px " y="0px ">e</tspan>d in up t<tspan x="197.406px " y="0px ">o</tspan> nine weights and thr<tspan x="343.289px " y="0px ">e</tspan>e scales.</text>
        </g>
        <g transform="matrix(1,0,0,1,263,1989)">
            <text x="0px" y="0px" style="font-family:'SFProDisplay-Regular', 'SF Pro Display';font-size:16px;">F<tspan x="8.133px " y="0px ">o</tspan>r optimal lay<tspan x="96.43px " y="0px ">o</tspan>ut with t<tspan x="157.508px 165.547px " y="0px 0px ">ex</tspan>t and other symbols,<tspan x="306.883px 310.164px 317.578px " y="0px 0px 0px "> ve</tspan>rtically align</text>
        </g>
        <g transform="matrix(1,0,0,1,263,2007)">
            <text x="0px" y="0px" style="font-family:'SFProDisplay-Regular', 'SF Pro Display';font-size:16px;">symbols with the adjacent t<tspan x="181.344px 189.383px " y="0px 0px ">ex</tspan>t.</text>
        </g>
        <path d="M776,1919L776,1933" style="fill:none;fill-rule:nonzero;stroke:rgb(0,174,239);stroke-width:0.5px;"/>
        <g transform="matrix(1,0,0,1,776,1933)">
            <path d="M3.311,0.127C3.828,0.127 4.082,-0.068 4.268,-0.605L5.527,-4.063L11.289,-4.063L12.549,-0.605C12.734,-0.068 12.988,0.127 13.496,0.127C14.014,0.127 14.346,-0.186 14.346,-0.674C14.346,-0.84 14.316,-0.986 14.238,-1.201L9.658,-13.389C9.434,-13.994 9.033,-14.287 8.408,-14.287C7.803,-14.287 7.393,-13.994 7.178,-13.398L2.598,-1.191C2.52,-0.977 2.49,-0.83 2.49,-0.664C2.49,-0.176 2.803,0.127 3.311,0.127ZM6.006,-5.537L8.379,-12.109L8.428,-12.109L10.801,-5.537L6.006,-5.537Z" style="fill-rule:nonzero;"/>
        </g>
        <path d="M792.836,1919L792.836,1933" style="fill:none;fill-rule:nonzero;stroke:rgb(0,174,239);stroke-width:0.5px;"/>
        <g transform="matrix(1,0,0,1,776,1953)">
            <text x="0px" y="0px" style="font-family:'SFProDisplay-Regular', 'SF Pro Display';font-size:16px;">M<tspan x="13.063px 21.094px 25.633px " y="0px 0px 0px ">arg</tspan>ins</text>
        </g>
        <g transform="matrix(1,0,0,1,776,1971)">
            <text x="0px" y="0px" style="font-family:'SFProDisplay-Regular', 'SF Pro Display';font-size:16px;">L<tspan x="8.156px " y="0px ">e</tspan>ading and tr<tspan x="95.227px " y="0px ">a</tspan>iling mar<tspan x="159.031px " y="0px ">g</tspan>ins on the left and right side of each symbol</text>
        </g>
        <g transform="matrix(1,0,0,1,776,1989)">
            <text x="0px" y="0px" style="font-family:'SFProDisplay-Regular', 'SF Pro Display';font-size:16px;">can be adjust<tspan x="88.727px " y="0px ">e</tspan>d b<tspan x="117.609px " y="0px ">y</tspan> modifying the x<tspan x="230.703px " y="0px ">-</tspan>location of the mar<tspan x="360.664px " y="0px ">g</tspan>in guidelines.</text>
        </g>
        <g transform="matrix(1,0,0,1,776,2007)">
            <text x="0px" y="0px" style="font-family:'SFProDisplay-Regular', 'SF Pro Display';font-size:16px;">Modifications ar<tspan x="106.484px " y="0px ">e</tspan> aut<tspan x="139.008px " y="0px ">o</tspan>matically applied pr<tspan x="275.977px " y="0px ">o</tspan>portionally t<tspan x="361.93px " y="0px ">o</tspan> all</text>
        </g>
        <g transform="matrix(1,0,0,1,776,2025)">
            <text x="0px" y="0px" style="font-family:'SFProDisplay-Regular', 'SF Pro Display';font-size:16px;">scales and weights.</text>
        </g>
        <g transform="matrix(1,0,0,1,1289,1933)">
            <path d="M2.842,1.865L4.541,3.574C5.4,4.443 6.387,4.385 7.314,3.359L17.49,-7.852C17.754,-7.764 18.027,-7.783 18.34,-7.842L19.404,-8.037L20.068,-7.363L20.029,-6.807C19.99,-6.309 20.117,-5.928 20.606,-5.449L21.367,-4.707C21.846,-4.229 22.461,-4.199 22.93,-4.668L25.84,-7.588C26.309,-8.057 26.289,-8.652 25.811,-9.131L25.039,-9.893C24.561,-10.371 24.19,-10.527 23.711,-10.488L23.135,-10.44L22.49,-11.074L22.734,-12.197C22.861,-12.764 22.705,-13.203 22.119,-13.789L19.922,-15.977C16.582,-19.297 12.148,-19.219 9.258,-16.328C8.838,-15.918 8.809,-15.342 9.043,-14.951C9.277,-14.59 9.736,-14.355 10.381,-14.522C11.846,-14.863 13.369,-14.922 14.795,-13.984L14.209,-12.529C14.014,-12.051 13.984,-11.65 14.111,-11.289L3.047,-0.898C2.061,0.02 1.982,0.996 2.842,1.865ZM10.752,-15.957C13.184,-17.734 16.475,-17.432 18.701,-15.205L21.133,-12.793C21.367,-12.559 21.406,-12.373 21.338,-12.031L21.016,-10.547L22.52,-9.063L23.506,-9.121C23.76,-9.131 23.838,-9.111 24.033,-8.916L24.609,-8.34L22.168,-5.898L21.592,-6.475C21.397,-6.67 21.367,-6.748 21.377,-7.012L21.445,-7.988L19.951,-9.473L18.428,-9.219C18.106,-9.15 17.959,-9.18 17.715,-9.414L15.713,-11.416C15.459,-11.65 15.43,-11.816 15.586,-12.188L16.465,-14.277C14.902,-15.732 12.871,-16.357 10.84,-15.762C10.684,-15.723 10.625,-15.85 10.752,-15.957ZM5.273,2.305L4.102,1.143C3.633,0.684 3.74,0.342 4.141,-0.02L14.951,-10.195L16.416,-8.711L6.426,2.275C6.074,2.676 5.742,2.773 5.273,2.305Z" style="fill-rule:nonzero;"/>
        </g>
        <g transform="matrix(1,0,0,1,1289,1953)">
            <text x="0px" y="0px" style="font-family:'SFProDisplay-Regular', 'SF Pro Display';font-size:16px;">Exporting</text>
        </g>
        <g transform="matrix(1,0,0,1,1289,1971)">
            <text x="0px" y="0px" style="font-family:'SFProDisplay-Regular', 'SF Pro Display';font-size:16px;">Symbols should be outlined when e<tspan x="235.289px " y="0px ">x</tspan>porting t<tspan x="298.188px " y="0px ">o</tspan> ensur<tspan x="347px " y="0px ">e</tspan> the</text>
        </g>
        <g transform="matrix(1,0,0,1,1289,1989)">
            <text x="0px" y="0px" style="font-family:'SFProDisplay-Regular', 'SF Pro Display';font-size:16px;">design is pr<tspan x="75.641px " y="0px ">e</tspan>serv<tspan x="111.82px " y="0px ">e</tspan>d when submitting t<tspan x="251.031px " y="0px ">o</tspan> X<tspan x="272.414px " y="0px ">c</tspan>ode.</text>
        </g>
        <g id="template-version" transform="matrix(1,0,0,1,3036,1933)">
            <text x="-96.57px" y="0px" style="font-family:'SFProDisplay-Regular', 'SF Pro Display';font-size:16px;">T<tspan x="-89.383px " y="0px ">e</tspan>mplat<tspan x="-43.664px " y="0px ">e</tspan> v<tspan x="-25.633px " y="0px ">.</tspan>2.0</text>
        </g>
        <g transform="matrix(1,0,0,1,3036,1951)">
            <text x="-191.594px" y="0px" style="font-family:'SFProDisplay-Regular', 'SF Pro Display';font-size:16px;">Requir<tspan x="-148.766px " y="0px ">e</tspan>s X<tspan x="-120.234px " y="0px ">c</tspan>ode 12 or gr<tspan x="-33.938px " y="0px ">e</tspan>at<tspan x="-13.125px " y="0px ">e</tspan>r</text>
        </g>
        <g transform="matrix(1,0,0,1,3036,1969)">
            <text x="-260.359px" y="0px" style="font-family:'SFProDisplay-Regular', 'SF Pro Display';font-size:16px;">Gener<tspan x="-219.461px -211.43px -206.844px " y="0px 0px 0px ">ate</tspan>d fr<tspan x="-177.109px " y="0px ">o</tspan>m e<tspan x="-144.445px -137.109px " y="0px 0px ">xc</tspan>lamationmark.<tspan x="-35.328px " y="0px ">c</tspan>ir<tspan x="-19.477px " y="0px ">c</tspan>le</text>
        </g>
        <g transform="matrix(1,0,0,1,3036,1987)">
            <text x="-143.117px" y="0px" style="font-family:'SFProDisplay-Regular', 'SF Pro Display';font-size:16px;">T<tspan x="-135.695px " y="0px ">y</tspan>peset at 100 points</text>
        </g>
        <g transform="matrix(1,0,0,1,263,726)">
            <text x="0px" y="0px" style="font-family:'SFProDisplay-Regular', 'SF Pro Display';font-size:16px;">Small</text>
        </g>
        <g transform="matrix(1,0,0,1,263,1156)">
            <text x="0px" y="0px" style="font-family:'SFProDisplay-Regular', 'SF Pro Display';font-size:16px;">Medium</text>
        </g>
        <g transform="matrix(1,0,0,1,263,1586)">
            <text x="0px" y="0px" style="font-family:'SFProDisplay-Regular', 'SF Pro Display';font-size:16px;">Lar<tspan x="20.961px " y="0px ">g</tspan>e</text>
        </g>
    </g>
    <g id="Guides">
        <g id="H-reference" transform="matrix(1,0,0,1,339,696)">
            <path d="M0.977,0L3.662,0L12.988,-24.463L45.752,-24.463L55.127,0L57.764,0L30.615,-70.459L28.125,-70.459L0.977,0ZM29.346,-67.139L29.443,-67.139L44.873,-26.709L13.867,-26.709L29.346,-67.139Z" style="fill:rgb(39,170,225);fill-rule:nonzero;"/>
        </g>
        <path id="Baseline-S" d="M263,696L3036,696" style="fill:none;fill-rule:nonzero;stroke:rgb(39,170,225);stroke-width:0.5px;"/>
        <path id="Capline-S" d="M263,625.541L3036,625.541" style="fill:none;fill-rule:nonzero;stroke:rgb(39,170,225);stroke-width:0.5px;"/>
        <g id="H-reference1" serif:id="H-reference" transform="matrix(1,0,0,1,339,1126)">
            <path d="M0.977,0L3.662,0L12.988,-24.463L45.752,-24.463L55.127,0L57.764,0L30.615,-70.459L28.125,-70.459L0.977,0ZM29.346,-67.139L29.443,-67.139L44.873,-26.709L13.867,-26.709L29.346,-67.139Z" style="fill:rgb(39,170,225);fill-rule:nonzero;"/>
        </g>
        <path id="Baseline-M" d="M263,1126L3036,1126" style="fill:none;fill-rule:nonzero;stroke:rgb(39,170,225);stroke-width:0.5px;"/>
        <path id="Capline-M" d="M263,1055.54L3036,1055.54" style="fill:none;fill-rule:nonzero;stroke:rgb(39,170,225);stroke-width:0.5px;"/>
        <g id="H-reference2" serif:id="H-reference" transform="matrix(1,0,0,1,339,1556)">
            <path d="M0.977,0L3.662,0L12.988,-24.463L45.752,-24.463L55.127,0L57.764,0L30.615,-70.459L28.125,-70.459L0.977,0ZM29.346,-67.139L29.443,-67.139L44.873,-26.709L13.867,-26.709L29.346,-67.139Z" style="fill:rgb(39,170,225);fill-rule:nonzero;"/>
        </g>
        <path id="Baseline-L" d="M263,1556L3036,1556" style="fill:none;fill-rule:nonzero;stroke:rgb(39,170,225);stroke-width:0.5px;"/>
        <path id="Capline-L" d="M263,1485.54L3036,1485.54" style="fill:none;fill-rule:nonzero;stroke:rgb(39,170,225);stroke-width:0.5px;"/>
        <path id="left-margin" d="M1391.3,1030.79L1391.3,1150.12" style="fill:none;fill-rule:nonzero;stroke:rgb(0,174,239);stroke-width:0.5px;"/>
        <path id="right-margin" d="M1508.39,1030.79L1508.39,1150.12" style="fill:none;fill-rule:nonzero;stroke:rgb(0,174,239);stroke-width:0.5px;"/>
    </g>
    <g id="Symbols">
        <g id="Black-L" transform="matrix(1,0,0,-1,2854.05,1485.59)">
            <path d="M79.346,32.861C116.748,32.861 147.412,2.197 147.412,-35.205C147.412,-72.607 116.748,-103.271 79.297,-103.271C41.895,-103.271 11.279,-72.607 11.279,-35.205C11.279,2.197 41.943,32.861 79.346,32.861ZM79.346,12.402C52.978,12.402 31.738,-8.838 31.738,-35.205C31.738,-61.572 52.93,-82.813 79.297,-82.813C105.664,-82.813 126.953,-61.572 126.953,-35.205C127.002,-8.838 105.713,12.402 79.346,12.402ZM79.394,-27.588C84.18,-27.588 87.012,-30.225 87.256,-35.205L88.379,-56.836C88.672,-62.109 84.912,-65.674 79.297,-65.674C73.633,-65.674 69.922,-62.158 70.215,-56.885L71.289,-35.107C71.582,-30.225 74.463,-27.588 79.394,-27.588ZM79.394,-5.176C84.815,-5.176 88.818,-8.35 88.818,-13.477C88.818,-18.555 84.815,-21.777 79.394,-21.777C73.926,-21.777 69.824,-18.604 69.824,-13.477C69.824,-8.35 73.926,-5.176 79.394,-5.176Z" style="fill-rule:nonzero;"/>
        </g>
        <g id="Heavy-L" transform="matrix(1,0,0,-1,2558.39,1485.59)">
            <path d="M78.272,31.787C115.088,31.787 145.312,1.563 145.312,-35.205C145.312,-72.022 115.039,-102.246 78.272,-102.246C41.455,-102.246 11.279,-72.022 11.279,-35.205C11.279,1.563 41.504,31.787 78.272,31.787ZM78.272,14.014C51.025,14.014 29.053,-7.959 29.053,-35.205C29.053,-62.5 50.977,-84.473 78.272,-84.473C105.518,-84.473 127.49,-62.5 127.539,-35.205C127.539,-7.959 105.566,14.014 78.272,14.014ZM78.272,-26.709C82.568,-26.709 85.107,-29.102 85.303,-33.594L86.328,-58.008C86.621,-62.744 83.203,-65.967 78.223,-65.967C73.193,-65.967 69.873,-62.744 70.117,-58.057L71.094,-33.496C71.338,-29.102 73.877,-26.709 78.272,-26.709ZM78.272,-4.932C83.203,-4.932 86.963,-7.959 86.963,-12.647C86.963,-17.334 83.252,-20.41 78.272,-20.41C73.34,-20.41 69.531,-17.383 69.531,-12.647C69.531,-7.959 73.34,-4.932 78.272,-4.932Z" style="fill-rule:nonzero;"/>
        </g>
        <g id="Bold-L" transform="matrix(1,0,0,-1,2262.88,1485.59)">
            <path d="M77.1,30.566C113.232,30.566 142.92,0.879 142.92,-35.254C142.92,-71.338 113.184,-101.074 77.051,-101.074C40.967,-101.074 11.279,-71.338 11.279,-35.254C11.279,0.879 41.016,30.566 77.1,30.566ZM77.1,15.82C48.828,15.82 26.074,-6.982 26.074,-35.254C26.074,-63.525 48.779,-86.279 77.051,-86.279C105.371,-86.279 128.125,-63.525 128.174,-35.254C128.174,-6.982 105.371,15.82 77.1,15.82ZM77.051,-25.732C80.811,-25.732 82.959,-27.832 83.106,-31.787L84.082,-59.326C84.277,-63.379 81.299,-66.211 77.002,-66.211C72.705,-66.211 69.775,-63.428 69.971,-59.375L70.898,-31.738C71.045,-27.881 73.242,-25.732 77.051,-25.732ZM77.051,-4.59C81.445,-4.59 84.863,-7.52 84.863,-11.768C84.863,-15.967 81.494,-18.897 77.051,-18.897C72.656,-18.897 69.19,-15.967 69.19,-11.768C69.19,-7.52 72.705,-4.59 77.051,-4.59Z" style="fill-rule:nonzero;"/>
        </g>
        <g id="Semibold-L" transform="matrix(1,0,0,-1,1966.97,1485.59)">
            <path d="M76.269,29.736C111.914,29.736 141.309,0.391 141.309,-35.254C141.309,-70.898 111.865,-100.244 76.269,-100.244C40.625,-100.244 11.279,-70.898 11.279,-35.254C11.279,0.391 40.674,29.736 76.269,29.736ZM76.269,17.041C47.315,17.041 24.023,-6.25 24.023,-35.254C24.023,-64.209 47.266,-87.549 76.269,-87.549C105.225,-87.549 128.564,-64.209 128.613,-35.254C128.662,-6.25 105.273,17.041 76.269,17.041ZM76.221,-25.049C79.541,-25.049 81.494,-26.953 81.641,-30.518L82.519,-60.254C82.666,-63.867 79.981,-66.406 76.172,-66.406C72.363,-66.406 69.775,-63.916 69.873,-60.303L70.752,-30.469C70.85,-27.002 72.803,-25.049 76.221,-25.049ZM76.221,-4.395C80.225,-4.395 83.447,-7.227 83.447,-11.133C83.447,-15.039 80.273,-17.822 76.221,-17.822C72.217,-17.822 68.994,-14.99 68.994,-11.133C68.994,-7.227 72.217,-4.395 76.221,-4.395Z" style="fill-rule:nonzero;"/>
        </g>
        <g id="Medium-L" transform="matrix(1,0,0,-1,1670.87,1485.59)">
            <path d="M75.684,29.15C110.938,29.15 140.088,0 140.088,-35.254C140.088,-70.508 110.889,-99.658 75.635,-99.658C40.381,-99.658 11.279,-70.508 11.279,-35.254C11.279,0 40.381,29.15 75.684,29.15ZM75.684,18.018C46.143,18.018 22.461,-5.762 22.461,-35.254C22.461,-64.746 46.143,-88.525 75.635,-88.525C105.127,-88.525 128.906,-64.746 128.906,-35.254C128.955,-5.762 105.176,18.018 75.684,18.018ZM75.586,-24.561C78.613,-24.561 80.371,-26.318 80.469,-29.541L81.348,-60.938C81.445,-64.209 78.955,-66.553 75.537,-66.553C72.07,-66.553 69.727,-64.258 69.824,-60.986L70.606,-29.541C70.703,-26.367 72.51,-24.561 75.586,-24.561ZM75.586,-4.248C79.297,-4.248 82.373,-6.982 82.373,-10.645C82.373,-14.307 79.346,-17.041 75.586,-17.041C71.826,-17.041 68.799,-14.258 68.799,-10.645C68.799,-7.031 71.875,-4.248 75.586,-4.248Z" style="fill-rule:nonzero;"/>
        </g>
        <g id="Regular-L" transform="matrix(1,0,0,-1,1374.97,1485.59)">
            <path d="M74.854,28.32C109.668,28.32 138.477,-0.488 138.477,-35.254C138.477,-70.068 109.619,-98.877 74.805,-98.877C40.039,-98.877 11.279,-70.068 11.279,-35.254C11.279,-0.488 40.088,28.32 74.854,28.32ZM74.854,19.238C44.678,19.238 20.41,-5.078 20.41,-35.254C20.41,-65.478 44.629,-89.746 74.805,-89.746C105.029,-89.746 129.297,-65.478 129.346,-35.254C129.395,-5.078 105.078,19.238 74.854,19.238ZM74.756,-23.877C77.393,-23.877 78.955,-25.44 79.004,-28.32L79.785,-61.816C79.834,-64.648 77.637,-66.748 74.707,-66.748C71.729,-66.748 69.678,-64.697 69.727,-61.865L70.459,-28.32C70.508,-25.488 72.07,-23.877 74.756,-23.877ZM74.756,-4.004C78.125,-4.004 80.957,-6.689 80.957,-10.01C80.957,-13.379 78.174,-16.016 74.756,-16.016C71.387,-16.016 68.604,-13.33 68.604,-10.01C68.604,-6.738 71.436,-4.004 74.756,-4.004Z" style="fill-rule:nonzero;"/>
        </g>
        <g id="Light-L" transform="matrix(1,0,0,-1,1079.18,1485.59)">
            <path d="M73.926,27.393C108.301,27.393 136.621,-0.928 136.621,-35.254C136.621,-69.629 108.252,-97.949 73.926,-97.949C39.551,-97.949 11.279,-69.629 11.279,-35.254C11.279,-0.928 39.6,27.393 73.926,27.393ZM73.926,20.508C43.115,20.508 18.213,-4.443 18.213,-35.254C18.213,-66.113 43.066,-91.016 73.926,-91.016C104.736,-91.016 129.688,-66.113 129.736,-35.254C129.736,-4.443 104.785,20.508 73.926,20.508ZM73.877,-23.877C75.928,-23.877 77.197,-25.244 77.246,-27.588L77.881,-61.475C77.93,-63.77 76.221,-65.43 73.828,-65.43C71.436,-65.43 69.824,-63.818 69.873,-61.475L70.459,-27.588C70.508,-25.244 71.777,-23.877 73.877,-23.877ZM73.877,-4.834C76.807,-4.834 79.248,-7.227 79.248,-10.107C79.248,-13.037 76.856,-15.381 73.877,-15.381C70.898,-15.381 68.506,-12.988 68.506,-10.107C68.506,-7.275 70.947,-4.834 73.877,-4.834Z" style="fill-rule:nonzero;"/>
        </g>
        <g id="Thin-L" transform="matrix(1,0,0,-1,783.693,1485.59)">
            <path d="M72.705,26.172C106.494,26.172 134.18,-1.514 134.18,-35.254C134.18,-69.043 106.494,-96.729 72.705,-96.729C38.965,-96.729 11.279,-69.043 11.279,-35.254C11.279,-1.514 38.965,26.172 72.705,26.172ZM72.705,22.168C41.016,22.168 15.283,-3.564 15.283,-35.254C15.283,-66.992 41.016,-92.725 72.705,-92.725C104.395,-92.725 130.176,-66.992 130.176,-35.254C130.176,-3.564 104.443,22.168 72.705,22.168ZM72.705,-23.926C74.023,-23.926 74.902,-24.951 74.902,-26.611L75.391,-60.986C75.391,-62.598 74.316,-63.721 72.705,-63.721C71.045,-63.721 70.019,-62.598 70.019,-60.986L70.459,-26.611C70.459,-24.951 71.387,-23.926 72.705,-23.926ZM72.705,-5.957C75.098,-5.957 77.002,-7.959 77.002,-10.205C77.002,-12.549 75.098,-14.502 72.705,-14.502C70.313,-14.502 68.408,-12.549 68.408,-10.205C68.408,-7.959 70.313,-5.957 72.705,-5.957Z" style="fill-rule:nonzero;"/>
        </g>
        <g id="Ultralight-L" transform="matrix(1,0,0,-1,487.616,1485.59)">
            <path d="M72.119,25.537C105.566,25.537 132.91,-1.807 132.91,-35.254C132.91,-68.75 105.566,-96.094 72.119,-96.094C38.623,-96.094 11.279,-68.75 11.279,-35.254C11.279,-1.807 38.623,25.537 72.119,25.537ZM72.119,23.047C39.941,23.047 13.77,-3.125 13.77,-35.254C13.77,-67.432 39.941,-93.604 72.119,-93.604C104.248,-93.604 130.42,-67.432 130.42,-35.254C130.42,-3.125 104.248,23.047 72.119,23.047ZM72.07,-23.926C73.047,-23.926 73.731,-24.805 73.731,-26.123L74.072,-60.742C74.072,-62.012 73.34,-62.842 72.07,-62.842C70.85,-62.842 70.117,-62.012 70.068,-60.693L70.459,-26.123C70.459,-24.805 71.143,-23.926 72.07,-23.926ZM72.07,-6.494C74.219,-6.494 75.83,-8.35 75.83,-10.303C75.83,-12.305 74.219,-14.063 72.07,-14.063C69.971,-14.063 68.311,-12.305 68.311,-10.303C68.311,-8.35 69.971,-6.494 72.07,-6.494Z" style="fill-rule:nonzero;"/>
        </g>
        <g id="Black-M" transform="matrix(1,0,0,-1,2870.97,1055.59)">
            <path d="M62.402,18.457C91.992,18.457 116.113,-5.615 116.113,-35.205C116.113,-64.795 91.992,-88.867 62.402,-88.867C32.813,-88.867 8.74,-64.795 8.74,-35.205C8.74,-5.615 32.813,18.457 62.402,18.457ZM62.402,0.195C42.871,0.195 27.002,-15.625 27.002,-35.205C27.002,-54.736 42.871,-70.606 62.402,-70.606C81.982,-70.606 97.803,-54.736 97.803,-35.205C97.803,-15.625 81.982,0.195 62.402,0.195ZM62.5,-30.518C66.65,-30.518 69.092,-32.764 69.336,-37.012L70.215,-50.195C70.508,-54.785 67.334,-57.813 62.402,-57.813C57.52,-57.813 54.297,-54.785 54.639,-50.195L55.518,-36.914C55.762,-32.764 58.252,-30.518 62.5,-30.518ZM62.5,-12.744C67.139,-12.744 70.361,-15.185 70.361,-19.531C70.361,-23.779 67.139,-26.27 62.5,-26.27C57.813,-26.27 54.443,-23.877 54.443,-19.531C54.443,-15.185 57.813,-12.744 62.5,-12.744Z" style="fill-rule:nonzero;"/>
        </g>
        <g id="Heavy-M" transform="matrix(1,0,0,-1,2575.19,1055.59)">
            <path d="M61.523,17.529C90.527,17.529 114.258,-6.201 114.258,-35.205C114.258,-64.258 90.527,-87.988 61.475,-87.988C32.471,-87.988 8.74,-64.258 8.74,-35.205C8.74,-6.201 32.471,17.529 61.523,17.529ZM61.523,1.611C41.113,1.611 24.658,-14.844 24.658,-35.205C24.658,-55.615 41.113,-72.07 61.475,-72.07C81.885,-72.07 98.34,-55.615 98.34,-35.205C98.34,-14.844 81.885,1.611 61.523,1.611ZM61.523,-29.541C65.234,-29.541 67.432,-31.592 67.676,-35.449L68.506,-51.563C68.75,-55.664 65.82,-58.398 61.475,-58.398C57.129,-58.398 54.199,-55.664 54.492,-51.611L55.322,-35.352C55.518,-31.592 57.764,-29.541 61.523,-29.541ZM61.523,-12.256C65.772,-12.256 68.799,-14.648 68.799,-18.604C68.799,-22.559 65.772,-24.951 61.523,-24.951C57.324,-24.951 54.15,-22.559 54.15,-18.604C54.15,-14.648 57.324,-12.256 61.523,-12.256Z" style="fill-rule:nonzero;"/>
        </g>
        <g id="Bold-M" transform="matrix(1,0,0,-1,2279.5,1055.59)">
            <path d="M60.498,16.504C88.867,16.504 112.207,-6.836 112.207,-35.205C112.207,-63.623 88.867,-86.963 60.449,-86.963C32.031,-86.963 8.74,-63.623 8.74,-35.205C8.74,-6.836 32.08,16.504 60.498,16.504ZM60.498,3.223C39.16,3.223 22.07,-13.916 22.07,-35.205C22.07,-56.543 39.16,-73.682 60.449,-73.682C81.738,-73.682 98.926,-56.543 98.926,-35.205C98.975,-13.916 81.787,3.223 60.498,3.223ZM60.498,-28.467C63.721,-28.467 65.625,-30.273 65.772,-33.643L66.553,-53.125C66.748,-56.69 64.16,-59.131 60.4,-59.131C56.641,-59.131 54.102,-56.69 54.297,-53.174L55.078,-33.594C55.225,-30.273 57.178,-28.467 60.498,-28.467ZM60.498,-11.67C64.209,-11.67 67.041,-14.014 67.041,-17.578C67.041,-21.143 64.258,-23.486 60.498,-23.486C56.738,-23.486 53.809,-21.143 53.809,-17.578C53.809,-14.014 56.738,-11.67 60.498,-11.67Z" style="fill-rule:nonzero;"/>
        </g>
        <g id="Semibold-M" transform="matrix(1,0,0,-1,1983.5,1055.59)">
            <path d="M59.766,15.82C87.744,15.82 110.791,-7.275 110.791,-35.254C110.791,-63.232 87.695,-86.279 59.766,-86.279C31.787,-86.279 8.74,-63.232 8.74,-35.254C8.74,-7.275 31.787,15.82 59.766,15.82ZM59.766,4.346C37.842,4.346 20.264,-13.33 20.264,-35.254C20.264,-57.178 37.793,-74.805 59.766,-74.805C81.69,-74.805 99.316,-57.178 99.365,-35.254C99.365,-13.33 81.69,4.346 59.766,4.346ZM59.766,-27.734C62.647,-27.734 64.356,-29.346 64.502,-32.422L65.234,-54.199C65.381,-57.373 63.037,-59.57 59.717,-59.57C56.348,-59.57 54.053,-57.373 54.199,-54.248L54.932,-32.373C55.029,-29.395 56.738,-27.734 59.766,-27.734ZM59.766,-11.279C63.135,-11.279 65.869,-13.574 65.869,-16.895C65.869,-20.166 63.184,-22.461 59.766,-22.461C56.299,-22.461 53.613,-20.166 53.613,-16.895C53.613,-13.574 56.348,-11.279 59.766,-11.279Z" style="fill-rule:nonzero;"/>
        </g>
        <g id="Medium-M" transform="matrix(1,0,0,-1,1687.3,1055.59)">
            <path d="M59.228,15.234C86.914,15.234 109.766,-7.617 109.766,-35.254C109.766,-62.891 86.865,-85.742 59.18,-85.742C31.543,-85.742 8.74,-62.891 8.74,-35.254C8.74,-7.617 31.592,15.234 59.228,15.234ZM59.228,5.176C36.816,5.176 18.897,-12.842 18.897,-35.254C18.897,-57.666 36.816,-75.635 59.18,-75.635C81.592,-75.635 99.609,-57.666 99.658,-35.254C99.707,-12.842 81.641,5.176 59.228,5.176ZM59.18,-27.148C61.865,-27.148 63.428,-28.662 63.477,-31.494L64.209,-54.981C64.307,-57.861 62.158,-59.961 59.131,-59.961C56.103,-59.961 54.004,-57.91 54.102,-55.029L54.785,-31.494C54.883,-28.711 56.445,-27.148 59.18,-27.148ZM59.18,-10.938C62.353,-10.938 64.941,-13.232 64.941,-16.357C64.941,-19.434 62.402,-21.729 59.18,-21.729C56.006,-21.729 53.418,-19.434 53.418,-16.357C53.418,-13.281 56.055,-10.938 59.18,-10.938Z" style="fill-rule:nonzero;"/>
        </g>
        <g id="Regular-M" transform="matrix(1,0,0,-1,1391.3,1055.59)">
            <path d="M58.545,14.551C85.791,14.551 108.35,-8.057 108.35,-35.254C108.35,-62.5 85.742,-85.059 58.496,-85.059C31.299,-85.059 8.74,-62.5 8.74,-35.254C8.74,-8.057 31.348,14.551 58.545,14.551ZM58.545,6.25C35.498,6.25 17.09,-12.207 17.09,-35.254C17.09,-58.301 35.449,-76.758 58.496,-76.758C81.543,-76.758 100,-58.301 100.049,-35.254C100.098,-12.207 81.592,6.25 58.545,6.25ZM58.496,-26.416C60.791,-26.416 62.158,-27.734 62.207,-30.273L62.94,-56.055C62.988,-58.545 61.035,-60.4 58.447,-60.4C55.811,-60.4 53.955,-58.594 54.004,-56.103L54.639,-30.273C54.688,-27.783 56.055,-26.416 58.496,-26.416ZM58.496,-10.547C61.279,-10.547 63.721,-12.793 63.721,-15.625C63.721,-18.506 61.328,-20.703 58.496,-20.703C55.615,-20.703 53.223,-18.457 53.223,-15.625C53.223,-12.842 55.664,-10.547 58.496,-10.547Z" style="fill-rule:nonzero;"/>
        </g>
        <g id="Light-M" transform="matrix(1,0,0,-1,1095.42,1055.59)">
            <path d="M57.715,13.721C84.522,13.721 106.689,-8.447 106.689,-35.254C106.689,-62.109 84.522,-84.229 57.666,-84.229C30.859,-84.229 8.74,-62.109 8.74,-35.254C8.74,-8.447 30.908,13.721 57.715,13.721ZM57.715,7.373C34.082,7.373 15.088,-11.67 15.088,-35.254C15.088,-58.887 34.082,-77.93 57.666,-77.93C81.299,-77.93 100.342,-58.887 100.391,-35.254C100.391,-11.67 81.348,7.373 57.715,7.373ZM57.666,-26.465C59.522,-26.465 60.596,-27.588 60.645,-29.639L61.231,-55.713C61.231,-57.764 59.717,-59.228 57.617,-59.228C55.518,-59.228 54.053,-57.764 54.102,-55.762L54.639,-29.639C54.639,-27.588 55.762,-26.465 57.666,-26.465ZM57.666,-11.328C60.107,-11.328 62.207,-13.281 62.207,-15.723C62.207,-18.164 60.156,-20.117 57.666,-20.117C55.176,-20.117 53.125,-18.164 53.125,-15.723C53.125,-13.33 55.225,-11.328 57.666,-11.328Z" style="fill-rule:nonzero;"/>
        </g>
        <g id="Thin-M" transform="matrix(1,0,0,-1,799.806,1055.59)">
            <path d="M56.641,12.598C82.91,12.598 104.492,-8.984 104.492,-35.254C104.492,-61.572 82.91,-83.154 56.592,-83.154C30.322,-83.154 8.74,-61.572 8.74,-35.254C8.74,-8.984 30.322,12.598 56.641,12.598ZM56.641,8.887C32.227,8.887 12.451,-10.889 12.451,-35.254C12.451,-59.619 32.227,-79.443 56.592,-79.443C81.006,-79.443 100.781,-59.619 100.781,-35.254C100.781,-10.889 81.006,8.887 56.641,8.887ZM56.592,-26.465C57.764,-26.465 58.545,-27.344 58.545,-28.76L58.935,-55.273C58.984,-56.69 58.008,-57.666 56.592,-57.666C55.127,-57.666 54.199,-56.69 54.199,-55.273L54.59,-28.76C54.59,-27.344 55.371,-26.465 56.592,-26.465ZM56.592,-12.305C58.545,-12.305 60.156,-13.965 60.156,-15.82C60.156,-17.773 58.594,-19.336 56.592,-19.336C54.59,-19.336 53.027,-17.725 53.027,-15.82C53.027,-13.965 54.639,-12.305 56.592,-12.305Z" style="fill-rule:nonzero;"/>
        </g>
        <g id="Ultralight-M" transform="matrix(1,0,0,-1,503.656,1055.59)">
            <path d="M56.055,12.06C82.08,12.06 103.369,-9.229 103.369,-35.254C103.369,-61.279 82.08,-82.568 56.055,-82.568C30.029,-82.568 8.74,-61.279 8.74,-35.254C8.74,-9.229 30.029,12.06 56.055,12.06ZM56.055,9.668C31.299,9.668 11.133,-10.498 11.133,-35.254C11.133,-60.059 31.299,-80.176 56.055,-80.176C80.859,-80.176 100.977,-60.059 100.977,-35.254C100.977,-10.498 80.859,9.668 56.055,9.668ZM56.055,-26.465C56.885,-26.465 57.52,-27.197 57.52,-28.32L57.813,-55.078C57.813,-56.152 57.129,-56.885 56.055,-56.885C54.932,-56.885 54.297,-56.152 54.297,-55.078L54.59,-28.32C54.59,-27.197 55.176,-26.465 56.055,-26.465ZM56.055,-12.793C57.764,-12.793 59.131,-14.307 59.131,-15.869C59.131,-17.529 57.764,-18.945 56.055,-18.945C54.297,-18.945 52.978,-17.529 52.978,-15.869C52.978,-14.307 54.297,-12.793 56.055,-12.793Z" style="fill-rule:nonzero;"/>
        </g>
        <g id="Black-S" transform="matrix(1,0,0,-1,2884.57,625.59)">
            <path d="M48.828,6.787C71.973,6.787 90.82,-12.06 90.82,-35.205C90.82,-58.35 71.973,-77.197 48.828,-77.197C25.684,-77.197 6.836,-58.35 6.836,-35.205C6.836,-12.06 25.684,6.787 48.828,6.787ZM48.828,-7.373C33.447,-7.373 20.996,-19.824 20.996,-35.205C20.996,-50.586 33.447,-63.037 48.828,-63.037C64.209,-63.037 76.66,-50.586 76.66,-35.205C76.66,-19.824 64.209,-7.373 48.828,-7.373ZM48.877,-31.445C52.1,-31.445 54.004,-33.203 54.199,-36.523L54.883,-47.07C55.127,-50.635 52.637,-52.978 48.828,-52.978C45.02,-52.978 42.529,-50.635 42.773,-47.07L43.457,-36.426C43.652,-33.203 45.606,-31.445 48.877,-31.445ZM48.877,-17.578C52.49,-17.578 55.029,-19.482 55.029,-22.852C55.029,-26.172 52.49,-28.125 48.877,-28.125C45.264,-28.125 42.627,-26.221 42.627,-22.852C42.627,-19.482 45.264,-17.578 48.877,-17.578Z" style="fill-rule:nonzero;"/>
        </g>
        <g id="Heavy-S" transform="matrix(1,0,0,-1,2588.47,625.59)">
            <path d="M48.242,6.152C70.996,6.152 89.6,-12.451 89.6,-35.205C89.6,-57.959 70.996,-76.611 48.193,-76.611C25.44,-76.611 6.836,-57.959 6.836,-35.205C6.836,-12.451 25.44,6.152 48.242,6.152ZM48.242,-6.396C32.275,-6.396 19.434,-19.287 19.434,-35.205C19.434,-51.172 32.275,-64.014 48.193,-64.014C64.16,-64.014 77.002,-51.172 77.051,-35.205C77.051,-19.287 64.16,-6.396 48.242,-6.396ZM48.242,-30.713C51.221,-30.713 52.93,-32.324 53.076,-35.4L53.76,-48.145C53.955,-51.416 51.66,-53.565 48.193,-53.565C44.727,-53.565 42.432,-51.416 42.627,-48.193L43.311,-35.303C43.457,-32.324 45.215,-30.713 48.242,-30.713ZM48.242,-17.09C51.563,-17.09 54.004,-18.994 54.004,-22.119C54.004,-25.244 51.563,-27.197 48.242,-27.197C44.922,-27.197 42.432,-25.293 42.432,-22.119C42.432,-18.994 44.922,-17.09 48.242,-17.09Z" style="fill-rule:nonzero;"/>
        </g>
        <g id="Bold-S" transform="matrix(1,0,0,-1,2292.44,625.59)">
            <path d="M47.559,5.469C69.873,5.469 88.232,-12.891 88.232,-35.254C88.232,-57.568 69.873,-75.928 47.51,-75.928C25.195,-75.928 6.836,-57.568 6.836,-35.254C6.836,-12.891 25.195,5.469 47.559,5.469ZM47.559,-5.322C30.957,-5.322 17.676,-18.652 17.676,-35.254C17.676,-51.807 30.957,-65.137 47.51,-65.137C64.111,-65.137 77.441,-51.807 77.441,-35.254C77.441,-18.652 64.111,-5.322 47.559,-5.322ZM47.559,-29.883C50.195,-29.883 51.758,-31.348 51.856,-34.082L52.49,-49.365C52.637,-52.246 50.537,-54.248 47.51,-54.248C44.434,-54.248 42.383,-52.295 42.529,-49.414L43.115,-34.033C43.262,-31.348 44.824,-29.883 47.559,-29.883ZM47.559,-16.553C50.537,-16.553 52.881,-18.457 52.881,-21.338C52.881,-24.219 50.586,-26.123 47.559,-26.123C44.531,-26.123 42.188,-24.219 42.188,-21.338C42.188,-18.457 44.531,-16.553 47.559,-16.553Z" style="fill-rule:nonzero;"/>
        </g>
        <g id="Semibold-S" transform="matrix(1,0,0,-1,1996.2,625.59)">
            <path d="M47.07,4.98C69.092,4.98 87.305,-13.184 87.305,-35.254C87.305,-57.275 69.092,-75.488 47.022,-75.488C25,-75.488 6.836,-57.275 6.836,-35.254C6.836,-13.184 25.049,4.98 47.07,4.98ZM47.07,-4.59C30.078,-4.59 16.455,-18.213 16.455,-35.254C16.455,-52.246 30.029,-65.869 47.022,-65.869C64.063,-65.869 77.686,-52.246 77.734,-35.254C77.734,-18.213 64.063,-4.59 47.07,-4.59ZM47.07,-29.297C49.512,-29.297 50.928,-30.664 50.977,-33.203L51.66,-50.244C51.758,-52.832 49.756,-54.736 47.022,-54.736C44.238,-54.736 42.285,-52.881 42.432,-50.244L43.018,-33.203C43.115,-30.664 44.531,-29.297 47.07,-29.297ZM47.07,-16.211C49.853,-16.211 52.051,-18.066 52.051,-20.801C52.051,-23.486 49.853,-25.391 47.07,-25.391C44.238,-25.391 42.041,-23.486 42.041,-20.801C42.041,-18.115 44.287,-16.211 47.07,-16.211Z" style="fill-rule:nonzero;"/>
        </g>
        <g id="Medium-S" transform="matrix(1,0,0,-1,1699.83,625.59)">
            <path d="M46.728,4.639C68.555,4.639 86.621,-13.428 86.621,-35.254C86.621,-57.08 68.506,-75.147 46.68,-75.147C24.854,-75.147 6.836,-57.08 6.836,-35.254C6.836,-13.428 24.902,4.639 46.728,4.639ZM46.728,-4.004C29.395,-4.004 15.527,-17.92 15.527,-35.254C15.527,-52.588 29.346,-66.455 46.68,-66.455C64.014,-66.455 77.881,-52.588 77.93,-35.254C77.979,-17.92 64.063,-4.004 46.728,-4.004ZM46.68,-28.906C48.975,-28.906 50.293,-30.127 50.342,-32.568L50.977,-50.879C51.074,-53.32 49.17,-55.078 46.631,-55.078C44.043,-55.078 42.285,-53.32 42.334,-50.928L42.92,-32.52C43.018,-30.176 44.336,-28.906 46.68,-28.906ZM46.68,-15.918C49.316,-15.918 51.465,-17.773 51.465,-20.361C51.465,-22.949 49.316,-24.854 46.68,-24.854C44.043,-24.854 41.895,-22.949 41.895,-20.361C41.895,-17.822 44.092,-15.918 46.68,-15.918Z" style="fill-rule:nonzero;"/>
        </g>
        <g id="Regular-S" transform="matrix(-1,0,0,-1,1496.11,625.59)">
            <path d="M46.24,4.15C67.773,4.15 85.693,-13.721 85.693,-35.254C85.693,-56.787 67.725,-74.658 46.191,-74.658C24.707,-74.658 6.836,-56.787 6.836,-35.254C6.836,-13.721 24.756,4.15 46.24,4.15ZM46.24,-3.271C28.516,-3.271 14.355,-17.481 14.355,-35.254C14.355,-53.027 28.467,-67.236 46.191,-67.236C63.965,-67.236 78.174,-53.027 78.223,-35.254C78.272,-17.481 64.014,-3.271 46.24,-3.271ZM46.191,-28.32C48.291,-28.32 49.463,-29.443 49.512,-31.69L50.147,-51.709C50.147,-53.857 48.438,-55.518 46.143,-55.518C43.848,-55.518 42.188,-53.906 42.236,-51.758L42.822,-31.69C42.871,-29.492 44.043,-28.32 46.191,-28.32ZM46.191,-15.527C48.584,-15.527 50.684,-17.432 50.684,-19.824C50.684,-22.266 48.633,-24.121 46.191,-24.121C43.799,-24.121 41.748,-22.217 41.748,-19.824C41.748,-17.481 43.848,-15.527 46.191,-15.527Z" style="fill-rule:nonzero;"/>
        </g>
        <g id="Light-S" transform="matrix(-1,0,0,-1,1198.66,625.59)">
            <path d="M45.508,3.418C66.699,3.418 84.229,-14.063 84.229,-35.254C84.229,-56.445 66.65,-73.926 45.508,-73.926C24.316,-73.926 6.836,-56.445 6.836,-35.254C6.836,-14.063 24.365,3.418 45.508,3.418ZM45.508,-2.295C27.246,-2.295 12.598,-16.992 12.598,-35.254C12.598,-53.516 27.197,-68.213 45.508,-68.213C63.77,-68.213 78.467,-53.516 78.516,-35.254C78.516,-16.992 63.818,-2.295 45.508,-2.295ZM45.508,-28.32C47.119,-28.32 48.096,-29.297 48.096,-31.104L48.584,-51.416C48.633,-53.174 47.266,-54.492 45.459,-54.492C43.603,-54.492 42.285,-53.223 42.334,-51.465L42.773,-31.104C42.822,-29.346 43.799,-28.32 45.508,-28.32ZM45.508,-16.211C47.559,-16.211 49.316,-17.871 49.316,-19.922C49.316,-21.973 47.559,-23.633 45.508,-23.633C43.408,-23.633 41.65,-21.973 41.65,-19.922C41.65,-17.871 43.408,-16.211 45.508,-16.211Z" style="fill-rule:nonzero;"/>
        </g>
        <g id="Thin-S" transform="matrix(-1,0,0,-1,900.978,625.59)">
            <path d="M44.58,2.49C65.283,2.49 82.275,-14.551 82.275,-35.254C82.275,-55.957 65.234,-72.998 44.531,-72.998C23.828,-72.998 6.836,-55.957 6.836,-35.254C6.836,-14.551 23.877,2.49 44.58,2.49ZM44.58,-0.928C25.586,-0.928 10.254,-16.309 10.254,-35.254C10.254,-54.199 25.586,-69.58 44.531,-69.58C63.525,-69.58 78.857,-54.199 78.857,-35.254C78.857,-16.309 63.525,-0.928 44.58,-0.928ZM44.531,-28.369C45.557,-28.369 46.24,-29.102 46.24,-30.322L46.582,-51.025C46.631,-52.246 45.752,-53.125 44.531,-53.125C43.262,-53.125 42.432,-52.246 42.432,-51.025L42.773,-30.322C42.773,-29.102 43.457,-28.369 44.531,-28.369ZM44.531,-17.09C46.143,-17.09 47.51,-18.408 47.51,-20.02C47.51,-21.631 46.191,-22.949 44.531,-22.949C42.871,-22.949 41.553,-21.631 41.553,-20.02C41.553,-18.457 42.871,-17.09 44.531,-17.09Z" style="fill-rule:nonzero;"/>
        </g>
        <g id="Ultralight-S" transform="matrix(-1,0,0,-1,603.779,625.59)">
            <path d="M44.043,1.953C64.502,1.953 81.299,-14.795 81.299,-35.254C81.299,-55.713 64.502,-72.461 44.043,-72.461C23.584,-72.461 6.836,-55.713 6.836,-35.254C6.836,-14.795 23.584,1.953 44.043,1.953ZM44.043,-0.244C24.756,-0.244 9.082,-15.967 9.082,-35.254C9.082,-54.541 24.756,-70.264 44.043,-70.264C63.379,-70.264 79.053,-54.541 79.053,-35.254C79.053,-15.967 63.379,-0.244 44.043,-0.244ZM44.043,-28.369C44.775,-28.369 45.313,-29.004 45.313,-29.932L45.557,-50.83C45.557,-51.758 44.971,-52.393 44.043,-52.393C43.066,-52.393 42.481,-51.758 42.481,-50.83L42.773,-29.932C42.773,-29.004 43.262,-28.369 44.043,-28.369ZM44.043,-17.529C45.459,-17.529 46.582,-18.75 46.582,-20.068C46.582,-21.436 45.459,-22.607 44.043,-22.607C42.627,-22.607 41.504,-21.436 41.504,-20.068C41.504,-18.75 42.627,-17.529 44.043,-17.529Z" style="fill-rule:nonzero;"/>
        </g>
    </g>
</svg>
