<?xml version="1.0" encoding="UTF-8" standalone="no"?>
<!DOCTYPE svg PUBLIC "-//W3C//DTD SVG 1.1//EN" "http://www.w3.org/Graphics/SVG/1.1/DTD/svg11.dtd">
<svg width="100%" height="100%" viewBox="0 0 3300 2200" version="1.1" xmlns="http://www.w3.org/2000/svg" xmlns:xlink="http://www.w3.org/1999/xlink" xml:space="preserve" xmlns:serif="http://www.serif.com/" style="fill-rule:evenodd;clip-rule:evenodd;">
    <g id="Notes">
        <rect id="artboard" x="0" y="0" width="3300" height="2200" style="fill:white;"/>
        <path d="M263,292L3036,292" style="fill:none;fill-rule:nonzero;stroke:black;stroke-width:0.5px;"/>
        <g transform="matrix(1,0,0,1,263,322)">
            <text x="0px" y="0px" style="font-family:'SFProDisplay-Regular', 'SF Pro Display';font-size:16px;">W<tspan x="13.922px " y="0px ">e</tspan>ight/Scale V<tspan x="101.313px " y="0px ">a</tspan>riations</text>
        </g>
        <g transform="matrix(1,0,0,1,559.711,322)">
            <text x="-30.41px" y="0px" style="font-family:'SFProDisplay-Regular', 'SF Pro Display';font-size:16px;">Ultr<tspan x="-6.41px " y="0px ">a</tspan>light</text>
        </g>
        <g transform="matrix(1,0,0,1,856.422,322)">
            <text x="-14.824px" y="0px" style="font-family:'SFProDisplay-Regular', 'SF Pro Display';font-size:16px;">Thin</text>
        </g>
        <g transform="matrix(1,0,0,1,1153.13,322)">
            <text x="-16.957px" y="0px" style="font-family:'SFProDisplay-Regular', 'SF Pro Display';font-size:16px;">Light</text>
        </g>
        <g transform="matrix(1,0,0,1,1449.84,322)">
            <text x="-25.609px" y="0px" style="font-family:'SFProDisplay-Regular', 'SF Pro Display';font-size:16px;">Regular</text>
        </g>
        <g transform="matrix(1,0,0,1,1746.56,322)">
            <text x="-27.465px" y="0px" style="font-family:'SFProDisplay-Regular', 'SF Pro Display';font-size:16px;">Medium</text>
        </g>
        <g transform="matrix(1,0,0,1,2043.27,322)">
            <text x="-31.656px" y="0px" style="font-family:'SFProDisplay-Regular', 'SF Pro Display';font-size:16px;">Semibold</text>
        </g>
        <g transform="matrix(1,0,0,1,2339.98,322)">
            <text x="-15.145px" y="0px" style="font-family:'SFProDisplay-Regular', 'SF Pro Display';font-size:16px;">Bold</text>
        </g>
        <g transform="matrix(1,0,0,1,2636.69,322)">
            <text x="-21.461px" y="0px" style="font-family:'SFProDisplay-Regular', 'SF Pro Display';font-size:16px;">Heavy</text>
        </g>
        <g transform="matrix(1,0,0,1,2933.4,322)">
            <text x="-18.375px" y="0px" style="font-family:'SFProDisplay-Regular', 'SF Pro Display';font-size:16px;">Black</text>
        </g>
        <path d="M263,1903L3036,1903" style="fill:none;fill-rule:nonzero;stroke:black;stroke-width:0.5px;"/>
        <g transform="matrix(1,0,0,1,263,1933)">
            <path d="M9.248,0.83C13.555,0.83 17.139,-2.744 17.139,-7.051C17.139,-11.357 13.545,-14.932 9.238,-14.932C4.941,-14.932 1.367,-11.357 1.367,-7.051C1.367,-2.744 4.951,0.83 9.248,0.83ZM9.248,-0.654C5.703,-0.654 2.871,-3.496 2.871,-7.051C2.871,-10.605 5.693,-13.447 9.238,-13.447C12.793,-13.447 15.635,-10.605 15.645,-7.051C15.654,-3.496 12.803,-0.654 9.248,-0.654ZM6.396,-6.318L8.506,-6.318L8.506,-4.199C8.506,-3.76 8.799,-3.457 9.229,-3.457C9.678,-3.457 9.971,-3.76 9.971,-4.199L9.971,-6.318L12.1,-6.318C12.539,-6.318 12.842,-6.611 12.842,-7.041C12.842,-7.48 12.539,-7.783 12.1,-7.783L9.971,-7.783L9.971,-9.893C9.971,-10.342 9.678,-10.645 9.229,-10.645C8.799,-10.645 8.506,-10.342 8.506,-9.893L8.506,-7.783L6.396,-7.783C5.947,-7.783 5.645,-7.48 5.645,-7.041C5.645,-6.611 5.947,-6.318 6.396,-6.318Z" style="fill-rule:nonzero;"/>
        </g>
        <g transform="matrix(1,0,0,1,281.506,1933)">
            <path d="M11.709,2.91C17.158,2.91 21.67,-1.611 21.67,-7.051C21.67,-12.5 17.148,-17.012 11.699,-17.012C6.26,-17.012 1.748,-12.5 1.748,-7.051C1.748,-1.611 6.27,2.91 11.709,2.91ZM11.709,1.25C7.1,1.25 3.418,-2.441 3.418,-7.051C3.418,-11.66 7.09,-15.352 11.699,-15.352C16.309,-15.352 20,-11.66 20.01,-7.051C20.02,-2.441 16.318,1.25 11.709,1.25ZM7.988,-6.23L10.879,-6.23L10.879,-3.32C10.879,-2.832 11.211,-2.5 11.69,-2.5C12.178,-2.5 12.52,-2.832 12.52,-3.32L12.52,-6.23L15.43,-6.23C15.918,-6.23 16.25,-6.563 16.25,-7.041C16.25,-7.529 15.918,-7.871 15.43,-7.871L12.52,-7.871L12.52,-10.762C12.52,-11.27 12.178,-11.602 11.69,-11.602C11.211,-11.602 10.879,-11.26 10.879,-10.762L10.879,-7.871L7.988,-7.871C7.48,-7.871 7.148,-7.529 7.148,-7.041C7.148,-6.563 7.49,-6.23 7.988,-6.23Z" style="fill-rule:nonzero;"/>
        </g>
        <g transform="matrix(1,0,0,1,304.924,1933)">
            <path d="M14.971,5.664C21.934,5.664 27.695,-0.098 27.695,-7.051C27.695,-14.014 21.924,-19.775 14.961,-19.775C8.008,-19.775 2.256,-14.014 2.256,-7.051C2.256,-0.098 8.018,5.664 14.971,5.664ZM14.971,3.848C8.936,3.848 4.082,-1.016 4.082,-7.051C4.082,-13.096 8.926,-17.949 14.961,-17.949C21.006,-17.949 25.859,-13.096 25.869,-7.051C25.879,-1.016 21.016,3.848 14.971,3.848ZM10.059,-6.143L14.063,-6.143L14.063,-2.129C14.063,-1.592 14.434,-1.221 14.951,-1.221C15.488,-1.221 15.859,-1.592 15.859,-2.129L15.859,-6.143L19.883,-6.143C20.41,-6.143 20.791,-6.514 20.791,-7.031C20.791,-7.568 20.42,-7.949 19.883,-7.949L15.859,-7.949L15.859,-11.953C15.859,-12.51 15.488,-12.881 14.951,-12.881C14.434,-12.881 14.063,-12.5 14.063,-11.953L14.063,-7.949L10.059,-7.949C9.502,-7.949 9.131,-7.568 9.131,-7.031C9.131,-6.514 9.512,-6.143 10.059,-6.143Z" style="fill-rule:nonzero;"/>
        </g>
        <g transform="matrix(1,0,0,1,263,1953)">
            <text x="0px" y="0px" style="font-family:'SFProDisplay-Regular', 'SF Pro Display';font-size:16px;">Design V<tspan x="59.211px " y="0px ">a</tspan>riations</text>
        </g>
        <g transform="matrix(1,0,0,1,263,1971)">
            <text x="0px" y="0px" style="font-family:'SFProDisplay-Regular', 'SF Pro Display';font-size:16px;">Symbols ar<tspan x="74.039px " y="0px ">e</tspan> support<tspan x="136.977px " y="0px ">e</tspan>d in up t<tspan x="197.406px " y="0px ">o</tspan> nine weights and thr<tspan x="343.289px " y="0px ">e</tspan>e scales.</text>
        </g>
        <g transform="matrix(1,0,0,1,263,1989)">
            <text x="0px" y="0px" style="font-family:'SFProDisplay-Regular', 'SF Pro Display';font-size:16px;">F<tspan x="8.133px " y="0px ">o</tspan>r optimal lay<tspan x="96.43px " y="0px ">o</tspan>ut with t<tspan x="157.508px 165.547px " y="0px 0px ">ex</tspan>t and other symbols,<tspan x="306.883px 310.164px 317.578px " y="0px 0px 0px "> ve</tspan>rtically align</text>
        </g>
        <g transform="matrix(1,0,0,1,263,2007)">
            <text x="0px" y="0px" style="font-family:'SFProDisplay-Regular', 'SF Pro Display';font-size:16px;">symbols with the adjacent t<tspan x="181.344px 189.383px " y="0px 0px ">ex</tspan>t.</text>
        </g>
        <path d="M776,1919L776,1933" style="fill:none;fill-rule:nonzero;stroke:rgb(0,174,239);stroke-width:0.5px;"/>
        <g transform="matrix(1,0,0,1,776,1933)">
            <path d="M3.311,0.127C3.828,0.127 4.082,-0.068 4.268,-0.605L5.527,-4.063L11.289,-4.063L12.549,-0.605C12.734,-0.068 12.988,0.127 13.496,0.127C14.014,0.127 14.346,-0.186 14.346,-0.674C14.346,-0.84 14.316,-0.986 14.238,-1.201L9.658,-13.389C9.434,-13.994 9.033,-14.287 8.408,-14.287C7.803,-14.287 7.393,-13.994 7.178,-13.398L2.598,-1.191C2.52,-0.977 2.49,-0.83 2.49,-0.664C2.49,-0.176 2.803,0.127 3.311,0.127ZM6.006,-5.537L8.379,-12.109L8.428,-12.109L10.801,-5.537L6.006,-5.537Z" style="fill-rule:nonzero;"/>
        </g>
        <path d="M792.836,1919L792.836,1933" style="fill:none;fill-rule:nonzero;stroke:rgb(0,174,239);stroke-width:0.5px;"/>
        <g transform="matrix(1,0,0,1,776,1953)">
            <text x="0px" y="0px" style="font-family:'SFProDisplay-Regular', 'SF Pro Display';font-size:16px;">M<tspan x="13.063px 21.094px 25.633px " y="0px 0px 0px ">arg</tspan>ins</text>
        </g>
        <g transform="matrix(1,0,0,1,776,1971)">
            <text x="0px" y="0px" style="font-family:'SFProDisplay-Regular', 'SF Pro Display';font-size:16px;">L<tspan x="8.156px " y="0px ">e</tspan>ading and tr<tspan x="95.227px " y="0px ">a</tspan>iling mar<tspan x="159.031px " y="0px ">g</tspan>ins on the left and right side of each symbol</text>
        </g>
        <g transform="matrix(1,0,0,1,776,1989)">
            <text x="0px" y="0px" style="font-family:'SFProDisplay-Regular', 'SF Pro Display';font-size:16px;">can be adjust<tspan x="88.727px " y="0px ">e</tspan>d b<tspan x="117.609px " y="0px ">y</tspan> modifying the x<tspan x="230.703px " y="0px ">-</tspan>location of the mar<tspan x="360.664px " y="0px ">g</tspan>in guidelines.</text>
        </g>
        <g transform="matrix(1,0,0,1,776,2007)">
            <text x="0px" y="0px" style="font-family:'SFProDisplay-Regular', 'SF Pro Display';font-size:16px;">Modifications ar<tspan x="106.484px " y="0px ">e</tspan> aut<tspan x="139.008px " y="0px ">o</tspan>matically applied pr<tspan x="275.977px " y="0px ">o</tspan>portionally t<tspan x="361.93px " y="0px ">o</tspan> all</text>
        </g>
        <g transform="matrix(1,0,0,1,776,2025)">
            <text x="0px" y="0px" style="font-family:'SFProDisplay-Regular', 'SF Pro Display';font-size:16px;">scales and weights.</text>
        </g>
        <g transform="matrix(1,0,0,1,1289,1933)">
            <path d="M2.842,1.865L4.541,3.574C5.4,4.443 6.387,4.385 7.314,3.359L17.49,-7.852C17.754,-7.764 18.027,-7.783 18.34,-7.842L19.404,-8.037L20.068,-7.363L20.029,-6.807C19.99,-6.309 20.117,-5.928 20.606,-5.449L21.367,-4.707C21.846,-4.229 22.461,-4.199 22.93,-4.668L25.84,-7.588C26.309,-8.057 26.289,-8.652 25.811,-9.131L25.039,-9.893C24.561,-10.371 24.19,-10.527 23.711,-10.488L23.135,-10.44L22.49,-11.074L22.734,-12.197C22.861,-12.764 22.705,-13.203 22.119,-13.789L19.922,-15.977C16.582,-19.297 12.148,-19.219 9.258,-16.328C8.838,-15.918 8.809,-15.342 9.043,-14.951C9.277,-14.59 9.736,-14.355 10.381,-14.522C11.846,-14.863 13.369,-14.922 14.795,-13.984L14.209,-12.529C14.014,-12.051 13.984,-11.65 14.111,-11.289L3.047,-0.898C2.061,0.02 1.982,0.996 2.842,1.865ZM10.752,-15.957C13.184,-17.734 16.475,-17.432 18.701,-15.205L21.133,-12.793C21.367,-12.559 21.406,-12.373 21.338,-12.031L21.016,-10.547L22.52,-9.063L23.506,-9.121C23.76,-9.131 23.838,-9.111 24.033,-8.916L24.609,-8.34L22.168,-5.898L21.592,-6.475C21.397,-6.67 21.367,-6.748 21.377,-7.012L21.445,-7.988L19.951,-9.473L18.428,-9.219C18.106,-9.15 17.959,-9.18 17.715,-9.414L15.713,-11.416C15.459,-11.65 15.43,-11.816 15.586,-12.188L16.465,-14.277C14.902,-15.732 12.871,-16.357 10.84,-15.762C10.684,-15.723 10.625,-15.85 10.752,-15.957ZM5.273,2.305L4.102,1.143C3.633,0.684 3.74,0.342 4.141,-0.02L14.951,-10.195L16.416,-8.711L6.426,2.275C6.074,2.676 5.742,2.773 5.273,2.305Z" style="fill-rule:nonzero;"/>
        </g>
        <g transform="matrix(1,0,0,1,1289,1953)">
            <text x="0px" y="0px" style="font-family:'SFProDisplay-Regular', 'SF Pro Display';font-size:16px;">Exporting</text>
        </g>
        <g transform="matrix(1,0,0,1,1289,1971)">
            <text x="0px" y="0px" style="font-family:'SFProDisplay-Regular', 'SF Pro Display';font-size:16px;">Symbols should be outlined when e<tspan x="235.289px " y="0px ">x</tspan>porting t<tspan x="298.188px " y="0px ">o</tspan> ensur<tspan x="347px " y="0px ">e</tspan> the</text>
        </g>
        <g transform="matrix(1,0,0,1,1289,1989)">
            <text x="0px" y="0px" style="font-family:'SFProDisplay-Regular', 'SF Pro Display';font-size:16px;">design is pr<tspan x="75.641px " y="0px ">e</tspan>serv<tspan x="111.82px " y="0px ">e</tspan>d when submitting t<tspan x="251.031px " y="0px ">o</tspan> X<tspan x="272.414px " y="0px ">c</tspan>ode.</text>
        </g>
        <g id="template-version" transform="matrix(1,0,0,1,3036,1933)">
            <text x="-96.57px" y="0px" style="font-family:'SFProDisplay-Regular', 'SF Pro Display';font-size:16px;">T<tspan x="-89.383px " y="0px ">e</tspan>mplat<tspan x="-43.664px " y="0px ">e</tspan> v<tspan x="-25.633px " y="0px ">.</tspan>2.0</text>
        </g>
        <g transform="matrix(1,0,0,1,3036,1951)">
            <text x="-191.594px" y="0px" style="font-family:'SFProDisplay-Regular', 'SF Pro Display';font-size:16px;">Requir<tspan x="-148.766px " y="0px ">e</tspan>s X<tspan x="-120.234px " y="0px ">c</tspan>ode 12 or gr<tspan x="-33.938px " y="0px ">e</tspan>at<tspan x="-13.125px " y="0px ">e</tspan>r</text>
        </g>
        <g transform="matrix(1,0,0,1,3036,1969)">
            <text x="-178.828px" y="0px" style="font-family:'SFProDisplay-Regular', 'SF Pro Display';font-size:16px;">Gener<tspan x="-137.93px -129.898px -125.313px " y="0px 0px 0px ">ate</tspan>d fr<tspan x="-95.578px " y="0px ">o</tspan>m figur<tspan x="-41.047px -32.852px -30.352px -19.063px " y="0px 0px 0px 0px ">e.wa</tspan>lk</text>
        </g>
        <g transform="matrix(1,0,0,1,3036,1987)">
            <text x="-143.117px" y="0px" style="font-family:'SFProDisplay-Regular', 'SF Pro Display';font-size:16px;">T<tspan x="-135.695px " y="0px ">y</tspan>peset at 100 points</text>
        </g>
        <g transform="matrix(1,0,0,1,263,726)">
            <text x="0px" y="0px" style="font-family:'SFProDisplay-Regular', 'SF Pro Display';font-size:16px;">Small</text>
        </g>
        <g transform="matrix(1,0,0,1,263,1156)">
            <text x="0px" y="0px" style="font-family:'SFProDisplay-Regular', 'SF Pro Display';font-size:16px;">Medium</text>
        </g>
        <g transform="matrix(1,0,0,1,263,1586)">
            <text x="0px" y="0px" style="font-family:'SFProDisplay-Regular', 'SF Pro Display';font-size:16px;">Lar<tspan x="20.961px " y="0px ">g</tspan>e</text>
        </g>
    </g>
    <g id="Guides">
        <g id="H-reference" transform="matrix(1,0,0,1,339,696)">
            <path d="M0.977,0L3.662,0L12.988,-24.463L45.752,-24.463L55.127,0L57.764,0L30.615,-70.459L28.125,-70.459L0.977,0ZM29.346,-67.139L29.443,-67.139L44.873,-26.709L13.867,-26.709L29.346,-67.139Z" style="fill:rgb(39,170,225);fill-rule:nonzero;"/>
        </g>
        <path id="Baseline-S" d="M263,696L3036,696" style="fill:none;fill-rule:nonzero;stroke:rgb(39,170,225);stroke-width:0.5px;"/>
        <path id="Capline-S" d="M263,625.541L3036,625.541" style="fill:none;fill-rule:nonzero;stroke:rgb(39,170,225);stroke-width:0.5px;"/>
        <g id="H-reference1" serif:id="H-reference" transform="matrix(1,0,0,1,339,1126)">
            <path d="M0.977,0L3.662,0L12.988,-24.463L45.752,-24.463L55.127,0L57.764,0L30.615,-70.459L28.125,-70.459L0.977,0ZM29.346,-67.139L29.443,-67.139L44.873,-26.709L13.867,-26.709L29.346,-67.139Z" style="fill:rgb(39,170,225);fill-rule:nonzero;"/>
        </g>
        <path id="Baseline-M" d="M263,1126L3036,1126" style="fill:none;fill-rule:nonzero;stroke:rgb(39,170,225);stroke-width:0.5px;"/>
        <path id="Capline-M" d="M263,1055.54L3036,1055.54" style="fill:none;fill-rule:nonzero;stroke:rgb(39,170,225);stroke-width:0.5px;"/>
        <g id="H-reference2" serif:id="H-reference" transform="matrix(1,0,0,1,339,1556)">
            <path d="M0.977,0L3.662,0L12.988,-24.463L45.752,-24.463L55.127,0L57.764,0L30.615,-70.459L28.125,-70.459L0.977,0ZM29.346,-67.139L29.443,-67.139L44.873,-26.709L13.867,-26.709L29.346,-67.139Z" style="fill:rgb(39,170,225);fill-rule:nonzero;"/>
        </g>
        <path id="Baseline-L" d="M263,1556L3036,1556" style="fill:none;fill-rule:nonzero;stroke:rgb(39,170,225);stroke-width:0.5px;"/>
        <path id="Capline-L" d="M263,1485.54L3036,1485.54" style="fill:none;fill-rule:nonzero;stroke:rgb(39,170,225);stroke-width:0.5px;"/>
        <path id="left-margin" d="M1402.6,1030.79L1402.6,1150.12" style="fill:none;fill-rule:nonzero;stroke:rgb(0,174,239);stroke-width:0.5px;"/>
        <path id="right-margin" d="M1497.09,1030.79L1497.09,1150.12" style="fill:none;fill-rule:nonzero;stroke:rgb(0,174,239);stroke-width:0.5px;"/>
    </g>
    <g id="Symbols">
        <g id="Black-L" transform="matrix(1,0,0,1,2865.38,1556)">
            <path d="M67.725,-92.627C76.758,-92.627 84.082,-100.049 84.082,-108.74C84.082,-117.822 76.758,-125.098 67.725,-125.098C58.74,-125.098 51.611,-117.822 51.611,-108.74C51.611,-100.049 58.74,-92.627 67.725,-92.627ZM90.332,36.572C94.873,36.572 98.682,33.35 98.682,28.565C98.682,27.002 98.291,25.391 97.363,23.633L82.275,-6.836C80.762,-9.961 79.346,-12.06 78.027,-13.867L69.775,-25.635L70.166,-26.904C72.656,-35.059 73.389,-39.941 73.926,-47.217L75.44,-67.09C76.269,-77.783 70.117,-86.572 58.398,-86.572C50.635,-86.572 43.75,-82.666 36.279,-75.244L25.195,-64.307C21.436,-60.547 20.264,-57.52 19.873,-52.832L18.506,-36.279C18.066,-31.299 20.996,-28.076 25.391,-27.783C29.785,-27.49 33.057,-30.078 33.496,-35.352L34.961,-53.174L41.357,-58.789C42.627,-59.863 44.385,-59.277 44.238,-57.422L43.066,-41.211C42.432,-33.057 46.387,-27.197 50.391,-22.119L64.795,-4.004C66.113,-2.393 66.406,-1.807 67.09,-0.391L82.666,31.348C84.473,35.01 87.305,36.572 90.332,36.572ZM94.434,-43.018L111.914,-43.018C117.041,-43.018 119.971,-46.143 119.971,-50.537C120.068,-54.981 116.992,-58.106 111.816,-58.106L94.043,-58.106L82.08,-70.654L80.713,-51.074L85.547,-46.143C87.988,-43.701 90.283,-43.018 94.434,-43.018ZM24.268,36.572C26.66,36.572 29.004,35.4 30.908,33.106L52.783,7.031C55.176,4.199 55.615,3.271 56.445,0.684C56.787,-0.342 57.08,-1.465 57.275,-2.441L43.799,-19.238L40.283,-3.32L18.75,22.07C16.992,24.121 16.064,26.172 16.064,28.418C16.064,32.959 19.824,36.572 24.268,36.572Z" style="fill-rule:nonzero;"/>
        </g>
        <g id="Heavy-L" transform="matrix(1,0,0,1,2570.45,1556)">
            <path d="M65.967,-90.332C74.707,-90.332 81.885,-97.559 81.885,-106.055C81.885,-114.893 74.707,-122.021 65.967,-122.021C57.178,-122.021 50.195,-114.893 50.195,-106.055C50.195,-97.559 57.178,-90.332 65.967,-90.332ZM88.135,35.742C92.383,35.742 95.996,32.666 95.996,28.027C95.996,26.416 95.557,24.854 94.678,23.096L80.127,-6.299C78.711,-9.229 77.295,-11.377 76.025,-13.135L67.773,-24.902L68.213,-26.27C70.606,-34.131 71.387,-38.818 71.924,-45.996L73.389,-65.723C74.17,-76.025 68.262,-84.522 57.129,-84.522C49.512,-84.522 43.066,-80.566 35.84,-73.389L25.049,-62.695C21.387,-59.033 20.215,-56.103 19.824,-51.514L18.457,-35.156C18.066,-30.371 20.85,-27.295 25.049,-27.002C29.248,-26.709 32.373,-29.15 32.813,-34.228L34.277,-51.953L40.576,-57.52C41.797,-58.594 43.506,-58.008 43.359,-56.201L42.188,-40.088C41.602,-32.129 45.361,-26.367 49.268,-21.436L63.379,-3.711C64.697,-2.1 64.941,-1.514 65.576,-0.146L80.811,30.713C82.568,34.277 85.303,35.742 88.135,35.742ZM91.894,-42.139L108.643,-42.139C113.525,-42.139 116.406,-45.068 116.406,-49.268C116.455,-53.516 113.477,-56.494 108.545,-56.494L91.357,-56.494L79.639,-68.897L78.32,-50.098L83.203,-45.166C85.547,-42.773 87.842,-42.139 91.894,-42.139ZM23.779,35.742C26.123,35.742 28.369,34.57 30.078,32.52L51.416,7.08C53.711,4.346 54.102,3.516 54.932,0.977C55.322,-0.293 55.664,-1.563 55.957,-2.734L43.115,-18.75L39.6,-2.832L18.848,21.729C17.09,23.779 16.064,25.684 16.064,28.027C16.064,32.373 19.58,35.742 23.779,35.742Z" style="fill-rule:nonzero;"/>
        </g>
        <g id="Bold-L" transform="matrix(1,0,0,1,2275.74,1556)">
            <path d="M63.916,-87.744C72.461,-87.744 79.394,-94.824 79.394,-103.027C79.394,-111.621 72.461,-118.555 63.916,-118.555C55.42,-118.555 48.682,-111.621 48.682,-103.027C48.682,-94.824 55.42,-87.744 63.916,-87.744ZM85.742,34.766C89.6,34.766 93.018,31.934 93.018,27.393C93.018,25.781 92.578,24.268 91.699,22.51L77.734,-5.762C76.416,-8.398 75,-10.596 73.731,-12.354L65.527,-24.072L66.016,-25.537C68.311,-33.057 69.19,-37.598 69.678,-44.629L71.094,-64.111C71.826,-74.023 66.162,-82.178 55.664,-82.178C48.193,-82.178 42.383,-78.223 35.4,-71.338L24.854,-60.889C21.289,-57.324 20.166,-54.443 19.775,-50L18.457,-33.838C18.066,-29.346 20.703,-26.367 24.707,-26.123C28.662,-25.83 31.592,-28.174 31.982,-32.959L33.447,-50.586L39.697,-56.103C40.869,-57.129 42.529,-56.592 42.383,-54.834L41.26,-38.867C40.674,-31.152 44.238,-25.488 48.047,-20.703L61.768,-3.418C63.086,-1.807 63.33,-1.172 63.916,0.098L78.711,30.029C80.42,33.447 83.008,34.766 85.742,34.766ZM89.014,-41.113L104.98,-41.113C109.57,-41.113 112.402,-43.799 112.402,-47.852C112.402,-51.904 109.57,-54.639 104.932,-54.639L88.379,-54.639L76.904,-66.943L75.635,-49.023L80.566,-44.092C82.861,-41.748 85.059,-41.113 89.014,-41.113ZM23.242,34.766C25.488,34.766 27.637,33.691 29.15,31.836L49.902,7.178C52.051,4.541 52.393,3.809 53.223,1.318C53.711,-0.195 54.102,-1.66 54.443,-3.076L42.285,-18.213L38.867,-2.246L18.897,21.338C17.188,23.389 16.064,25.195 16.064,27.637C16.064,31.69 19.287,34.766 23.242,34.766Z" style="fill-rule:nonzero;"/>
        </g>
        <g id="Semibold-L" transform="matrix(1,0,0,1,1980.42,1556)">
            <path d="M62.549,-85.986C70.898,-85.986 77.686,-92.92 77.686,-100.977C77.686,-109.375 70.898,-116.162 62.549,-116.162C54.199,-116.162 47.607,-109.375 47.607,-100.977C47.607,-92.92 54.199,-85.986 62.549,-85.986ZM84.033,34.082C87.647,34.082 90.967,31.397 90.967,27.002C90.967,25.391 90.479,23.828 89.6,22.119L76.025,-5.371C74.805,-7.861 73.438,-10.059 72.168,-11.816L63.965,-23.486L64.453,-25.049C66.748,-32.324 67.627,-36.719 68.164,-43.701L69.531,-63.037C70.215,-72.656 64.697,-80.566 54.639,-80.566C47.315,-80.566 41.895,-76.611 35.107,-69.922L24.707,-59.668C21.24,-56.201 20.117,-53.32 19.775,-48.975L18.457,-32.959C18.115,-28.613 20.606,-25.732 24.463,-25.488C28.223,-25.244 31.055,-27.441 31.445,-32.129L32.91,-49.658L39.063,-55.127C40.234,-56.103 41.895,-55.615 41.748,-53.857L40.576,-38.037C40.039,-30.42 43.408,-24.902 47.168,-20.166L60.693,-3.223C61.963,-1.563 62.207,-0.928 62.793,0.244L77.246,29.541C78.906,32.91 81.397,34.082 84.033,34.082ZM87.061,-40.381L102.441,-40.381C106.885,-40.381 109.619,-42.969 109.619,-46.875C109.619,-50.781 106.836,-53.369 102.393,-53.369L86.328,-53.369L75,-65.576L73.779,-48.242L78.76,-43.359C81.006,-41.065 83.154,-40.381 87.061,-40.381ZM22.9,34.082C25.098,34.082 27.1,33.057 28.516,31.397L48.828,7.227C50.928,4.639 51.221,4.004 52.051,1.563C52.588,-0.098 53.027,-1.758 53.418,-3.32L41.748,-17.822L38.33,-1.855L18.945,21.094C17.236,23.145 16.064,24.854 16.064,27.344C16.064,31.25 19.092,34.082 22.9,34.082Z" style="fill-rule:nonzero;"/>
        </g>
        <g id="Medium-L" transform="matrix(1,0,0,1,1684.76,1556)">
            <path d="M61.523,-84.668C69.727,-84.668 76.416,-91.455 76.416,-99.414C76.416,-107.666 69.727,-114.355 61.523,-114.355C53.272,-114.355 46.777,-107.666 46.777,-99.414C46.777,-91.455 53.272,-84.668 61.523,-84.668ZM82.764,33.594C86.231,33.594 89.356,31.006 89.356,26.66C89.356,25.049 88.916,23.535 88.037,21.777L74.805,-5.078C73.584,-7.422 72.217,-9.668 70.996,-11.377L62.793,-23.047L63.33,-24.658C65.576,-31.738 66.455,-36.084 66.992,-42.969L68.311,-62.207C68.994,-71.631 63.623,-79.346 53.857,-79.346C46.631,-79.346 41.504,-75.391 34.863,-68.848L24.609,-58.74C21.191,-55.273 20.068,-52.49 19.727,-48.193L18.457,-32.275C18.115,-28.027 20.508,-25.244 24.268,-25.049C27.93,-24.805 30.615,-26.904 31.006,-31.445L32.471,-48.975L38.623,-54.395C39.746,-55.371 41.357,-54.834 41.211,-53.174L40.088,-37.402C39.551,-29.883 42.822,-24.414 46.533,-19.775L59.815,-3.027C61.133,-1.416 61.328,-0.781 61.914,0.391L76.123,29.199C77.783,32.471 80.225,33.594 82.764,33.594ZM85.547,-39.893L100.537,-39.893C104.785,-39.893 107.52,-42.334 107.52,-46.143C107.52,-49.951 104.785,-52.441 100.488,-52.441L84.766,-52.441L73.584,-64.502L72.412,-47.705L77.344,-42.773C79.639,-40.527 81.738,-39.893 85.547,-39.893ZM22.607,33.594C24.756,33.594 26.709,32.617 28.027,31.006L47.998,7.227C50.098,4.736 50.342,4.15 51.123,1.758C51.758,-0.049 52.197,-1.807 52.637,-3.516L41.357,-17.529L37.94,-1.563L18.994,20.898C17.285,22.9 16.064,24.609 16.064,27.148C16.064,30.908 18.897,33.594 22.607,33.594Z" style="fill-rule:nonzero;"/>
        </g>
        <g id="Regular-L" transform="matrix(1,0,0,1,1389.42,1556)">
            <path d="M60.156,-82.91C68.213,-82.91 74.707,-89.6 74.707,-97.363C74.707,-105.42 68.213,-112.012 60.156,-112.012C52.1,-112.012 45.703,-105.42 45.703,-97.363C45.703,-89.6 52.1,-82.91 60.156,-82.91ZM81.104,32.959C84.326,32.959 87.354,30.518 87.354,26.221C87.354,24.609 86.865,23.096 85.986,21.387L73.144,-4.688C72.022,-6.885 70.654,-9.131 69.434,-10.84L61.279,-22.51L61.816,-24.17C64.014,-31.006 64.941,-35.254 65.43,-42.041L66.797,-61.133C67.432,-70.264 62.158,-77.734 52.881,-77.734C45.752,-77.734 41.016,-73.779 34.57,-67.481L24.512,-57.52C21.094,-54.15 20.02,-51.367 19.678,-47.119L18.457,-31.397C18.115,-27.344 20.41,-24.658 24.023,-24.414C27.49,-24.17 30.127,-26.221 30.469,-30.615L31.934,-48.047L37.988,-53.418C39.111,-54.346 40.723,-53.906 40.576,-52.246L39.453,-36.572C38.916,-29.199 42.041,-23.828 45.654,-19.287L58.74,-2.832C60.059,-1.221 60.254,-0.537 60.791,0.586L74.707,28.711C76.318,31.885 78.662,32.959 81.104,32.959ZM83.594,-39.16L97.998,-39.16C102.1,-39.16 104.785,-41.504 104.785,-45.166C104.785,-48.828 102.1,-51.172 97.998,-51.172L82.715,-51.172L71.729,-63.184L70.606,-46.973L75.586,-42.041C77.783,-39.844 79.834,-39.16 83.594,-39.16ZM22.217,32.959C24.365,32.959 26.221,31.982 27.441,30.566L46.973,7.275C48.975,4.883 49.17,4.346 49.951,2.002C50.635,0 51.172,-1.855 51.611,-3.711L40.82,-17.188L37.451,-1.172L19.043,20.606C17.334,22.656 16.064,24.268 16.064,26.856C16.064,30.469 18.701,32.959 22.217,32.959Z" style="fill-rule:nonzero;"/>
        </g>
        <g id="Light-L" transform="matrix(1,0,0,1,1093.44,1556)">
            <path d="M59.228,-82.764C67.09,-82.764 73.486,-89.258 73.486,-96.875C73.486,-104.736 67.09,-111.182 59.228,-111.182C51.367,-111.182 45.117,-104.736 45.117,-96.875C45.117,-89.258 51.367,-82.764 59.228,-82.764ZM80.078,31.445C83.154,31.445 86.084,29.053 86.084,24.902C86.084,23.291 85.596,21.826 84.766,20.117L72.07,-5.713C70.996,-7.861 69.629,-10.107 68.408,-11.768L60.352,-23.291L60.889,-24.902C62.988,-31.69 64.014,-35.84 64.453,-42.578L65.772,-61.426C66.455,-70.41 61.328,-77.783 52.295,-77.783C45.215,-77.783 40.576,-73.877 34.228,-67.676L24.268,-57.861C20.898,-54.492 19.824,-51.758 19.531,-47.607L18.262,-31.982C17.969,-28.027 20.166,-25.391 23.633,-25.195C27.051,-24.951 29.59,-26.953 29.981,-31.152L31.397,-48.633L37.549,-54.053C38.623,-55.029 40.234,-54.541 40.137,-52.881L39.014,-37.158C38.477,-29.932 41.553,-24.609 45.166,-20.068L58.057,-3.857C59.326,-2.295 59.522,-1.611 60.107,-0.488L73.877,27.344C75.391,30.42 77.637,31.445 80.078,31.445ZM82.373,-39.746L96.729,-39.746C100.732,-39.746 103.32,-41.992 103.32,-45.557C103.32,-49.121 100.732,-51.367 96.729,-51.367L81.543,-51.367L70.166,-63.672L69.043,-47.9L74.463,-42.578C76.66,-40.43 78.711,-39.746 82.373,-39.746ZM22.022,31.445C24.121,31.445 25.928,30.566 27.148,29.102L46.436,6.152C48.486,3.711 48.584,3.223 49.365,0.879C50.098,-1.318 50.684,-3.467 51.172,-5.469L40.625,-18.555L37.256,-2.246L19.043,19.434C17.334,21.387 16.064,22.998 16.064,25.586C16.064,29.053 18.652,31.445 22.022,31.445Z" style="fill-rule:nonzero;"/>
        </g>
        <g id="Thin-L" transform="matrix(1,0,0,1,797.706,1556)">
            <path d="M58.057,-82.519C65.674,-82.519 71.826,-88.867 71.826,-96.24C71.826,-103.809 65.674,-110.107 58.057,-110.107C50.44,-110.107 44.336,-103.809 44.336,-96.24C44.336,-88.867 50.44,-82.519 58.057,-82.519ZM78.662,29.492C81.592,29.492 84.473,27.148 84.473,23.096C84.473,21.582 83.984,20.117 83.154,18.408L70.654,-7.031C69.58,-9.131 68.213,-11.377 67.09,-12.988L59.18,-24.316L59.668,-25.928C61.67,-32.617 62.744,-36.67 63.184,-43.262L64.502,-61.768C65.137,-70.606 60.205,-77.881 51.514,-77.881C44.531,-77.881 39.941,-74.072 33.74,-67.92L23.926,-58.301C20.654,-54.981 19.58,-52.246 19.287,-48.193L18.066,-32.715C17.725,-28.906 19.824,-26.416 23.096,-26.221C26.416,-25.977 28.955,-27.881 29.297,-31.934L30.664,-49.365L36.963,-54.883C38.037,-55.859 39.648,-55.371 39.551,-53.76L38.428,-37.94C37.94,-30.859 40.918,-25.586 44.482,-21.143L57.178,-5.225C58.398,-3.711 58.594,-3.027 59.18,-1.904L72.754,25.537C74.219,28.467 76.318,29.492 78.662,29.492ZM80.762,-40.478L95.019,-40.478C98.877,-40.478 101.367,-42.676 101.367,-46.094C101.367,-49.512 98.877,-51.611 95.019,-51.611L79.932,-51.611L68.164,-64.307L67.041,-49.121L72.998,-43.262C75.147,-41.162 77.197,-40.478 80.762,-40.478ZM21.777,29.492C23.779,29.492 25.586,28.613 26.758,27.148L45.752,4.639C47.852,2.148 47.852,1.709 48.584,-0.537C49.365,-3.027 50.098,-5.518 50.635,-7.715L40.43,-20.41L36.963,-3.613L18.994,17.822C17.334,19.775 16.064,21.387 16.064,23.877C16.064,27.148 18.506,29.492 21.777,29.492Z" style="fill-rule:nonzero;"/>
        </g>
        <g id="Ultralight-L" transform="matrix(1,0,0,1,501.508,1556)">
            <path d="M57.422,-82.422C64.941,-82.422 70.996,-88.623 70.996,-95.898C70.996,-103.32 64.941,-109.57 57.422,-109.57C49.951,-109.57 43.945,-103.32 43.945,-95.898C43.945,-88.623 49.951,-82.422 57.422,-82.422ZM77.979,28.516C80.811,28.516 83.594,26.172 83.594,22.168C83.594,20.654 83.154,19.238 82.324,17.529L69.922,-7.666C68.897,-9.766 67.529,-12.012 66.406,-13.623L58.545,-24.805L59.033,-26.416C61.035,-33.057 62.06,-37.061 62.549,-43.652L63.818,-61.963C64.502,-70.703 59.619,-77.93 51.074,-77.93C44.19,-77.93 39.648,-74.17 33.496,-68.066L23.779,-58.545C20.508,-55.273 19.482,-52.539 19.141,-48.535L17.92,-33.106C17.627,-29.395 19.678,-26.904 22.852,-26.758C26.123,-26.514 28.613,-28.32 28.906,-32.324L30.273,-49.756L36.67,-55.322C37.695,-56.299 39.307,-55.811 39.258,-54.248L38.135,-38.379C37.647,-31.299 40.576,-26.123 44.141,-21.68L56.69,-5.957C57.91,-4.395 58.154,-3.76 58.691,-2.637L72.168,24.609C73.584,27.441 75.635,28.516 77.979,28.516ZM79.932,-40.82L94.141,-40.82C97.949,-40.82 100.342,-42.969 100.342,-46.338C100.342,-49.658 97.949,-51.758 94.141,-51.758L79.102,-51.758L67.09,-64.6L65.967,-49.707L72.217,-43.652C74.414,-41.553 76.416,-40.82 79.932,-40.82ZM21.631,28.516C23.633,28.516 25.391,27.637 26.611,26.172L45.41,3.857C47.51,1.318 47.51,0.977 48.193,-1.27C49.023,-3.955 49.756,-6.592 50.342,-8.887L40.283,-21.338L36.816,-4.346L18.945,16.992C17.334,18.945 16.064,20.557 16.064,22.998C16.064,26.172 18.457,28.516 21.631,28.516Z" style="fill-rule:nonzero;"/>
        </g>
        <g id="Black-M" transform="matrix(1,0,0,1,2878.64,1126)">
            <path d="M54.443,-82.666C61.621,-82.666 67.481,-88.623 67.481,-95.557C67.481,-102.783 61.621,-108.594 54.443,-108.594C47.266,-108.594 41.553,-102.783 41.553,-95.557C41.553,-88.623 47.266,-82.666 54.443,-82.666ZM72.363,20.801C76.269,20.801 79.443,18.018 79.443,14.209C79.443,13.037 79.15,11.816 78.467,10.449L66.113,-14.404C64.795,-17.139 63.672,-18.75 62.695,-20.117L56.348,-29.199L56.592,-30.078C58.496,-36.768 59.082,-40.723 59.522,-46.436L60.693,-61.963C61.377,-70.654 56.445,-77.881 46.728,-77.881C40.527,-77.881 34.522,-74.902 28.418,-68.799L19.629,-60.059C16.65,-57.08 15.674,-54.688 15.381,-50.928L14.258,-37.891C13.867,-33.838 16.309,-31.201 19.873,-30.957C23.584,-30.713 26.27,-32.813 26.66,-37.158L27.783,-51.074L32.91,-55.566C33.887,-56.445 35.352,-55.957 35.205,-54.443L34.277,-41.65C33.789,-35.156 37.109,-30.469 40.283,-26.416L51.758,-11.963C52.783,-10.742 53.027,-10.303 53.613,-9.082L66.162,16.455C67.578,19.434 69.922,20.801 72.363,20.801ZM76.025,-42.822L90.479,-42.822C94.727,-42.822 97.022,-45.459 97.022,-49.023C97.119,-52.637 94.678,-55.273 90.332,-55.273L75.83,-55.273L66.065,-65.332L64.941,-49.316L68.897,-45.313C70.801,-43.311 72.705,-42.822 76.025,-42.822ZM19.336,20.801C21.289,20.801 23.242,19.775 24.951,17.773L42.481,-3.174C44.482,-5.518 44.873,-6.348 45.508,-8.398C45.703,-9.033 45.85,-9.766 45.996,-10.303L34.815,-24.219L32.031,-11.719L14.453,8.984C13.086,10.596 12.451,12.305 12.451,13.916C12.451,17.676 15.674,20.801 19.336,20.801Z" style="fill-rule:nonzero;"/>
        </g>
        <g id="Heavy-M" transform="matrix(1,0,0,1,2583.71,1126)">
            <path d="M52.686,-80.225C59.668,-80.225 65.381,-85.986 65.381,-92.725C65.381,-99.805 59.668,-105.42 52.686,-105.42C45.703,-105.42 40.186,-99.805 40.186,-92.725C40.186,-85.986 45.703,-80.225 52.686,-80.225ZM70.264,20.264C73.828,20.264 76.856,17.676 76.856,13.965C76.856,12.793 76.514,11.523 75.83,10.156L64.014,-13.623C62.842,-16.064 61.719,-17.725 60.742,-19.092L54.346,-28.174L54.639,-29.15C56.543,-35.547 57.129,-39.356 57.568,-44.971L58.691,-60.352C59.375,-68.701 54.59,-75.586 45.459,-75.586C39.404,-75.586 33.936,-72.559 28.076,-66.748L19.531,-58.252C16.602,-55.322 15.674,-52.978 15.381,-49.365L14.307,-36.475C13.916,-32.617 16.211,-30.127 19.629,-29.883C23.096,-29.639 25.635,-31.641 26.025,-35.791L27.148,-49.609L32.129,-54.004C33.106,-54.834 34.522,-54.395 34.375,-52.93L33.447,-40.283C32.959,-33.984 36.084,-29.395 39.209,-25.44L50.391,-11.377C51.416,-10.156 51.611,-9.668 52.148,-8.594L64.307,16.162C65.723,18.994 67.92,20.264 70.264,20.264ZM73.535,-41.65L87.207,-41.65C91.26,-41.65 93.506,-44.092 93.506,-47.51C93.555,-50.977 91.211,-53.418 87.109,-53.418L73.242,-53.418L63.818,-63.281L62.744,-47.998L66.602,-44.092C68.506,-42.188 70.313,-41.65 73.535,-41.65ZM18.897,20.264C20.752,20.264 22.559,19.287 24.121,17.481L41.113,-2.783C43.018,-5.029 43.359,-5.762 43.994,-7.813C44.238,-8.594 44.482,-9.473 44.629,-10.205L34.082,-23.34L31.348,-10.938L14.502,8.936C13.135,10.547 12.451,12.109 12.451,13.818C12.451,17.383 15.381,20.264 18.897,20.264Z" style="fill-rule:nonzero;"/>
        </g>
        <g id="Bold-M" transform="matrix(1,0,0,1,2288.98,1126)">
            <path d="M50.781,-77.49C57.52,-77.49 63.037,-83.057 63.037,-89.6C63.037,-96.436 57.52,-101.904 50.781,-101.904C43.994,-101.904 38.672,-96.436 38.672,-89.6C38.672,-83.057 43.994,-77.49 50.781,-77.49ZM67.92,19.629C71.143,19.629 73.926,17.285 73.926,13.721C73.926,12.451 73.584,11.279 72.9,9.912L61.719,-12.695C60.596,-14.941 59.522,-16.602 58.545,-17.969L52.148,-27.051L52.49,-28.125C54.346,-34.18 54.981,-37.793 55.371,-43.311L56.494,-58.545C57.08,-66.504 52.539,-72.998 43.994,-72.998C38.135,-72.998 33.301,-69.971 27.734,-64.453L19.385,-56.201C16.553,-53.369 15.674,-51.123 15.381,-47.559L14.307,-34.912C14.014,-31.299 16.113,-28.906 19.385,-28.711C22.607,-28.467 24.951,-30.371 25.293,-34.228L26.416,-47.949L31.299,-52.246C32.227,-53.076 33.594,-52.637 33.447,-51.221L32.568,-38.77C32.08,-32.666 34.961,-28.223 37.988,-24.414L48.828,-10.742C49.853,-9.473 50.049,-9.033 50.537,-8.008L62.256,15.772C63.623,18.506 65.723,19.629 67.92,19.629ZM70.752,-40.381L83.594,-40.381C87.354,-40.381 89.551,-42.627 89.551,-45.85C89.6,-49.121 87.305,-51.367 83.545,-51.367L70.313,-51.367L61.279,-60.986L60.254,-46.533L64.014,-42.773C65.869,-40.869 67.627,-40.381 70.752,-40.381ZM18.359,19.629C20.166,19.629 21.875,18.75 23.193,17.188L39.6,-2.393C41.357,-4.492 41.65,-5.127 42.285,-7.08C42.627,-8.105 42.871,-9.131 43.115,-10.059L33.252,-22.315L30.566,-10.01L14.6,8.838C13.232,10.449 12.451,11.914 12.451,13.77C12.451,17.09 15.088,19.629 18.359,19.629Z" style="fill-rule:nonzero;"/>
        </g>
        <g id="Semibold-M" transform="matrix(1,0,0,1,1993.63,1126)">
            <path d="M49.463,-75.586C56.055,-75.586 61.426,-81.055 61.426,-87.451C61.426,-94.092 56.055,-99.463 49.463,-99.463C42.822,-99.463 37.598,-94.092 37.598,-87.451C37.598,-81.055 42.822,-75.586 49.463,-75.586ZM66.309,19.19C69.287,19.19 71.924,16.992 71.924,13.525C71.924,12.256 71.533,11.084 70.85,9.717L60.107,-12.109C59.082,-14.111 58.008,-15.82 57.031,-17.188L50.635,-26.27L51.025,-27.441C52.832,-33.252 53.467,-36.768 53.857,-42.188L54.981,-57.324C55.518,-64.941 51.123,-71.24 43.018,-71.24C37.256,-71.24 32.813,-68.164 27.441,-62.842L19.287,-54.785C16.504,-52.051 15.625,-49.805 15.381,-46.338L14.355,-33.838C14.063,-30.322 16.064,-28.076 19.19,-27.881C22.217,-27.637 24.463,-29.443 24.805,-33.154L25.928,-46.826L30.713,-51.074C31.641,-51.856 32.91,-51.416 32.813,-50.049L31.934,-37.744C31.494,-31.738 34.18,-27.393 37.158,-23.682L47.803,-10.303C48.779,-9.033 48.975,-8.545 49.463,-7.568L60.84,15.527C62.158,18.213 64.209,19.19 66.309,19.19ZM68.799,-39.502L81.055,-39.502C84.619,-39.502 86.816,-41.602 86.816,-44.727C86.816,-47.852 84.619,-49.951 81.055,-49.951L68.311,-49.951L59.522,-59.375L58.545,-45.557L62.256,-41.846C64.063,-40.039 65.772,-39.502 68.799,-39.502ZM17.969,19.19C19.727,19.19 21.338,18.359 22.51,16.943L38.525,-2.1C40.234,-4.15 40.478,-4.688 41.113,-6.592C41.504,-7.764 41.797,-8.887 42.09,-10.01L32.715,-21.631L30.029,-9.326L14.697,8.789C13.33,10.4 12.451,11.816 12.451,13.721C12.451,16.846 14.893,19.19 17.969,19.19Z" style="fill-rule:nonzero;"/>
        </g>
        <g id="Medium-M" transform="matrix(1,0,0,1,1697.95,1126)">
            <path d="M48.438,-74.17C54.932,-74.17 60.205,-79.541 60.205,-85.791C60.205,-92.334 54.932,-97.607 48.438,-97.607C41.943,-97.607 36.816,-92.334 36.816,-85.791C36.816,-79.541 41.943,-74.17 48.438,-74.17ZM65.088,18.848C67.871,18.848 70.361,16.797 70.361,13.379C70.361,12.109 70.019,10.938 69.336,9.57L58.887,-11.621C57.959,-13.525 56.885,-15.234 55.908,-16.602L49.512,-25.684L49.902,-26.904C51.66,-32.52 52.344,-35.938 52.734,-41.309L53.809,-56.397C54.346,-63.818 50.049,-69.873 42.285,-69.873C36.621,-69.873 32.52,-66.797 27.246,-61.67L19.238,-53.711C16.504,-51.025 15.625,-48.828 15.381,-45.41L14.355,-33.008C14.111,-29.639 16.016,-27.441 19.043,-27.246C21.924,-27.051 24.072,-28.76 24.414,-32.373L25.537,-45.947L30.273,-50.147C31.152,-50.928 32.422,-50.488 32.324,-49.17L31.445,-36.963C31.006,-31.055 33.594,-26.758 36.523,-23.096L46.973,-9.961C47.998,-8.691 48.145,-8.203 48.633,-7.275L59.766,15.332C61.084,17.969 63.037,18.848 65.088,18.848ZM67.383,-38.818L79.199,-38.818C82.617,-38.818 84.766,-40.82 84.766,-43.848C84.766,-46.875 82.568,-48.877 79.15,-48.877L66.797,-48.877L58.203,-58.203L57.275,-44.775L60.938,-41.113C62.695,-39.356 64.356,-38.818 67.383,-38.818ZM17.725,18.848C19.434,18.848 20.947,18.066 22.022,16.797L37.744,-1.904C39.356,-3.857 39.551,-4.346 40.234,-6.25C40.625,-7.52 40.967,-8.74 41.26,-9.912L32.275,-21.143L29.639,-8.887L14.746,8.789C13.379,10.352 12.451,11.719 12.451,13.672C12.451,16.699 14.746,18.848 17.725,18.848Z" style="fill-rule:nonzero;"/>
        </g>
        <g id="Regular-M" transform="matrix(1,0,0,1,1402.6,1126)">
            <path d="M47.119,-72.266C53.467,-72.266 58.594,-77.539 58.594,-83.643C58.594,-90.039 53.467,-95.166 47.119,-95.166C40.772,-95.166 35.742,-90.039 35.742,-83.643C35.742,-77.539 40.772,-72.266 47.119,-72.266ZM57.115,4.178C53.534,-6.915 59.474,8.035 59.474,4.666C59.474,3.396 53.094,3.637 59.474,4.666L57.275,-10.986C56.445,-12.695 55.371,-14.453 54.395,-15.82L47.998,-24.902L48.438,-26.221C50.195,-31.592 50.879,-34.912 51.27,-40.186L52.295,-55.176C52.783,-62.305 48.682,-68.164 41.309,-68.164C35.742,-68.164 32.08,-65.039 27.002,-60.107L19.141,-52.344C16.455,-49.658 15.625,-47.51 15.381,-44.19L14.404,-31.934C14.16,-28.711 15.967,-26.611 18.848,-26.416C21.582,-26.221 23.633,-27.881 23.926,-31.299L25.049,-44.824L29.688,-48.926C30.566,-49.707 31.787,-49.316 31.69,-48.047L30.811,-35.938C30.42,-30.176 32.861,-25.977 35.693,-22.412L45.898,-9.521C46.973,-8.252 47.07,-7.764 47.51,-6.885L57.115,4.178ZM65.478,-37.988L76.709,-37.988C79.932,-37.988 82.031,-39.795 82.031,-42.725C82.031,-45.606 79.932,-47.51 76.709,-47.51L64.795,-47.51L56.445,-56.592L55.566,-43.799L59.18,-40.186C60.938,-38.477 62.549,-37.988 65.478,-37.988ZM17.334,18.457C18.994,18.457 20.459,17.725 21.387,16.602L36.67,-1.611C38.232,-3.467 38.428,-3.906 39.063,-5.762C39.551,-7.178 39.893,-8.496 40.234,-9.863L31.69,-20.459L29.15,-8.252L14.795,8.74C13.428,10.303 12.451,11.572 12.451,13.623C12.451,16.504 14.551,18.457 17.334,18.457Z" style="fill-rule:nonzero;"/>
            <g transform="matrix(1,0,0,1,-16.85,6)">
                <path d="M60.156,13.721L102.49,13.721C106.494,13.721 109.082,10.84 109.082,7.129C109.082,6.055 108.789,4.932 108.154,3.906L86.963,-33.936C85.693,-36.133 83.545,-37.256 81.348,-37.256C79.102,-37.256 76.856,-36.133 75.635,-33.936L54.492,3.906C53.906,4.932 53.613,6.055 53.613,7.129C53.613,10.84 56.152,13.721 60.156,13.721ZM81.348,-5.371C79.639,-5.371 78.418,-6.543 78.369,-8.203L77.979,-22.168C77.93,-24.17 79.297,-25.537 81.348,-25.537C83.398,-25.537 84.717,-24.17 84.668,-22.168L84.277,-8.203C84.229,-6.543 83.057,-5.371 81.348,-5.371ZM81.348,6.25C79.102,6.25 77.197,4.443 77.197,2.148C77.197,-0.098 79.102,-2.002 81.348,-2.002C83.643,-2.002 85.449,-0.098 85.449,2.148C85.449,4.443 83.594,6.25 81.348,6.25Z" style="fill-rule:nonzero;"/>
            </g>
        </g>
        <g id="Light-M" transform="matrix(1,0,0,1,1106.55,1126)">
            <path d="M46.338,-72.119C52.49,-72.119 57.471,-77.246 57.471,-83.203C57.471,-89.404 52.49,-94.434 46.338,-94.434C40.137,-94.434 35.254,-89.404 35.254,-83.203C35.254,-77.246 40.137,-72.119 46.338,-72.119ZM62.549,17.139C64.941,17.139 67.285,15.234 67.285,11.963C67.285,10.693 66.894,9.57 66.26,8.203L56.348,-11.914C55.469,-13.574 54.443,-15.332 53.467,-16.65L47.168,-25.635L47.607,-26.904C49.268,-32.178 50.049,-35.449 50.391,-40.674L51.416,-55.42C51.904,-62.402 47.9,-68.213 40.772,-68.213C35.303,-68.213 31.641,-65.137 26.66,-60.254L18.897,-52.637C16.309,-50 15.43,-47.852 15.185,-44.629L14.258,-32.471C13.965,-29.346 15.723,-27.295 18.506,-27.1C21.191,-26.904 23.145,-28.467 23.438,-31.836L24.561,-45.361L29.297,-49.512C30.127,-50.293 31.397,-49.902 31.299,-48.633L30.42,-36.475C30.029,-30.811 32.422,-26.66 35.205,-23.145L45.313,-10.449C46.289,-9.229 46.436,-8.691 46.875,-7.861L57.617,13.867C58.838,16.309 60.645,17.139 62.549,17.139ZM64.356,-38.477L75.537,-38.477C78.711,-38.477 80.713,-40.234 80.713,-43.066C80.713,-45.85 78.711,-47.656 75.537,-47.656L63.721,-47.656L55.078,-57.031L54.199,-44.629L58.203,-40.674C59.912,-39.014 61.523,-38.477 64.356,-38.477ZM17.188,17.139C18.799,17.139 20.215,16.406 21.143,15.283L36.231,-2.686C37.793,-4.541 37.891,-4.932 38.525,-6.738C39.063,-8.35 39.502,-9.912 39.844,-11.377L31.543,-21.68L28.955,-9.18L14.746,7.666C13.428,9.229 12.451,10.449 12.451,12.451C12.451,15.234 14.502,17.139 17.188,17.139Z" style="fill-rule:nonzero;"/>
        </g>
        <g id="Thin-M" transform="matrix(1,0,0,1,810.719,1126)">
            <path d="M45.264,-71.924C51.221,-71.924 56.006,-76.904 56.006,-82.666C56.006,-88.574 51.221,-93.506 45.264,-93.506C39.258,-93.506 34.522,-88.574 34.522,-82.666C34.522,-76.904 39.258,-71.924 45.264,-71.924ZM61.279,15.381C63.574,15.381 65.82,13.525 65.82,10.352C65.82,9.18 65.43,8.008 64.795,6.689L55.078,-13.086C54.248,-14.697 53.174,-16.455 52.295,-17.725L46.094,-26.563L46.484,-27.783C48.096,-33.008 48.877,-36.182 49.268,-41.309L50.244,-55.713C50.781,-62.598 46.875,-68.262 40.088,-68.262C34.668,-68.262 31.104,-65.283 26.221,-60.498L18.652,-53.027C16.064,-50.44 15.234,-48.34 14.99,-45.166L14.063,-33.154C13.77,-30.127 15.43,-28.174 18.018,-28.027C20.606,-27.832 22.559,-29.346 22.852,-32.52L23.926,-46.045L28.76,-50.293C29.59,-51.025 30.859,-50.684 30.762,-49.414L29.883,-37.158C29.492,-31.641 31.836,-27.539 34.619,-24.072L44.482,-11.67C45.459,-10.498 45.606,-9.961 46.045,-9.131L56.592,12.256C57.764,14.551 59.424,15.381 61.279,15.381ZM62.94,-39.111L74.023,-39.111C77.051,-39.111 78.955,-40.82 78.955,-43.506C78.955,-46.191 77.051,-47.852 74.023,-47.852L62.305,-47.852L53.272,-57.617L52.393,-45.703L56.885,-41.309C58.594,-39.697 60.156,-39.111 62.94,-39.111ZM16.943,15.381C18.506,15.381 19.922,14.648 20.85,13.525L35.596,-4.004C37.207,-5.908 37.256,-6.25 37.842,-8.057C38.428,-9.912 38.965,-11.768 39.356,-13.428L31.348,-23.34L28.711,-10.449L14.697,6.25C13.428,7.764 12.451,8.984 12.451,10.938C12.451,13.525 14.355,15.381 16.943,15.381Z" style="fill-rule:nonzero;"/>
        </g>
        <g id="Ultralight-M" transform="matrix(1,0,0,1,514.447,1126)">
            <path d="M44.678,-71.826C50.537,-71.826 55.273,-76.709 55.273,-82.373C55.273,-88.135 50.537,-93.018 44.678,-93.018C38.818,-93.018 34.18,-88.135 34.18,-82.373C34.18,-76.709 38.818,-71.826 44.678,-71.826ZM60.645,14.453C62.891,14.453 65.039,12.647 65.039,9.57C65.039,8.35 64.697,7.227 64.063,5.957L54.395,-13.672C53.613,-15.283 52.539,-17.041 51.66,-18.311L45.557,-27.002L45.947,-28.272C47.51,-33.447 48.291,-36.523 48.682,-41.65L49.658,-55.908C50.195,-62.695 46.387,-68.311 39.697,-68.311C34.375,-68.311 30.811,-65.381 26.025,-60.645L18.506,-53.223C15.918,-50.684 15.137,-48.535 14.893,-45.459L13.916,-33.496C13.672,-30.566 15.283,-28.613 17.773,-28.516C20.361,-28.32 22.266,-29.736 22.51,-32.861L23.584,-46.387L28.516,-50.684C29.297,-51.416 30.566,-51.074 30.518,-49.805L29.639,-37.549C29.248,-32.031 31.543,-28.027 34.277,-24.561L44.092,-12.305C45.02,-11.133 45.215,-10.645 45.654,-9.766L56.103,11.426C57.227,13.672 58.838,14.453 60.645,14.453ZM62.207,-39.453L73.193,-39.453C76.221,-39.453 78.076,-41.162 78.076,-43.75C78.076,-46.387 76.221,-47.998 73.193,-47.998L61.572,-47.998L52.344,-57.91L51.465,-46.289L56.201,-41.65C57.91,-40.039 59.473,-39.453 62.207,-39.453ZM16.797,14.453C18.359,14.453 19.727,13.77 20.654,12.647L35.303,-4.736C36.914,-6.641 36.914,-6.982 37.5,-8.691C38.086,-10.693 38.672,-12.695 39.111,-14.453L31.25,-24.17L28.565,-11.084L14.697,5.518C13.428,6.982 12.451,8.252 12.451,10.156C12.451,12.647 14.307,14.453 16.797,14.453Z" style="fill-rule:nonzero;"/>
        </g>
        <g id="Black-S" transform="matrix(1,0,0,1,2890.63,696)">
            <path d="M42.529,-72.217C48.145,-72.217 52.734,-76.856 52.734,-82.275C52.734,-87.94 48.145,-92.481 42.529,-92.481C36.914,-92.481 32.471,-87.94 32.471,-82.275C32.471,-76.856 36.914,-72.217 42.529,-72.217ZM56.543,8.643C59.57,8.643 62.06,6.494 62.06,3.516C62.06,2.588 61.816,1.611 61.279,0.537L51.66,-18.848C50.635,-20.947 49.756,-22.217 48.975,-23.291L43.994,-30.42L44.19,-31.104C45.703,-36.328 46.143,-39.404 46.484,-43.897L47.412,-56.055C47.949,-62.842 44.092,-68.457 36.523,-68.457C31.69,-68.457 27.002,-66.113 22.266,-61.377L15.381,-54.541C13.037,-52.197 12.305,-50.342 12.06,-47.412L11.182,-37.207C10.889,-34.033 12.793,-31.982 15.576,-31.787C18.457,-31.592 20.557,-33.252 20.85,-36.621L21.729,-47.51L25.732,-51.025C26.514,-51.709 27.637,-51.318 27.539,-50.147L26.807,-40.137C26.416,-35.059 29.004,-31.397 31.494,-28.223L40.478,-16.943C41.26,-15.967 41.455,-15.625 41.895,-14.697L51.709,5.273C52.832,7.568 54.639,8.643 56.543,8.643ZM59.375,-41.065L70.654,-41.065C73.975,-41.065 75.781,-43.115 75.781,-45.898C75.83,-48.731 73.926,-50.781 70.557,-50.781L59.228,-50.781L51.611,-58.643L50.732,-46.143L53.809,-43.018C55.322,-41.455 56.787,-41.065 59.375,-41.065ZM15.137,8.643C16.65,8.643 18.164,7.861 19.482,6.299L33.203,-10.059C34.766,-11.914 35.059,-12.549 35.547,-14.16C35.693,-14.648 35.84,-15.234 35.938,-15.674L27.246,-26.514L25.049,-16.748L11.328,-0.586C10.254,0.684 9.766,2.002 9.766,3.271C9.766,6.201 12.256,8.643 15.137,8.643Z" style="fill-rule:nonzero;"/>
        </g>
        <g id="Heavy-S" transform="matrix(1,0,0,1,2595.19,696)">
            <path d="M41.309,-70.361C46.777,-70.361 51.27,-74.902 51.27,-80.176C51.27,-85.693 46.777,-90.137 41.309,-90.137C35.84,-90.137 31.494,-85.693 31.494,-80.176C31.494,-74.902 35.84,-70.361 41.309,-70.361ZM55.029,8.35C57.861,8.35 60.205,6.348 60.205,3.467C60.205,2.49 59.912,1.563 59.375,0.488L50.195,-18.115C49.219,-20.068 48.34,-21.338 47.559,-22.412L42.578,-29.59L42.822,-30.322C44.287,-35.303 44.775,-38.281 45.117,-42.725L45.996,-54.785C46.484,-61.328 42.773,-66.699 35.596,-66.699C30.859,-66.699 26.611,-64.307 22.07,-59.766L15.332,-53.125C13.037,-50.83 12.305,-49.023 12.06,-46.143L11.23,-36.084C10.938,-33.057 12.744,-31.055 15.43,-30.908C18.164,-30.713 20.117,-32.275 20.41,-35.498L21.289,-46.338L25.195,-49.756C25.977,-50.44 27.051,-50.049 26.953,-48.926L26.221,-39.063C25.83,-34.082 28.272,-30.518 30.713,-27.441L39.502,-16.406C40.283,-15.43 40.43,-15.039 40.869,-14.209L50.391,5.176C51.465,7.373 53.223,8.35 55.029,8.35ZM57.617,-40.137L68.311,-40.137C71.436,-40.137 73.242,-42.041 73.242,-44.727C73.242,-47.461 71.387,-49.365 68.213,-49.365L57.373,-49.365L50.049,-57.031L49.219,-45.068L52.148,-42.041C53.662,-40.527 55.078,-40.137 57.617,-40.137ZM14.795,8.35C16.26,8.35 17.676,7.617 18.897,6.25L32.227,-9.668C33.691,-11.426 33.936,-12.012 34.424,-13.574C34.619,-14.16 34.815,-14.844 34.961,-15.43L26.709,-25.684L24.561,-16.016L11.377,-0.488C10.303,0.781 9.766,2.002 9.766,3.369C9.766,6.152 12.06,8.35 14.795,8.35Z" style="fill-rule:nonzero;"/>
        </g>
        <g id="Bold-S" transform="matrix(1,0,0,1,2299.91,696)">
            <path d="M39.941,-68.262C45.264,-68.262 49.609,-72.705 49.609,-77.832C49.609,-83.203 45.264,-87.5 39.941,-87.5C34.57,-87.5 30.371,-83.203 30.371,-77.832C30.371,-72.705 34.57,-68.262 39.941,-68.262ZM53.369,8.057C55.908,8.057 58.106,6.201 58.106,3.418C58.106,2.441 57.813,1.465 57.275,0.391L48.486,-17.334C47.656,-19.043 46.826,-20.361 46.045,-21.436L41.016,-28.613L41.26,-29.492C42.725,-34.18 43.213,-37.061 43.555,-41.406L44.434,-53.369C44.873,-59.619 41.309,-64.746 34.57,-64.746C29.981,-64.746 26.172,-62.305 21.777,-58.008L15.234,-51.514C13.037,-49.316 12.305,-47.51 12.109,-44.727L11.279,-34.815C11.035,-31.934 12.695,-30.078 15.234,-29.883C17.773,-29.736 19.629,-31.201 19.922,-34.277L20.801,-45.02L24.609,-48.34C25.342,-48.975 26.367,-48.633 26.27,-47.559L25.586,-37.842C25.195,-33.008 27.49,-29.541 29.834,-26.514L38.379,-15.772C39.16,-14.795 39.356,-14.453 39.746,-13.623L48.926,5.029C50,7.178 51.66,8.057 53.369,8.057ZM55.615,-39.111L65.674,-39.111C68.604,-39.111 70.361,-40.869 70.361,-43.408C70.361,-45.996 68.604,-47.754 65.625,-47.754L55.273,-47.754L48.242,-55.225L47.461,-43.848L50.342,-40.967C51.758,-39.502 53.125,-39.111 55.615,-39.111ZM14.404,8.057C15.82,8.057 17.188,7.373 18.213,6.152L31.104,-9.229C32.471,-10.889 32.715,-11.377 33.203,-12.94C33.447,-13.672 33.643,-14.404 33.838,-15.137L26.074,-24.756L23.975,-15.185L11.475,-0.439C10.4,0.83 9.766,2.002 9.766,3.418C9.766,6.055 11.865,8.057 14.404,8.057Z" style="fill-rule:nonzero;"/>
        </g>
        <g id="Semibold-S" transform="matrix(1,0,0,1,2004.2,696)">
            <path d="M38.965,-66.846C44.19,-66.846 48.438,-71.143 48.438,-76.221C48.438,-81.494 44.19,-85.693 38.965,-85.693C33.74,-85.693 29.639,-81.494 29.639,-76.221C29.639,-71.143 33.74,-66.846 38.965,-66.846ZM52.197,7.813C54.541,7.813 56.641,6.104 56.641,3.369C56.641,2.344 56.348,1.416 55.859,0.342L47.363,-16.797C46.582,-18.359 45.703,-19.727 44.971,-20.801L39.893,-27.979L40.186,-28.857C41.65,-33.447 42.139,-36.182 42.481,-40.478L43.311,-52.441C43.75,-58.447 40.283,-63.379 33.887,-63.379C29.346,-63.379 25.879,-60.938 21.631,-56.787L15.185,-50.391C13.037,-48.242 12.305,-46.484 12.109,-43.75L11.279,-33.936C11.084,-31.152 12.647,-29.346 15.137,-29.199C17.529,-29.053 19.287,-30.469 19.58,-33.398L20.459,-44.092L24.17,-47.412C24.902,-47.998 25.928,-47.705 25.83,-46.631L25.147,-37.012C24.756,-32.275 26.904,-28.857 29.248,-25.879L37.598,-15.381C38.428,-14.355 38.574,-14.014 38.916,-13.232L47.9,4.932C48.926,7.08 50.537,7.813 52.197,7.813ZM54.248,-38.379L63.818,-38.379C66.65,-38.379 68.359,-40.039 68.359,-42.529C68.408,-44.971 66.65,-46.68 63.818,-46.68L53.809,-46.68L47.022,-53.955L46.289,-43.018L49.072,-40.186C50.488,-38.77 51.807,-38.379 54.248,-38.379ZM14.16,7.813C15.527,7.813 16.797,7.178 17.725,6.104L30.322,-8.936C31.641,-10.498 31.836,-10.938 32.373,-12.451C32.666,-13.33 32.861,-14.111 33.057,-14.941L25.684,-24.17L23.584,-14.6L11.523,-0.391C10.449,0.879 9.766,2.002 9.766,3.467C9.766,6.006 11.719,7.813 14.16,7.813Z" style="fill-rule:nonzero;"/>
        </g>
        <g id="Medium-S" transform="matrix(1,0,0,1,1708.23,696)">
            <path d="M38.281,-65.772C43.408,-65.772 47.607,-70.019 47.607,-74.951C47.607,-80.176 43.408,-84.326 38.281,-84.326C33.106,-84.326 29.053,-80.176 29.053,-74.951C29.053,-70.019 33.106,-65.772 38.281,-65.772ZM51.318,7.666C53.565,7.666 55.566,6.055 55.566,3.32C55.566,2.295 55.273,1.367 54.736,0.293L46.484,-16.357C45.752,-17.871 44.922,-19.19 44.141,-20.264L39.063,-27.441L39.404,-28.418C40.82,-32.861 41.357,-35.547 41.65,-39.795L42.481,-51.66C42.92,-57.52 39.502,-62.353 33.35,-62.353C28.857,-62.353 25.635,-59.863 21.484,-55.811L15.137,-49.561C13.037,-47.412 12.305,-45.703 12.109,-43.018L11.328,-33.252C11.133,-30.566 12.647,-28.809 15.039,-28.662C17.383,-28.516 19.043,-29.883 19.287,-32.764L20.215,-43.408L23.877,-46.631C24.561,-47.266 25.586,-46.924 25.488,-45.898L24.805,-36.377C24.463,-31.69 26.514,-28.32 28.809,-25.44L37.061,-15.039C37.842,-14.063 37.988,-13.672 38.33,-12.94L47.119,4.883C48.145,6.982 49.707,7.666 51.318,7.666ZM53.174,-37.842L62.451,-37.842C65.186,-37.842 66.894,-39.404 66.894,-41.797C66.894,-44.238 65.137,-45.85 62.451,-45.85L52.734,-45.85L46.094,-53.027L45.41,-42.383L48.096,-39.648C49.512,-38.232 50.83,-37.842 53.174,-37.842ZM13.965,7.666C15.283,7.666 16.553,7.031 17.383,6.055L29.736,-8.691C31.006,-10.205 31.201,-10.645 31.738,-12.109C32.031,-13.037 32.275,-13.916 32.471,-14.795L25.342,-23.682L23.291,-14.209L11.572,-0.342C10.498,0.928 9.766,2.002 9.766,3.516C9.766,5.957 11.621,7.666 13.965,7.666Z" style="fill-rule:nonzero;"/>
        </g>
        <g id="Regular-S" transform="matrix(1,0,0,1,1412.49,696)">
            <path d="M37.305,-64.356C42.383,-64.356 46.436,-68.506 46.436,-73.389C46.436,-78.467 42.383,-82.568 37.305,-82.568C32.275,-82.568 28.272,-78.467 28.272,-73.389C28.272,-68.506 32.275,-64.356 37.305,-64.356ZM50.195,7.471C52.246,7.471 54.102,5.957 54.102,3.271C54.102,2.246 53.809,1.318 53.32,0.244L45.361,-15.82C44.678,-17.188 43.848,-18.555 43.066,-19.629L37.988,-26.807L38.33,-27.832C39.746,-32.08 40.283,-34.717 40.576,-38.916L41.406,-50.732C41.797,-56.348 38.525,-60.986 32.617,-60.986C28.272,-60.986 25.342,-58.496 21.338,-54.639L15.088,-48.486C12.988,-46.387 12.305,-44.678 12.109,-42.041L11.377,-32.422C11.182,-29.834 12.598,-28.125 14.941,-27.979C17.139,-27.832 18.75,-29.15 18.994,-31.934L19.873,-42.529L23.486,-45.703C24.17,-46.289 25.147,-45.996 25.049,-44.971L24.365,-35.547C24.023,-30.957 25.977,-27.637 28.223,-24.805L36.279,-14.648C37.109,-13.623 37.207,-13.232 37.549,-12.549L46.143,4.785C47.119,6.836 48.633,7.471 50.195,7.471ZM51.856,-37.158L60.645,-37.158C63.232,-37.158 64.941,-38.574 64.941,-40.918C64.941,-43.262 63.232,-44.775 60.645,-44.775L51.318,-44.775L44.922,-51.758L44.238,-41.553L46.875,-38.916C48.242,-37.549 49.512,-37.158 51.856,-37.158ZM13.672,7.471C14.99,7.471 16.162,6.885 16.895,6.006L29.004,-8.398C30.176,-9.814 30.322,-10.205 30.859,-11.67C31.201,-12.695 31.494,-13.574 31.738,-14.6L24.951,-23.047L22.9,-13.623L11.621,-0.244C10.547,0.977 9.766,1.953 9.766,3.564C9.766,5.908 11.475,7.471 13.672,7.471Z" style="fill-rule:nonzero;"/>
        </g>
        <g id="Light-S" transform="matrix(1,0,0,1,1116.37,696)">
            <path d="M36.621,-64.209C41.504,-64.209 45.459,-68.262 45.459,-72.998C45.459,-77.93 41.504,-81.885 36.621,-81.885C31.69,-81.885 27.832,-77.93 27.832,-72.998C27.832,-68.262 31.69,-64.209 36.621,-64.209ZM49.365,6.299C51.318,6.299 53.125,4.785 53.125,2.197C53.125,1.221 52.832,0.293 52.344,-0.732L44.531,-16.602C43.848,-17.92 43.018,-19.287 42.285,-20.361L37.305,-27.441L37.598,-28.418C38.965,-32.617 39.551,-35.205 39.844,-39.307L40.625,-50.928C41.016,-56.494 37.842,-61.035 32.178,-61.035C27.832,-61.035 24.951,-58.594 21.045,-54.785L14.893,-48.731C12.842,-46.68 12.158,-44.971 11.963,-42.432L11.23,-32.861C11.035,-30.371 12.402,-28.711 14.648,-28.613C16.748,-28.467 18.311,-29.688 18.555,-32.373L19.434,-42.969L23.145,-46.191C23.779,-46.777 24.756,-46.484 24.707,-45.508L24.023,-35.986C23.682,-31.494 25.586,-28.223 27.783,-25.488L35.742,-15.479C36.523,-14.453 36.67,-14.063 37.012,-13.379L45.459,3.711C46.436,5.664 47.852,6.299 49.365,6.299ZM50.879,-37.598L59.619,-37.598C62.158,-37.598 63.77,-39.014 63.77,-41.211C63.77,-43.457 62.158,-44.922 59.619,-44.922L50.342,-44.922L43.701,-52.148L43.018,-42.285L45.996,-39.307C47.315,-37.988 48.584,-37.598 50.879,-37.598ZM13.525,6.299C14.795,6.299 15.967,5.713 16.699,4.834L28.565,-9.326C29.785,-10.791 29.883,-11.133 30.42,-12.549C30.811,-13.721 31.104,-14.844 31.397,-15.967L24.805,-24.121L22.754,-14.453L11.572,-1.221C10.547,0 9.766,0.977 9.766,2.588C9.766,4.785 11.377,6.299 13.525,6.299Z" style="fill-rule:nonzero;"/>
        </g>
        <g id="Thin-S" transform="matrix(1,0,0,1,820.436,696)">
            <path d="M35.645,-64.014C40.381,-64.014 44.19,-67.92 44.19,-72.51C44.19,-77.197 40.381,-81.055 35.645,-81.055C30.957,-81.055 27.197,-77.197 27.197,-72.51C27.197,-67.92 30.957,-64.014 35.645,-64.014ZM48.242,4.736C50.098,4.736 51.856,3.32 51.856,0.781C51.856,-0.146 51.563,-1.025 51.074,-2.1L43.408,-17.627C42.725,-18.945 41.895,-20.313 41.211,-21.289L36.328,-28.223L36.67,-29.248C37.94,-33.35 38.525,-35.84 38.818,-39.893L39.6,-51.221C39.99,-56.641 36.963,-61.084 31.543,-61.084C27.295,-61.084 24.463,-58.74 20.654,-54.981L14.648,-49.072C12.647,-47.07 12.012,-45.41 11.816,-42.92L11.035,-33.447C10.84,-31.104 12.158,-29.541 14.209,-29.395C16.26,-29.248 17.822,-30.42 18.018,-32.959L18.897,-43.555L22.656,-46.875C23.291,-47.461 24.268,-47.168 24.219,-46.191L23.535,-36.621C23.242,-32.227 25.098,-29.053 27.246,-26.318L35.01,-16.553C35.791,-15.576 35.938,-15.185 36.279,-14.502L44.58,2.295C45.459,4.102 46.826,4.736 48.242,4.736ZM49.609,-38.135L58.301,-38.135C60.693,-38.135 62.207,-39.502 62.207,-41.65C62.207,-43.75 60.693,-45.068 58.301,-45.068L49.072,-45.068L42.09,-52.637L41.406,-43.213L44.824,-39.893C46.143,-38.574 47.412,-38.135 49.609,-38.135ZM13.33,4.736C14.551,4.736 15.674,4.199 16.406,3.32L28.027,-10.498C29.297,-12.012 29.346,-12.305 29.785,-13.672C30.225,-15.088 30.615,-16.504 30.957,-17.773L24.609,-25.586L22.559,-15.576L11.572,-2.49C10.547,-1.27 9.766,-0.293 9.766,1.221C9.766,3.271 11.279,4.736 13.33,4.736Z" style="fill-rule:nonzero;"/>
        </g>
        <g id="Ultralight-S" transform="matrix(1,0,0,1,524.115,696)">
            <path d="M35.156,-63.916C39.795,-63.916 43.506,-67.773 43.506,-72.217C43.506,-76.807 39.795,-80.615 35.156,-80.615C30.566,-80.615 26.856,-76.807 26.856,-72.217C26.856,-67.773 30.566,-63.916 35.156,-63.916ZM47.705,3.955C49.463,3.955 51.172,2.539 51.172,0.049C51.172,-0.879 50.879,-1.758 50.391,-2.783L42.822,-18.164C42.188,-19.482 41.357,-20.85 40.674,-21.826L35.84,-28.662L36.133,-29.639C37.402,-33.691 37.988,-36.133 38.281,-40.186L39.063,-51.367C39.453,-56.738 36.475,-61.133 31.201,-61.133C27.002,-61.133 24.219,-58.838 20.459,-55.078L14.551,-49.268C12.549,-47.266 11.865,-45.606 11.67,-43.164L10.938,-33.789C10.742,-31.445 12.06,-29.932 14.014,-29.834C16.016,-29.688 17.529,-30.811 17.725,-33.301L18.555,-43.897L22.412,-47.217C23.047,-47.803 24.023,-47.51 23.975,-46.533L23.291,-36.963C22.998,-32.617 24.805,-29.443 26.953,-26.758L34.668,-17.09C35.4,-16.162 35.547,-15.772 35.889,-15.088L44.092,1.514C44.971,3.32 46.289,3.955 47.705,3.955ZM48.926,-38.477L57.568,-38.477C59.961,-38.477 61.426,-39.795 61.426,-41.846C61.426,-43.897 59.961,-45.215 57.568,-45.215L48.438,-45.215L41.26,-52.93L40.576,-43.75L44.238,-40.186C45.557,-38.916 46.777,-38.477 48.926,-38.477ZM13.232,3.955C14.453,3.955 15.527,3.418 16.26,2.539L27.734,-11.133C29.004,-12.647 29.004,-12.891 29.443,-14.258C29.932,-15.82 30.371,-17.334 30.713,-18.701L24.512,-26.318L22.461,-16.113L11.523,-3.125C10.547,-1.953 9.766,-0.977 9.766,0.537C9.766,2.539 11.23,3.955 13.232,3.955Z" style="fill-rule:nonzero;"/>
        </g>
    </g>
</svg>
